SplineFontDB: 3.0
FontName: Ume-Vertical-Wide
FullName: Ume Vertical Wide
FamilyName: Ume Vertical Wide
Weight: Book
Copyright: Author: HORAI Wataru. License: This font is a free software. Unlimited permission is granted to use, copy, and distribute it, with or without modification, either commercially and noncommercially. THIS FONT IS PROVIDED "AS IS" WITHOUT WARRANTY.
Version: Look update time of this file.
ItalicAngle: 0
UnderlinePosition: -72
UnderlineWidth: 48
Ascent: 3520
Descent: 576
InvalidEm: 0
sfntRevision: 0x00050000
LayerCount: 2
Layer: 0 1 "Back" 1
Layer: 1 1 "Fore" 0
XUID: [1021 886 1883369363 2087285]
FSType: 8
OS2Version: 1
OS2_WeightWidthSlopeOnly: 0
OS2_UseTypoMetrics: 1
CreationTime: -2082844800
ModificationTime: 1464686489
PfmFamily: 17
TTFWeight: 400
TTFWidth: 5
LineGap: 0
VLineGap: 0
Panose: 2 0 6 0 0 0 0 0 0 0
OS2TypoAscent: 3520
OS2TypoAOffset: 0
OS2TypoDescent: -576
OS2TypoDOffset: 0
OS2TypoLinegap: 0
OS2WinAscent: 3408
OS2WinAOffset: 0
OS2WinDescent: 576
OS2WinDOffset: 0
HheadAscent: 3408
HheadAOffset: 0
HheadDescent: -576
HheadDOffset: 0
OS2SubXSize: 2048
OS2SubYSize: 2048
OS2SubXOff: 0
OS2SubYOff: 1472
OS2SupXSize: 2048
OS2SupYSize: 2048
OS2SupXOff: 0
OS2SupYOff: 1760
OS2StrikeYSize: 208
OS2StrikeYPos: 1056
OS2CapHeight: 0
OS2XHeight: 0
OS2Vendor: 'Take'
OS2CodePages: 4002009f.dfd70000
OS2UnicodeRanges: a00002bf.68c7fcfb.00000010.00000000
Lookup: 1 1 0 "'vert' Vertical Alternates (obs) in Hiragana & Katakana lookup 0" { "'vert' Vertical Alternates (obs) in Hiragana & Katakana lookup 0 subtable"  } ['vert' ('kana' <'JAN ' 'dflt' > ) ]
MarkAttachClasses: 1
DEI: 91125
TtTable: prep
PUSHW_1
 511
SCANCTRL
PUSHB_1
 1
SCANTYPE
PUSHB_2
 1
 129
RCVT
WCVTP
PUSHB_2
 2
 130
RCVT
WCVTP
PUSHB_2
 3
 131
RCVT
WCVTP
PUSHB_2
 4
 132
RCVT
WCVTP
PUSHB_2
 5
 133
RCVT
WCVTP
PUSHB_2
 6
 134
RCVT
WCVTP
PUSHB_2
 7
 135
RCVT
WCVTP
PUSHB_2
 8
 136
RCVT
WCVTP
PUSHB_2
 9
 137
RCVT
WCVTP
PUSHB_2
 10
 138
RCVT
WCVTP
PUSHB_2
 11
 139
RCVT
WCVTP
PUSHB_2
 12
 140
RCVT

StartChar: .notdef
Encoding: 65536 -1 0
Width: 770
Flags: W
LayerCount: 2
Back
Fore
SplineSet
262 400 m 1,0,-1
 262 620 l 1,1,-1
 515 620 l 1,2,-1
 515 400 l 1,3,-1
 262 400 l 1,0,-1
EndSplineSet
EndChar

StartChar: exclam
Encoding: 33 33 4
Width: 1400
GlyphClass: 2
Flags: W
LayerCount: 2
Back
Fore
SplineSet
1012 3088 m 1,0,-1
 902 688 l 1,1,-1
 497 688 l 1,2,-1
 386 3088 l 1,3,-1
 1012 3088 l 1,0,-1
386 -304 m 1,4,-1
 386 288 l 1,5,-1
 1012 288 l 1,6,-1
 1012 -304 l 1,7,-1
 386 -304 l 1,4,-1
EndSplineSet
EndChar

StartChar: quotedbl
Encoding: 34 34 5
Width: 2014
GlyphClass: 2
Flags: W
LayerCount: 2
Back
Fore
SplineSet
869 3104 m 1,0,-1
 869 2512 l 2,1,2
 869 1760 869 1760 336 1728 c 1,3,-1
 336 2016 l 1,4,5
 593 2016 593 2016 593 2528 c 1,6,-1
 336 2528 l 1,7,-1
 336 3104 l 1,8,-1
 869 3104 l 1,0,-1
1734 3104 m 1,9,-1
 1734 2512 l 2,10,11
 1734 1760 1734 1760 1201 1728 c 1,12,-1
 1201 2016 l 1,13,14
 1458 2016 1458 2016 1458 2528 c 1,15,-1
 1201 2528 l 1,16,-1
 1201 3104 l 1,17,-1
 1734 3104 l 1,9,-1
EndSplineSet
EndChar

StartChar: numbersign
Encoding: 35 35 6
Width: 3417
GlyphClass: 2
Flags: W
LayerCount: 2
Back
Fore
SplineSet
990 -304 m 1,0,-1
 622 -304 l 1,1,-1
 788 560 l 1,2,-1
 107 560 l 1,3,-1
 107 848 l 1,4,-1
 843 848 l 1,5,-1
 1064 2160 l 1,6,-1
 383 2160 l 1,7,-1
 383 2432 l 1,8,-1
 1119 2432 l 1,9,-1
 1229 3248 l 1,10,-1
 1597 3248 l 1,11,-1
 1469 2432 l 1,12,-1
 2333 2432 l 1,13,-1
 2444 3248 l 1,14,-1
 2793 3248 l 1,15,-1
 2683 2432 l 1,16,-1
 3327 2432 l 1,17,-1
 3327 2160 l 1,18,-1
 2646 2160 l 1,19,-1
 2425 848 l 1,20,-1
 3088 848 l 1,21,-1
 3088 560 l 1,22,-1
 2370 560 l 1,23,-1
 2205 -304 l 1,24,-1
 1837 -304 l 1,25,-1
 2002 560 l 1,26,-1
 1156 560 l 1,27,-1
 990 -304 l 1,0,-1
1432 2160 m 1,28,-1
 1211 848 l 1,29,-1
 2057 848 l 1,30,-1
 2278 2160 l 1,31,-1
 1432 2160 l 1,28,-1
EndSplineSet
EndChar

StartChar: dollar
Encoding: 36 36 7
Width: 3019
GlyphClass: 2
Flags: W
LayerCount: 2
Back
Fore
SplineSet
159 864 m 1,0,-1
 564 864 l 1,1,2
 564 608 564 608 766 496 c 128,-1,3
 968 384 968 384 1300 368 c 1,4,-1
 1300 1472 l 1,5,6
 803 1536 803 1536 554.5 1720 c 128,-1,7
 306 1904 306 1904 306 2176 c 0,8,9
 306 2464 306 2464 545 2664 c 128,-1,10
 784 2864 784 2864 1300 2880 c 1,11,-1
 1300 3248 l 1,12,-1
 1631 3248 l 1,13,-1
 1631 2880 l 1,14,15
 2091 2864 2091 2864 2403.5 2680 c 128,-1,16
 2716 2496 2716 2496 2716 2224 c 1,17,-1
 2275 2224 l 1,18,19
 2275 2384 2275 2384 2091 2496 c 128,-1,20
 1907 2608 1907 2608 1631 2624 c 1,21,-1
 1631 1680 l 1,22,23
 2183 1584 2183 1584 2486.5 1400 c 128,-1,24
 2790 1216 2790 1216 2790 864 c 256,25,26
 2790 512 2790 512 2486.5 304 c 128,-1,27
 2183 96 2183 96 1631 96 c 1,28,-1
 1631 -304 l 1,29,-1
 1300 -304 l 1,30,-1
 1300 96 l 1,31,32
 711 112 711 112 435 320 c 128,-1,33
 159 528 159 528 159 864 c 1,0,-1
2385 864 m 0,34,35
 2385 1104 2385 1104 2210.5 1216 c 128,-1,36
 2036 1328 2036 1328 1631 1392 c 1,37,-1
 1631 368 l 1,38,39
 1999 384 1999 384 2192 512 c 128,-1,40
 2385 640 2385 640 2385 864 c 0,34,35
692 2176 m 0,41,42
 692 1984 692 1984 876 1888 c 128,-1,43
 1060 1792 1060 1792 1300 1744 c 1,44,-1
 1300 2624 l 1,45,46
 987 2608 987 2608 839.5 2504 c 128,-1,47
 692 2400 692 2400 692 2176 c 0,41,42
EndSplineSet
EndChar

StartChar: percent
Encoding: 37 37 8
Width: 4206
GlyphClass: 2
Flags: W
LayerCount: 2
Back
Fore
SplineSet
988 -208 m 1,0,-1
 2883 3312 l 1,1,-1
 3233 3152 l 1,2,-1
 1319 -368 l 1,3,-1
 988 -208 l 1,0,-1
160 2464 m 0,4,5
 160 2816 160 2816 380.5 3032 c 128,-1,6
 601 3248 601 3248 933 3248 c 0,7,8
 1301 3248 1301 3248 1521.5 3032 c 128,-1,9
 1742 2816 1742 2816 1742 2464 c 0,10,11
 1742 2096 1742 2096 1539.5 1888 c 128,-1,12
 1337 1680 1337 1680 933 1680 c 0,13,14
 583 1680 583 1680 371.5 1888 c 128,-1,15
 160 2096 160 2096 160 2464 c 0,4,5
528 2464 m 0,16,17
 528 2224 528 2224 638.5 2104 c 128,-1,18
 749 1984 749 1984 933 1984 c 0,19,20
 1135 1984 1135 1984 1254.5 2096 c 128,-1,21
 1374 2208 1374 2208 1374 2464 c 0,22,23
 1374 2704 1374 2704 1254.5 2824 c 128,-1,24
 1135 2944 1135 2944 933 2944 c 0,25,26
 730 2944 730 2944 629 2816 c 128,-1,27
 528 2688 528 2688 528 2464 c 0,16,17
2460 480 m 0,28,29
 2460 832 2460 832 2680.5 1048 c 128,-1,30
 2901 1264 2901 1264 3251 1264 c 256,31,32
 3601 1264 3601 1264 3821.5 1048 c 128,-1,33
 4042 832 4042 832 4042 480 c 0,34,35
 4042 112 4042 112 3839.5 -96 c 128,-1,36
 3637 -304 3637 -304 3251 -304 c 0,37,38
 2883 -304 2883 -304 2671.5 -96 c 128,-1,39
 2460 112 2460 112 2460 480 c 0,28,29
2828 480 m 0,40,41
 2828 240 2828 240 2938.5 120 c 128,-1,42
 3049 0 3049 0 3251 0 c 0,43,44
 3435 0 3435 0 3554.5 112 c 128,-1,45
 3674 224 3674 224 3674 480 c 0,46,47
 3674 720 3674 720 3554.5 840 c 128,-1,48
 3435 960 3435 960 3251 960 c 0,49,50
 3030 960 3030 960 2929 832 c 128,-1,51
 2828 704 2828 704 2828 480 c 0,40,41
EndSplineSet
EndChar

StartChar: ampersand
Encoding: 38 38 9
Width: 3667
GlyphClass: 2
Flags: W
LayerCount: 2
Back
Fore
SplineSet
3626 272 m 1,0,-1
 3460 0 l 1,1,2
 3037 112 3037 112 2596 368 c 1,3,4
 2172 0 2172 0 1400 0 c 0,5,6
 756 0 756 0 470.5 216 c 128,-1,7
 185 432 185 432 185 768 c 0,8,9
 185 1264 185 1264 995 1584 c 1,10,11
 645 2000 645 2000 645 2352 c 256,12,13
 645 2704 645 2704 875 2904 c 128,-1,14
 1105 3104 1105 3104 1584 3104 c 0,15,16
 2007 3104 2007 3104 2264.5 2904 c 128,-1,17
 2522 2704 2522 2704 2522 2352 c 0,18,19
 2522 1840 2522 1840 1528 1472 c 1,20,21
 1952 1056 1952 1056 2504 768 c 1,22,23
 2853 1168 2853 1168 3000 1584 c 1,24,-1
 3368 1456 l 1,25,26
 3203 1008 3203 1008 2816 592 c 1,27,28
 3203 400 3203 400 3626 272 c 1,0,-1
1308 1712 m 1,29,30
 2136 2016 2136 2016 2136 2352 c 0,31,32
 2136 2608 2136 2608 1979.5 2712 c 128,-1,33
 1823 2816 1823 2816 1584 2816 c 0,34,35
 1308 2816 1308 2816 1151.5 2720 c 128,-1,36
 995 2624 995 2624 995 2352 c 0,37,38
 995 2048 995 2048 1308 1712 c 1,29,30
2283 560 m 1,39,40
 1694 864 1694 864 1216 1344 c 1,41,42
 572 1104 572 1104 553 768 c 1,43,44
 572 544 572 544 792.5 416 c 128,-1,45
 1013 288 1013 288 1400 288 c 0,46,47
 1933 288 1933 288 2283 560 c 1,39,40
EndSplineSet
EndChar

StartChar: quotesingle
Encoding: 39 39 10
Width: 1154
GlyphClass: 2
Flags: W
LayerCount: 2
Back
Fore
SplineSet
982 2720 m 1,0,-1
 504 2144 l 1,1,-1
 228 2144 l 1,2,-1
 540 2720 l 1,3,-1
 264 2720 l 1,4,-1
 264 3248 l 1,5,-1
 982 3248 l 1,6,-1
 982 2720 l 1,0,-1
EndSplineSet
EndChar

StartChar: parenleft
Encoding: 40 40 11
Width: 1403
GlyphClass: 2
Flags: W
LayerCount: 2
Back
Fore
SplineSet
1375 -384 m 1,0,-1
 1136 -512 l 1,1,2
 363 288 363 288 363 1472 c 0,3,4
 363 2624 363 2624 1136 3440 c 1,5,-1
 1375 3312 l 1,6,7
 713 2496 713 2496 713 1472 c 0,8,9
 713 400 713 400 1375 -384 c 1,0,-1
EndSplineSet
EndChar

StartChar: parenright
Encoding: 41 41 12
Width: 1431
GlyphClass: 2
Flags: W
LayerCount: 2
Back
Fore
SplineSet
264 3440 m 1,0,1
 1074 2608 1074 2608 1074 1472 c 0,2,3
 1074 288 1074 288 264 -512 c 1,4,-1
 25 -384 l 1,5,6
 706 400 706 400 706 1472 c 0,7,8
 706 2496 706 2496 25 3312 c 1,9,-1
 264 3440 l 1,0,1
EndSplineSet
EndChar

StartChar: asterisk
Encoding: 42 42 13
Width: 3133
GlyphClass: 2
Flags: W
LayerCount: 2
Back
Fore
SplineSet
1848 2720 m 1,0,-1
 1738 1744 l 1,1,-1
 2658 2320 l 1,2,-1
 2934 1888 l 1,3,-1
 1922 1472 l 1,4,-1
 2934 1040 l 1,5,-1
 2658 656 l 1,6,-1
 1738 1200 l 1,7,-1
 1848 224 l 1,8,-1
 1314 224 l 1,9,-1
 1406 1200 l 1,10,-1
 486 656 l 1,11,-1
 192 1056 l 1,12,-1
 1241 1472 l 1,13,-1
 192 1888 l 1,14,-1
 486 2320 l 1,15,-1
 1406 1744 l 1,16,-1
 1314 2720 l 1,17,-1
 1848 2720 l 1,0,-1
EndSplineSet
EndChar

StartChar: plus
Encoding: 43 43 14
Width: 3793
GlyphClass: 2
Flags: W
LayerCount: 2
Back
Fore
SplineSet
1742 2944 m 1,0,-1
 2110 2944 l 1,1,-1
 2110 1616 l 1,2,-1
 3545 1616 l 1,3,-1
 3545 1344 l 1,4,-1
 2110 1344 l 1,5,-1
 2110 0 l 1,6,-1
 1742 0 l 1,7,-1
 1742 1344 l 1,8,-1
 252 1344 l 1,9,-1
 252 1616 l 1,10,-1
 1742 1616 l 1,11,-1
 1742 2944 l 1,0,-1
EndSplineSet
EndChar

StartChar: comma
Encoding: 44 44 15
Width: 1144
GlyphClass: 2
Flags: W
LayerCount: 2
Back
Fore
SplineSet
851 800 m 1,0,-1
 851 224 l 2,1,2
 851 -560 851 -560 281 -576 c 1,3,-1
 281 -288 l 1,4,5
 557 -288 557 -288 557 224 c 1,6,-1
 281 224 l 1,7,-1
 281 800 l 1,8,-1
 851 800 l 1,0,-1
EndSplineSet
EndChar

StartChar: hyphen
Encoding: 45 45 16
Width: 2268
GlyphClass: 2
Flags: W
LayerCount: 2
Back
Fore
SplineSet
1953 1088 m 1,0,-1
 315 1088 l 1,1,-1
 315 1312 l 1,2,-1
 1953 1312 l 1,3,-1
 1953 1088 l 1,0,-1
EndSplineSet
EndChar

StartChar: period
Encoding: 46 46 17
Width: 1075
GlyphClass: 2
Flags: W
LayerCount: 2
Back
Fore
SplineSet
782 0 m 1,0,-1
 285 0 l 1,1,-1
 285 800 l 1,2,-1
 782 800 l 1,3,-1
 782 0 l 1,0,-1
EndSplineSet
EndChar

StartChar: slash
Encoding: 47 47 18
Width: 4394
GlyphClass: 2
Flags: W
LayerCount: 2
Back
Fore
SplineSet
4051 3360 m 1,0,-1
 4364 3104 l 1,1,-1
 316 -400 l 1,2,-1
 3 -160 l 1,3,-1
 4051 3360 l 1,0,-1
EndSplineSet
EndChar

StartChar: zero
Encoding: 48 48 19
Width: 3031
GlyphClass: 2
Flags: W
LayerCount: 2
Back
Fore
SplineSet
1510 320 m 1,0,1
 2301 336 2301 336 2301 1568 c 0,2,3
 2301 2784 2301 2784 1528 2784 c 0,4,5
 737 2784 737 2784 737 1584 c 0,6,7
 737 336 737 336 1510 320 c 1,0,1
1400 0 m 2,8,9
 369 0 369 0 369 1568 c 0,10,11
 369 3104 369 3104 1381 3104 c 2,12,-1
 1657 3104 l 2,13,14
 2632 3104 2632 3104 2669 1568 c 1,15,16
 2669 0 2669 0 1639 0 c 2,17,-1
 1400 0 l 2,8,9
1326 1568 m 256,18,19
 1326 1792 1326 1792 1390.5 1888 c 128,-1,20
 1455 1984 1455 1984 1528 1984 c 0,21,22
 1602 1984 1602 1984 1657 1888 c 128,-1,23
 1712 1792 1712 1792 1712 1568 c 256,24,25
 1712 1344 1712 1344 1657 1264 c 128,-1,26
 1602 1184 1602 1184 1528 1184 c 0,27,28
 1455 1184 1455 1184 1390.5 1264 c 128,-1,29
 1326 1344 1326 1344 1326 1568 c 256,18,19
EndSplineSet
EndChar

StartChar: one
Encoding: 49 49 20
Width: 1713
GlyphClass: 2
Flags: W
LayerCount: 2
Back
Fore
SplineSet
166 0 m 1,0,-1
 166 320 l 1,1,-1
 718 320 l 1,2,-1
 718 2608 l 1,3,-1
 92 2608 l 1,4,-1
 92 2864 l 1,5,-1
 442 2864 l 2,6,7
 736 2864 736 2864 791 3104 c 1,8,-1
 1122 3104 l 1,9,-1
 1122 320 l 1,10,-1
 1656 320 l 1,11,-1
 1656 0 l 1,12,-1
 166 0 l 1,0,-1
EndSplineSet
EndChar

StartChar: two
Encoding: 50 50 21
Width: 2750
GlyphClass: 2
Flags: W
LayerCount: 2
Back
Fore
SplineSet
2466 0 m 1,0,-1
 166 0 l 1,1,-1
 166 352 l 1,2,-1
 1546 1360 l 1,3,4
 2079 1792 2079 1792 2079 2208 c 0,5,6
 2079 2784 2079 2784 1398 2784 c 2,7,-1
 1196 2784 l 1,8,9
 552 2800 552 2800 552 2288 c 1,10,-1
 166 2288 l 1,11,12
 166 3104 166 3104 1141 3104 c 2,13,-1
 1454 3104 l 2,14,15
 2466 3104 2466 3104 2466 2208 c 0,16,17
 2466 1664 2466 1664 1766 1088 c 1,18,-1
 754 352 l 1,19,-1
 2466 352 l 1,20,-1
 2466 0 l 1,0,-1
EndSplineSet
EndChar

StartChar: three
Encoding: 51 51 22
Width: 2824
GlyphClass: 2
Flags: W
LayerCount: 2
Back
Fore
SplineSet
2470 3104 m 1,0,-1
 2470 2784 l 1,1,-1
 1440 2016 l 1,2,3
 1937 2000 1937 2000 2203.5 1728 c 128,-1,4
 2470 1456 2470 1456 2470 1072 c 0,5,6
 2470 512 2470 512 2148 256 c 128,-1,7
 1826 0 1826 0 1256 0 c 0,8,9
 741 0 741 0 465 208 c 128,-1,10
 189 416 189 416 170 752 c 1,11,-1
 575 752 l 1,12,13
 575 560 575 560 740.5 440 c 128,-1,14
 906 320 906 320 1256 320 c 0,15,16
 1679 320 1679 320 1872 496 c 128,-1,17
 2065 672 2065 672 2065 1072 c 0,18,19
 2065 1408 2065 1408 1853.5 1576 c 128,-1,20
 1642 1744 1642 1744 1237 1744 c 2,21,-1
 961 1744 l 1,22,-1
 961 2048 l 1,23,-1
 1900 2784 l 1,24,-1
 170 2784 l 1,25,-1
 170 3104 l 1,26,-1
 2470 3104 l 1,0,-1
EndSplineSet
EndChar

StartChar: four
Encoding: 52 52 23
Width: 2632
GlyphClass: 2
Flags: W
LayerCount: 2
Back
Fore
SplineSet
1980 0 m 1,0,-1
 1612 0 l 1,1,-1
 1612 784 l 1,2,-1
 196 784 l 1,3,-1
 196 1056 l 1,4,-1
 1612 3104 l 1,5,-1
 1980 3104 l 1,6,-1
 1980 1056 l 1,7,-1
 2496 1056 l 1,8,-1
 2496 784 l 1,9,-1
 1980 784 l 1,10,-1
 1980 0 l 1,0,-1
1612 2496 m 1,11,-1
 637 1056 l 1,12,-1
 1612 1056 l 1,13,-1
 1612 2496 l 1,11,-1
EndSplineSet
EndChar

StartChar: five
Encoding: 53 53 24
Width: 3032
GlyphClass: 2
Flags: W
LayerCount: 2
Back
Fore
SplineSet
1585 1968 m 1,0,1
 2100 1968 2100 1968 2413 1688 c 128,-1,2
 2726 1408 2726 1408 2726 992 c 256,3,4
 2726 576 2726 576 2440.5 288 c 128,-1,5
 2155 0 2155 0 1585 0 c 0,6,7
 1070 0 1070 0 757 192 c 128,-1,8
 444 384 444 384 426 656 c 1,9,-1
 812 656 l 1,10,11
 886 480 886 480 1097.5 400 c 128,-1,12
 1309 320 1309 320 1585 320 c 0,13,14
 1953 320 1953 320 2146 504 c 128,-1,15
 2339 688 2339 688 2339 992 c 256,16,17
 2339 1296 2339 1296 2118.5 1488 c 128,-1,18
 1898 1680 1898 1680 1585 1680 c 0,19,20
 1143 1680 1143 1680 941 1376 c 1,21,-1
 426 1376 l 1,22,-1
 426 3104 l 1,23,-1
 2597 3104 l 1,24,-1
 2597 2816 l 1,25,-1
 830 2816 l 1,26,-1
 830 1680 l 1,27,28
 1088 1984 1088 1984 1585 1968 c 1,0,1
EndSplineSet
EndChar

StartChar: six
Encoding: 54 54 25
Width: 2881
GlyphClass: 2
Flags: W
LayerCount: 2
Back
Fore
SplineSet
988 1920 m 1,0,1
 1190 2016 1190 2016 1374 2016 c 2,2,-1
 1558 2016 l 2,3,4
 1945 2016 1945 2016 2276 1728 c 128,-1,5
 2607 1440 2607 1440 2607 1008 c 0,6,7
 2607 528 2607 528 2294 264 c 128,-1,8
 1981 0 1981 0 1577 0 c 2,9,-1
 1374 0 l 2,10,11
 951 0 951 0 629 272 c 128,-1,12
 307 544 307 544 307 1008 c 0,13,14
 307 1552 307 1552 601 2000 c 2,15,-1
 1337 3104 l 1,16,-1
 1761 3104 l 1,17,-1
 988 1920 l 1,0,1
675 1008 m 0,18,19
 675 704 675 704 905 504 c 128,-1,20
 1135 304 1135 304 1466 304 c 0,21,22
 1816 304 1816 304 2036.5 520 c 128,-1,23
 2257 736 2257 736 2257 1008 c 0,24,25
 2257 1296 2257 1296 2018 1496 c 128,-1,26
 1779 1696 1779 1696 1466 1696 c 0,27,28
 1135 1696 1135 1696 905 1496 c 128,-1,29
 675 1296 675 1296 675 1008 c 0,18,19
EndSplineSet
EndChar

StartChar: seven
Encoding: 55 55 26
Width: 2444
GlyphClass: 2
Flags: W
LayerCount: 2
Back
Fore
SplineSet
58 3104 m 1,0,-1
 2358 3104 l 1,1,-1
 2358 2832 l 1,2,-1
 996 0 l 1,3,-1
 610 0 l 1,4,-1
 1990 2832 l 1,5,-1
 58 2832 l 1,6,-1
 58 3104 l 1,0,-1
EndSplineSet
EndChar

StartChar: eight
Encoding: 56 56 27
Width: 2960
GlyphClass: 2
Flags: W
LayerCount: 2
Back
Fore
SplineSet
1996 1568 m 1,0,1
 2732 1408 2732 1408 2696 816 c 1,2,3
 2732 0 2732 0 1573 0 c 2,4,-1
 1389 0 l 2,5,6
 248 0 248 0 248 800 c 0,7,8
 248 1424 248 1424 1021 1568 c 1,9,10
 396 1712 396 1712 377 2288 c 1,11,12
 377 3104 377 3104 1389 3104 c 2,13,-1
 1573 3104 l 2,14,15
 2567 3104 2567 3104 2567 2288 c 0,16,17
 2567 1728 2567 1728 1996 1568 c 1,0,1
1481 1728 m 1,18,19
 2162 1856 2162 1856 2162 2288 c 1,20,21
 2180 2784 2180 2784 1573 2784 c 2,22,-1
 1389 2784 l 2,23,24
 819 2784 819 2784 782 2288 c 1,25,26
 819 1840 819 1840 1481 1728 c 1,18,19
1481 1392 m 1,27,28
 672 1296 672 1296 653 800 c 1,29,30
 672 368 672 368 1408 352 c 1,31,-1
 1555 352 l 2,32,33
 2272 352 2272 352 2291 816 c 1,34,35
 2254 1248 2254 1248 1481 1392 c 1,27,28
EndSplineSet
EndChar

StartChar: nine
Encoding: 57 57 28
Width: 2861
GlyphClass: 2
Flags: W
LayerCount: 2
Back
Fore
SplineSet
1891 1184 m 1,0,1
 1688 1088 1688 1088 1486 1088 c 2,2,-1
 1302 1088 l 2,3,4
 915 1088 915 1088 584 1376 c 128,-1,5
 253 1664 253 1664 253 2096 c 0,6,7
 253 2592 253 2592 566 2848 c 128,-1,8
 879 3104 879 3104 1283 3104 c 2,9,-1
 1504 3104 l 2,10,11
 1909 3104 1909 3104 2231 2832 c 128,-1,12
 2553 2560 2553 2560 2571 2096 c 1,13,14
 2571 1552 2571 1552 2259 1104 c 1,15,-1
 1523 0 l 1,16,-1
 1099 0 l 1,17,-1
 1891 1184 l 1,0,1
2185 2096 m 0,18,19
 2185 2416 2185 2416 1955 2608 c 128,-1,20
 1725 2800 1725 2800 1394 2800 c 0,21,22
 1044 2800 1044 2800 823.5 2584 c 128,-1,23
 603 2368 603 2368 603 2096 c 0,24,25
 603 1808 603 1808 842 1608 c 128,-1,26
 1081 1408 1081 1408 1394 1408 c 0,27,28
 1743 1408 1743 1408 1964 1608 c 128,-1,29
 2185 1808 2185 1808 2185 2096 c 0,18,19
EndSplineSet
EndChar

StartChar: colon
Encoding: 58 58 29
Width: 1513
GlyphClass: 2
Flags: W
LayerCount: 2
Back
Fore
SplineSet
1132 1680 m 1,0,-1
 377 1680 l 1,1,-1
 377 2336 l 1,2,-1
 1132 2336 l 1,3,-1
 1132 1680 l 1,0,-1
1132 224 m 1,4,-1
 377 224 l 1,5,-1
 377 880 l 1,6,-1
 1132 880 l 1,7,-1
 1132 224 l 1,4,-1
EndSplineSet
EndChar

StartChar: semicolon
Encoding: 59 59 30
Width: 1500
GlyphClass: 2
Flags: W
LayerCount: 2
Back
Fore
SplineSet
1130 1680 m 1,0,-1
 376 1680 l 1,1,-1
 376 2336 l 1,2,-1
 1130 2336 l 1,3,-1
 1130 1680 l 1,0,-1
1130 368 m 1,4,-1
 634 -288 l 1,5,-1
 339 -288 l 1,6,-1
 578 224 l 1,7,-1
 376 224 l 1,8,-1
 376 880 l 1,9,-1
 1130 880 l 1,10,-1
 1130 368 l 1,4,-1
EndSplineSet
EndChar

StartChar: less
Encoding: 60 60 31
Width: 3364
GlyphClass: 2
Flags: W
LayerCount: 2
Back
Fore
SplineSet
3061 3296 m 1,0,-1
 3300 3024 l 1,1,-1
 743 1472 l 1,2,-1
 3300 -80 l 1,3,-1
 3061 -352 l 1,4,-1
 172 1472 l 1,5,-1
 3061 3296 l 1,0,-1
EndSplineSet
EndChar

StartChar: equal
Encoding: 61 61 32
Width: 2355
GlyphClass: 2
Flags: W
LayerCount: 2
Back
Fore
SplineSet
2190 1536 m 1,0,-1
 166 1536 l 1,1,-1
 166 1760 l 1,2,-1
 2190 1760 l 1,3,-1
 2190 1536 l 1,0,-1
2190 768 m 1,4,-1
 166 768 l 1,5,-1
 166 992 l 1,6,-1
 2190 992 l 1,7,-1
 2190 768 l 1,4,-1
EndSplineSet
EndChar

StartChar: greater
Encoding: 62 62 33
Width: 3357
GlyphClass: 2
Flags: W
LayerCount: 2
Back
Fore
SplineSet
299 -352 m 1,0,-1
 60 -80 l 1,1,-1
 2617 1472 l 1,2,-1
 60 3024 l 1,3,-1
 299 3296 l 1,4,-1
 3188 1472 l 1,5,-1
 299 -352 l 1,0,-1
EndSplineSet
EndChar

StartChar: question
Encoding: 63 63 34
Width: 2991
GlyphClass: 2
Flags: W
LayerCount: 2
Back
Fore
SplineSet
1142 -304 m 1,0,-1
 1142 224 l 1,1,-1
 1768 224 l 1,2,-1
 1768 -304 l 1,3,-1
 1142 -304 l 1,0,-1
1455 3248 m 1,4,5
 2816 3248 2816 3248 2816 2400 c 1,6,7
 2798 1824 2798 1824 2136 1504 c 1,8,9
 1657 1232 1657 1232 1657 928 c 2,10,-1
 1657 688 l 1,11,-1
 1252 688 l 1,12,-1
 1252 928 l 2,13,14
 1252 1408 1252 1408 1860 1760 c 1,15,16
 2393 2016 2393 2016 2393 2400 c 0,17,18
 2393 2896 2393 2896 1455 2912 c 1,19,20
 572 2912 572 2912 572 2288 c 2,21,-1
 572 2000 l 1,22,-1
 185 2000 l 1,23,-1
 185 2288 l 2,24,25
 185 3232 185 3232 1455 3248 c 1,4,5
EndSplineSet
EndChar

StartChar: at
Encoding: 64 64 35
Width: 4211
GlyphClass: 2
Flags: W
LayerCount: 2
Back
Fore
SplineSet
3452 176 m 1,0,1
 2937 0 2937 0 2164 0 c 0,2,3
 343 0 343 0 343 1488 c 0,4,5
 343 3104 343 3104 2183 3104 c 0,6,7
 3876 3104 3876 3104 3876 1728 c 0,8,9
 3876 592 3876 592 3029 576 c 1,10,11
 2514 576 2514 576 2477 912 c 1,12,13
 2256 592 2256 592 1796 592 c 1,14,15
 1171 608 1171 608 1208 1328 c 1,16,17
 1336 2496 1336 2496 2256 2496 c 0,18,19
 2588 2496 2588 2496 2716 2224 c 1,20,-1
 2790 2496 l 1,21,-1
 3140 2448 l 1,22,-1
 2845 1360 l 2,23,24
 2698 832 2698 832 3029 832 c 1,25,26
 3526 848 3526 848 3526 1728 c 0,27,28
 3526 2848 3526 2848 2183 2848 c 1,29,30
 692 2864 692 2864 692 1472 c 0,31,32
 692 272 692 272 2164 256 c 1,33,34
 2753 256 2753 256 3250 416 c 1,35,-1
 3452 176 l 1,0,1
2256 2208 m 0,36,37
 1686 2208 1686 2208 1576 1344 c 1,38,39
 1520 864 1520 864 1888 864 c 0,40,41
 2220 864 2220 864 2367 1216 c 1,42,43
 2716 2208 2716 2208 2256 2208 c 0,36,37
EndSplineSet
EndChar

StartChar: A
Encoding: 65 65 36
Width: 3399
GlyphClass: 2
Flags: W
LayerCount: 2
Back
Fore
SplineSet
3273 0 m 1,0,-1
 2850 0 l 1,1,-1
 2390 1088 l 1,2,-1
 1028 1088 l 1,3,-1
 550 0 l 1,4,-1
 126 0 l 1,5,-1
 1488 3104 l 1,6,-1
 1948 3104 l 1,7,-1
 3273 0 l 1,0,-1
1102 1328 m 1,8,-1
 2316 1328 l 1,9,-1
 1727 2800 l 1,10,-1
 1102 1328 l 1,8,-1
EndSplineSet
EndChar

StartChar: B
Encoding: 66 66 37
Width: 3463
GlyphClass: 2
Flags: W
LayerCount: 2
Back
Fore
SplineSet
444 0 m 1,0,-1
 444 3104 l 1,1,-1
 1953 3104 l 1,2,3
 2358 3120 2358 3120 2652 2896 c 128,-1,4
 2946 2672 2946 2672 2946 2272 c 0,5,6
 2946 1808 2946 1808 2634 1600 c 1,7,8
 3186 1360 3186 1360 3186 912 c 0,9,10
 3186 448 3186 448 2891.5 224 c 128,-1,11
 2597 0 2597 0 2137 0 c 2,12,-1
 444 0 l 1,0,-1
2818 912 m 0,13,14
 2818 1152 2818 1152 2624.5 1296 c 128,-1,15
 2431 1440 2431 1440 2137 1440 c 2,16,-1
 775 1440 l 1,17,-1
 775 320 l 1,18,-1
 2137 320 l 2,19,20
 2468 320 2468 320 2643 464 c 128,-1,21
 2818 608 2818 608 2818 912 c 0,13,14
2578 2272 m 0,22,23
 2578 2480 2578 2480 2412.5 2632 c 128,-1,24
 2247 2784 2247 2784 1953 2784 c 2,25,-1
 775 2784 l 1,26,-1
 775 1680 l 1,27,-1
 2063 1680 l 2,28,29
 2284 1680 2284 1680 2431 1840 c 128,-1,30
 2578 2000 2578 2000 2578 2272 c 0,22,23
EndSplineSet
EndChar

StartChar: C
Encoding: 67 67 38
Width: 3475
GlyphClass: 2
Flags: W
LayerCount: 2
Back
Fore
SplineSet
286 1568 m 0,0,1
 286 2336 286 2336 654 2720 c 128,-1,2
 1022 3104 1022 3104 1648 3104 c 2,3,-1
 1979 3104 l 2,4,5
 2513 3104 2513 3104 2816.5 2800 c 128,-1,6
 3120 2496 3120 2496 3138 2032 c 1,7,-1
 2715 2032 l 1,8,9
 2697 2368 2697 2368 2494.5 2576 c 128,-1,10
 2292 2784 2292 2784 1961 2784 c 2,11,-1
 1685 2784 l 2,12,13
 1225 2784 1225 2784 949 2512 c 128,-1,14
 673 2240 673 2240 673 1536 c 0,15,16
 673 960 673 960 949 640 c 128,-1,17
 1225 320 1225 320 1648 320 c 2,18,-1
 1979 320 l 2,19,20
 2347 320 2347 320 2549.5 536 c 128,-1,21
 2752 752 2752 752 2789 1120 c 1,22,-1
 3212 1120 l 1,23,24
 3175 624 3175 624 2862.5 312 c 128,-1,25
 2550 0 2550 0 1979 0 c 2,26,-1
 1648 0 l 2,27,28
 1022 0 1022 0 654 408 c 128,-1,29
 286 816 286 816 286 1568 c 0,0,1
EndSplineSet
EndChar

StartChar: D
Encoding: 68 68 39
Width: 3423
GlyphClass: 2
Flags: W
LayerCount: 2
Back
Fore
SplineSet
2726 1536 m 0,0,1
 2726 2112 2726 2112 2440.5 2448 c 128,-1,2
 2155 2784 2155 2784 1401 2784 c 2,3,-1
 849 2784 l 1,4,-1
 849 320 l 1,5,-1
 1401 320 l 2,6,7
 2100 320 2100 320 2413 624 c 128,-1,8
 2726 928 2726 928 2726 1536 c 0,0,1
444 0 m 1,9,-1
 444 3104 l 1,10,-1
 1401 3104 l 2,11,12
 2302 3104 2302 3104 2707 2680 c 128,-1,13
 3112 2256 3112 2256 3112 1536 c 0,14,15
 3112 800 3112 800 2698 400 c 128,-1,16
 2284 0 2284 0 1401 0 c 2,17,-1
 444 0 l 1,9,-1
EndSplineSet
EndChar

StartChar: E
Encoding: 69 69 40
Width: 3207
GlyphClass: 2
Flags: W
LayerCount: 2
Back
Fore
SplineSet
444 0 m 1,0,-1
 444 3104 l 1,1,-1
 2946 3104 l 1,2,-1
 2946 2784 l 1,3,-1
 830 2784 l 1,4,-1
 830 1808 l 1,5,-1
 2652 1808 l 1,6,-1
 2652 1536 l 1,7,-1
 830 1536 l 1,8,-1
 830 320 l 1,9,-1
 2946 320 l 1,10,-1
 2946 0 l 1,11,-1
 444 0 l 1,0,-1
EndSplineSet
EndChar

StartChar: F
Encoding: 70 70 41
Width: 2848
GlyphClass: 2
Flags: W
LayerCount: 2
Back
Fore
SplineSet
830 0 m 1,0,-1
 444 0 l 1,1,-1
 444 3104 l 1,2,-1
 2744 3104 l 1,3,-1
 2744 2784 l 1,4,-1
 830 2784 l 1,5,-1
 830 1776 l 1,6,-1
 2394 1776 l 1,7,-1
 2394 1488 l 1,8,-1
 830 1488 l 1,9,-1
 830 0 l 1,0,-1
EndSplineSet
EndChar

StartChar: G
Encoding: 71 71 42
Width: 3656
GlyphClass: 2
Flags: W
LayerCount: 2
Back
Fore
SplineSet
277 1504 m 0,0,1
 277 2256 277 2256 672.5 2680 c 128,-1,2
 1068 3104 1068 3104 1620 3104 c 2,3,-1
 1988 3104 l 2,4,5
 2485 3104 2485 3104 2853 2824 c 128,-1,6
 3221 2544 3221 2544 3240 2032 c 1,7,-1
 2798 2032 l 1,8,9
 2798 2384 2798 2384 2559 2584 c 128,-1,10
 2320 2784 2320 2784 1970 2784 c 2,11,-1
 1620 2784 l 2,12,13
 1308 2784 1308 2784 995 2440 c 128,-1,14
 682 2096 682 2096 700 1488 c 0,15,16
 719 928 719 928 1022.5 624 c 128,-1,17
 1326 320 1326 320 1620 320 c 2,18,-1
 1970 320 l 2,19,20
 2301 320 2301 320 2558.5 528 c 128,-1,21
 2816 736 2816 736 2835 992 c 1,22,-1
 2835 1264 l 1,23,-1
 2080 1264 l 1,24,-1
 2080 1504 l 1,25,-1
 3258 1504 l 1,26,-1
 3258 0 l 1,27,-1
 2927 0 l 1,28,-1
 2780 256 l 1,29,30
 2504 0 2504 0 1988 0 c 2,31,-1
 1602 0 l 2,32,33
 1013 0 1013 0 645 432 c 128,-1,34
 277 864 277 864 277 1504 c 0,0,1
EndSplineSet
EndChar

StartChar: H
Encoding: 72 72 43
Width: 3564
GlyphClass: 2
Flags: W
LayerCount: 2
Back
Fore
SplineSet
849 0 m 1,0,-1
 444 0 l 1,1,-1
 444 3104 l 1,2,-1
 849 3104 l 1,3,-1
 849 1712 l 1,4,-1
 2689 1712 l 1,5,-1
 2689 3104 l 1,6,-1
 3112 3104 l 1,7,-1
 3112 0 l 1,8,-1
 2689 0 l 1,9,-1
 2689 1472 l 1,10,-1
 849 1472 l 1,11,-1
 849 0 l 1,0,-1
EndSplineSet
EndChar

StartChar: I
Encoding: 73 73 44
Width: 1532
GlyphClass: 2
Flags: W
LayerCount: 2
Back
Fore
SplineSet
1244 0 m 1,0,-1
 288 0 l 1,1,-1
 288 352 l 1,2,-1
 582 352 l 1,3,-1
 582 2784 l 1,4,-1
 288 2784 l 1,5,-1
 288 3104 l 1,6,-1
 1244 3104 l 1,7,-1
 1244 2784 l 1,8,-1
 950 2784 l 1,9,-1
 950 352 l 1,10,-1
 1244 352 l 1,11,-1
 1244 0 l 1,0,-1
EndSplineSet
EndChar

StartChar: J
Encoding: 74 74 45
Width: 2643
GlyphClass: 2
Flags: W
LayerCount: 2
Back
Fore
SplineSet
1333 320 m 2,0,1
 1554 320 1554 320 1692 456 c 128,-1,2
 1830 592 1830 592 1830 896 c 2,3,-1
 1830 3104 l 1,4,-1
 2216 3104 l 1,5,-1
 2216 896 l 2,6,7
 2216 432 2216 432 1986 216 c 128,-1,8
 1756 0 1756 0 1351 0 c 2,9,-1
 1038 0 l 2,10,11
 652 0 652 0 403.5 184 c 128,-1,12
 155 368 155 368 155 688 c 1,13,-1
 523 688 l 1,14,15
 542 512 542 512 661.5 416 c 128,-1,16
 781 320 781 320 1057 320 c 2,17,-1
 1333 320 l 2,0,1
EndSplineSet
EndChar

StartChar: K
Encoding: 75 75 46
Width: 3433
GlyphClass: 2
Flags: W
LayerCount: 2
Back
Fore
SplineSet
812 0 m 1,0,-1
 444 0 l 1,1,-1
 444 3104 l 1,2,-1
 812 3104 l 1,3,-1
 812 1488 l 1,4,-1
 2615 3104 l 1,5,-1
 3112 3104 l 1,6,-1
 1971 2064 l 1,7,-1
 3351 0 l 1,8,-1
 2928 0 l 1,9,-1
 1695 1840 l 1,10,-1
 812 1040 l 1,11,-1
 812 0 l 1,0,-1
EndSplineSet
EndChar

StartChar: L
Encoding: 76 76 47
Width: 2797
GlyphClass: 2
Flags: W
LayerCount: 2
Back
Fore
SplineSet
444 3104 m 1,0,-1
 830 3104 l 1,1,-1
 830 320 l 1,2,-1
 2634 320 l 1,3,-1
 2634 0 l 1,4,-1
 444 0 l 1,5,-1
 444 3104 l 1,0,-1
EndSplineSet
EndChar

StartChar: M
Encoding: 77 77 48
Width: 4448
GlyphClass: 2
Flags: W
LayerCount: 2
Back
Fore
SplineSet
812 0 m 1,0,-1
 444 0 l 1,1,-1
 444 3104 l 1,2,-1
 1033 3104 l 1,3,-1
 2229 368 l 1,4,-1
 3370 3104 l 1,5,-1
 3995 3104 l 1,6,-1
 3995 0 l 1,7,-1
 3627 0 l 1,8,-1
 3627 2704 l 1,9,-1
 2450 0 l 1,10,-1
 2008 0 l 1,11,-1
 812 2704 l 1,12,-1
 812 0 l 1,0,-1
EndSplineSet
EndChar

StartChar: N
Encoding: 78 78 49
Width: 3601
GlyphClass: 2
Flags: W
LayerCount: 2
Back
Fore
SplineSet
830 0 m 1,0,-1
 444 0 l 1,1,-1
 444 3104 l 1,2,-1
 1051 3104 l 1,3,-1
 2744 320 l 1,4,-1
 2744 3104 l 1,5,-1
 3149 3104 l 1,6,-1
 3149 0 l 1,7,-1
 2486 0 l 1,8,-1
 830 2784 l 1,9,-1
 830 0 l 1,0,-1
EndSplineSet
EndChar

StartChar: O
Encoding: 79 79 50
Width: 3744
GlyphClass: 2
Flags: W
LayerCount: 2
Back
Fore
SplineSet
273 1488 m 0,0,1
 273 2192 273 2192 659 2648 c 128,-1,2
 1045 3104 1045 3104 1671 3104 c 2,3,-1
 2039 3104 l 2,4,5
 2628 3104 2628 3104 3032.5 2640 c 128,-1,6
 3437 2176 3437 2176 3437 1488 c 0,7,8
 3437 832 3437 832 3051 416 c 128,-1,9
 2665 0 2665 0 2021 0 c 2,10,-1
 1689 0 l 2,11,12
 1101 0 1101 0 687 408 c 128,-1,13
 273 816 273 816 273 1488 c 0,0,1
677 1488 m 0,14,15
 677 896 677 896 999 608 c 128,-1,16
 1321 320 1321 320 1689 320 c 2,17,-1
 2021 320 l 2,18,19
 2425 320 2425 320 2738 616 c 128,-1,20
 3051 912 3051 912 3051 1488 c 256,21,22
 3051 2064 3051 2064 2747.5 2424 c 128,-1,23
 2444 2784 2444 2784 2039 2784 c 2,24,-1
 1671 2784 l 2,25,26
 1266 2784 1266 2784 971.5 2440 c 128,-1,27
 677 2096 677 2096 677 1488 c 0,14,15
EndSplineSet
EndChar

StartChar: P
Encoding: 80 80 51
Width: 3090
GlyphClass: 2
Flags: W
LayerCount: 2
Back
Fore
SplineSet
830 0 m 1,0,-1
 444 0 l 1,1,-1
 444 3104 l 1,2,-1
 1750 3104 l 2,3,4
 2284 3104 2284 3104 2578.5 2840 c 128,-1,5
 2873 2576 2873 2576 2873 2208 c 0,6,7
 2873 1808 2873 1808 2578.5 1536 c 128,-1,8
 2284 1264 2284 1264 1769 1264 c 2,9,-1
 830 1264 l 1,10,-1
 830 0 l 1,0,-1
2413 2208 m 0,11,12
 2413 2496 2413 2496 2219.5 2640 c 128,-1,13
 2026 2784 2026 2784 1750 2784 c 2,14,-1
 830 2784 l 1,15,-1
 830 1600 l 1,16,-1
 1769 1600 l 2,17,18
 2026 1600 2026 1600 2219.5 1752 c 128,-1,19
 2413 1904 2413 1904 2413 2208 c 0,11,12
EndSplineSet
EndChar

StartChar: Q
Encoding: 81 81 52
Width: 3740
GlyphClass: 2
Flags: W
LayerCount: 2
Back
Fore
SplineSet
2161 1024 m 1,0,1
 2161 624 2161 624 2188 384 c 0,2,3
 2192 351 2192 351 2199 319 c 1,4,5
 2509 383 2509 383 2740 584 c 0,6,7
 3081 880 3081 880 3099 1536 c 1,8,9
 3099 2160 3099 2160 2749.5 2496 c 128,-1,10
 2400 2832 2400 2832 1885 2832 c 256,11,12
 1370 2832 1370 2832 992.5 2496 c 128,-1,13
 615 2160 615 2160 615 1536 c 1,14,15
 597 912 597 912 965 608 c 0,16,17
 1332 305 1332 305 1880 288 c 1,18,19
 1811 629 1811 629 1811 1024 c 1,20,-1
 2161 1024 l 1,0,1
2014 3104 m 2,21,22
 2547 3104 2547 3104 2988.5 2688 c 128,-1,23
 3430 2272 3430 2272 3430 1536 c 256,24,25
 3430 800 3430 800 2998 400 c 0,26,27
 2709 134 2709 134 2303 45 c 1,28,29
 2338 -14 2338 -14 2382 -72 c 0,30,31
 2547 -288 2547 -288 2897 -288 c 0,32,33
 3118 -288 3118 -288 3210 -272 c 128,-1,34
 3302 -256 3302 -256 3541 -192 c 1,35,-1
 3541 -496 l 1,36,37
 3338 -560 3338 -560 3218.5 -568 c 128,-1,38
 3099 -576 3099 -576 2897 -576 c 0,39,40
 2474 -576 2474 -576 2225 -360 c 0,41,42
 2057 -214 2057 -214 1965 2 c 1,43,44
 1916 0 1916 0 1866 0 c 0,45,46
 1149 0 1149 0 707.5 432 c 128,-1,47
 266 864 266 864 266 1536 c 0,48,49
 266 2256 266 2256 726 2680 c 128,-1,50
 1186 3104 1186 3104 1756 3104 c 2,51,-1
 2014 3104 l 2,21,22
EndSplineSet
EndChar

StartChar: R
Encoding: 82 82 53
Width: 3260
GlyphClass: 2
Flags: W
LayerCount: 2
Back
Fore
SplineSet
830 0 m 1,0,-1
 444 0 l 1,1,-1
 444 3104 l 1,2,-1
 1879 3104 l 2,3,4
 2394 3104 2394 3104 2688.5 2864 c 128,-1,5
 2983 2624 2983 2624 2983 2256 c 0,6,7
 2983 1904 2983 1904 2753 1672 c 128,-1,8
 2523 1440 2523 1440 2063 1392 c 1,9,-1
 3112 0 l 1,10,-1
 2578 0 l 1,11,-1
 1640 1376 l 1,12,-1
 830 1376 l 1,13,-1
 830 0 l 1,0,-1
2542 2256 m 0,14,15
 2542 2544 2542 2544 2348.5 2664 c 128,-1,16
 2155 2784 2155 2784 1879 2784 c 2,17,-1
 830 2784 l 1,18,-1
 830 1696 l 1,19,-1
 1879 1696 l 2,20,21
 2155 1696 2155 1696 2348.5 1840 c 128,-1,22
 2542 1984 2542 1984 2542 2256 c 0,14,15
EndSplineSet
EndChar

StartChar: S
Encoding: 83 83 54
Width: 3338
GlyphClass: 2
Flags: W
LayerCount: 2
Back
Fore
SplineSet
275 816 m 1,0,-1
 698 816 l 1,1,2
 698 528 698 528 955.5 424 c 128,-1,3
 1213 320 1213 320 1489 320 c 2,4,-1
 1784 320 l 2,5,6
 2170 320 2170 320 2391 448 c 128,-1,7
 2612 576 2612 576 2612 816 c 0,8,9
 2612 1024 2612 1024 2409.5 1144 c 128,-1,10
 2207 1264 2207 1264 1636 1392 c 1,11,12
 1121 1472 1121 1472 698 1640 c 128,-1,13
 275 1808 275 1808 275 2208 c 256,14,15
 275 2608 275 2608 606 2856 c 128,-1,16
 937 3104 937 3104 1508 3104 c 2,17,-1
 1820 3104 l 2,18,19
 2409 3104 2409 3104 2731 2872 c 128,-1,20
 3053 2640 3053 2640 3053 2240 c 1,21,-1
 2612 2240 l 1,22,23
 2612 2512 2612 2512 2400 2648 c 128,-1,24
 2188 2784 2188 2784 1820 2784 c 2,25,-1
 1508 2784 l 2,26,27
 1084 2784 1084 2784 872.5 2616 c 128,-1,28
 661 2448 661 2448 661 2208 c 0,29,30
 661 2000 661 2000 955.5 1880 c 128,-1,31
 1250 1760 1250 1760 1692 1680 c 1,32,33
 2262 1584 2262 1584 2639 1384 c 128,-1,34
 3016 1184 3016 1184 3016 816 c 0,35,36
 3016 416 3016 416 2657.5 208 c 128,-1,37
 2299 0 2299 0 1802 0 c 2,38,-1
 1489 0 l 2,39,40
 956 0 956 0 615.5 208 c 128,-1,41
 275 416 275 416 275 816 c 1,0,-1
EndSplineSet
EndChar

StartChar: T
Encoding: 84 84 55
Width: 2716
GlyphClass: 2
Flags: W
LayerCount: 2
Back
Fore
SplineSet
1555 0 m 1,0,-1
 1168 0 l 1,1,-1
 1168 2784 l 1,2,-1
 83 2784 l 1,3,-1
 83 3104 l 1,4,-1
 2622 3104 l 1,5,-1
 2622 2784 l 1,6,-1
 1555 2784 l 1,7,-1
 1555 0 l 1,0,-1
EndSplineSet
EndChar

StartChar: U
Encoding: 85 85 56
Width: 3655
GlyphClass: 2
Flags: W
LayerCount: 2
Back
Fore
SplineSet
1883 320 m 2,0,1
 2398 320 2398 320 2618.5 568 c 128,-1,2
 2839 816 2839 816 2839 1216 c 2,3,-1
 2839 3104 l 1,4,-1
 3244 3104 l 1,5,-1
 3244 1216 l 2,6,7
 3244 704 3244 704 2922 352 c 128,-1,8
 2600 0 2600 0 1883 0 c 2,9,-1
 1754 0 l 2,10,11
 1091 0 1091 0 741.5 344 c 128,-1,12
 392 688 392 688 392 1216 c 2,13,-1
 392 3104 l 1,14,-1
 797 3104 l 1,15,-1
 797 1216 l 2,16,17
 797 848 797 848 1027 584 c 128,-1,18
 1257 320 1257 320 1772 320 c 2,19,-1
 1883 320 l 2,0,1
EndSplineSet
EndChar

StartChar: V
Encoding: 86 86 57
Width: 3237
GlyphClass: 2
Flags: W
LayerCount: 2
Back
Fore
SplineSet
3169 3104 m 1,0,-1
 1918 0 l 1,1,-1
 1385 0 l 1,2,-1
 60 3104 l 1,3,-1
 557 3104 l 1,4,-1
 1661 320 l 1,5,-1
 2709 3104 l 1,6,-1
 3169 3104 l 1,0,-1
EndSplineSet
EndChar

StartChar: W
Encoding: 87 87 58
Width: 4364
GlyphClass: 2
Flags: W
LayerCount: 2
Back
Fore
SplineSet
98 3104 m 1,0,-1
 576 3104 l 1,1,-1
 1220 320 l 1,2,-1
 1864 3104 l 1,3,-1
 2453 3104 l 1,4,-1
 3115 320 l 1,5,-1
 3759 3104 l 1,6,-1
 4256 3104 l 1,7,-1
 3447 0 l 1,8,-1
 2803 0 l 1,9,-1
 2177 2784 l 1,10,-1
 1515 0 l 1,11,-1
 907 0 l 1,12,-1
 98 3104 l 1,0,-1
EndSplineSet
EndChar

StartChar: X
Encoding: 88 88 59
Width: 3072
GlyphClass: 2
Flags: W
LayerCount: 2
Back
Fore
SplineSet
2931 0 m 1,0,-1
 2398 0 l 1,1,-1
 1551 1200 l 1,2,-1
 687 0 l 1,3,-1
 153 0 l 1,4,-1
 1294 1552 l 1,5,-1
 171 3104 l 1,6,-1
 723 3104 l 1,7,-1
 1551 1888 l 1,8,-1
 2379 3104 l 1,9,-1
 2931 3104 l 1,10,-1
 1791 1552 l 1,11,-1
 2931 0 l 1,0,-1
EndSplineSet
EndChar

StartChar: Y
Encoding: 89 89 60
Width: 2771
GlyphClass: 2
Flags: W
LayerCount: 2
Back
Fore
SplineSet
1587 0 m 1,0,-1
 1201 0 l 1,1,-1
 1201 1600 l 1,2,-1
 41 3104 l 1,3,-1
 538 3104 l 1,4,-1
 1385 1936 l 1,5,-1
 2213 3104 l 1,6,-1
 2728 3104 l 1,7,-1
 1587 1600 l 1,8,-1
 1587 0 l 1,0,-1
EndSplineSet
EndChar

StartChar: Z
Encoding: 90 90 61
Width: 3062
GlyphClass: 2
Flags: W
LayerCount: 2
Back
Fore
SplineSet
277 3104 m 1,0,-1
 2816 3104 l 1,1,-1
 2816 2784 l 1,2,-1
 737 320 l 1,3,-1
 2816 320 l 1,4,-1
 2816 0 l 1,5,-1
 277 0 l 1,6,-1
 277 320 l 1,7,-1
 2338 2784 l 1,8,-1
 277 2784 l 1,9,-1
 277 3104 l 1,0,-1
EndSplineSet
EndChar

StartChar: bracketleft
Encoding: 91 91 62
Width: 1635
GlyphClass: 2
Flags: W
LayerCount: 2
Back
Fore
SplineSet
1546 -384 m 1,0,-1
 460 -384 l 1,1,-1
 460 3328 l 1,2,-1
 1582 3328 l 1,3,-1
 1582 3072 l 1,4,-1
 773 3072 l 1,5,-1
 773 -128 l 1,6,-1
 1546 -128 l 1,7,-1
 1546 -384 l 1,0,-1
EndSplineSet
EndChar

StartChar: backslash
Encoding: 92 92 63
Width: 4394
GlyphClass: 2
Flags: W
LayerCount: 2
Back
Fore
SplineSet
360 3344 m 1,0,-1
 4390 -160 l 1,1,-1
 4058 -400 l 1,2,-1
 29 3104 l 1,3,-1
 360 3344 l 1,0,-1
EndSplineSet
EndChar

StartChar: bracketright
Encoding: 93 93 64
Width: 1485
GlyphClass: 2
Flags: W
LayerCount: 2
Back
Fore
SplineSet
1026 -384 m 1,0,-1
 51 -384 l 1,1,-1
 51 -112 l 1,2,-1
 695 -112 l 1,3,-1
 695 3088 l 1,4,-1
 51 3088 l 1,5,-1
 51 3328 l 1,6,-1
 1026 3328 l 1,7,-1
 1026 -384 l 1,0,-1
EndSplineSet
EndChar

StartChar: asciicircum
Encoding: 94 94 65
Width: 2244
GlyphClass: 2
Flags: W
LayerCount: 2
Back
Fore
SplineSet
596 2480 m 1,0,-1
 172 2704 l 1,1,-1
 964 3408 l 1,2,-1
 1276 3408 l 1,3,-1
 2068 2704 l 1,4,-1
 1644 2480 l 1,5,-1
 1129 2960 l 1,6,-1
 596 2480 l 1,0,-1
EndSplineSet
EndChar

StartChar: underscore
Encoding: 95 95 66
Width: 2096
GlyphClass: 2
Flags: W
LayerCount: 2
Back
Fore
SplineSet
1764 -576 m 1,0,-1
 329 -576 l 1,1,-1
 329 -288 l 1,2,-1
 1764 -288 l 1,3,-1
 1764 -576 l 1,0,-1
EndSplineSet
EndChar

StartChar: grave
Encoding: 96 96 67
Width: 1599
GlyphClass: 2
Flags: W
LayerCount: 2
Back
Fore
SplineSet
123 3328 m 1,0,-1
 822 3328 l 1,1,-1
 1411 2496 l 1,2,-1
 1006 2496 l 1,3,-1
 123 3328 l 1,0,-1
EndSplineSet
EndChar

StartChar: a
Encoding: 97 97 68
Width: 2720
GlyphClass: 2
Flags: W
LayerCount: 2
Back
Fore
SplineSet
1417 2368 m 2,0,1
 1840 2368 1840 2368 2024 2152 c 128,-1,2
 2208 1936 2208 1936 2208 1536 c 2,3,-1
 2208 480 l 2,4,5
 2208 224 2208 224 2318 0 c 1,6,-1
 1895 0 l 1,7,-1
 1858 336 l 1,8,9
 1638 160 1638 160 1435.5 88 c 128,-1,10
 1233 16 1233 16 1030 0 c 1,11,12
 589 0 589 0 377.5 184 c 128,-1,13
 166 368 166 368 166 736 c 0,14,15
 166 1056 166 1056 396 1248 c 128,-1,16
 626 1440 626 1440 984.5 1496 c 128,-1,17
 1343 1552 1343 1552 1822 1568 c 1,18,-1
 1822 1680 l 2,19,20
 1822 1840 1822 1840 1711.5 1952 c 128,-1,21
 1601 2064 1601 2064 1380 2064 c 2,22,-1
 1104 2064 l 2,23,24
 810 2064 810 2064 699.5 1976 c 128,-1,25
 589 1888 589 1888 552 1680 c 1,26,-1
 221 1680 l 1,27,28
 258 2080 258 2080 478.5 2224 c 128,-1,29
 699 2368 699 2368 1049 2368 c 2,30,-1
 1417 2368 l 2,0,1
534 736 m 256,31,32
 534 512 534 512 662.5 408 c 128,-1,33
 791 304 791 304 1067 304 c 1,34,35
 1196 320 1196 320 1371 384 c 128,-1,36
 1546 448 1546 448 1822 688 c 1,37,-1
 1822 1296 l 1,38,39
 1343 1264 1343 1264 1094.5 1232 c 128,-1,40
 846 1200 846 1200 690 1080 c 128,-1,41
 534 960 534 960 534 736 c 256,31,32
EndSplineSet
EndChar

StartChar: b
Encoding: 98 98 69
Width: 2873
GlyphClass: 2
Flags: W
LayerCount: 2
Back
Fore
SplineSet
1754 2352 m 2,0,1
 2085 2352 2085 2352 2324 2104 c 128,-1,2
 2563 1856 2563 1856 2563 1248 c 0,3,4
 2563 576 2563 576 2250.5 296 c 128,-1,5
 1938 16 1938 16 1515 0 c 1,6,7
 1055 0 1055 0 797 208 c 1,8,-1
 797 0 l 1,9,-1
 447 0 l 1,10,-1
 447 3248 l 1,11,-1
 797 3248 l 1,12,-1
 797 2128 l 1,13,14
 1055 2352 1055 2352 1367 2352 c 2,15,-1
 1754 2352 l 2,0,1
1515 272 m 1,16,17
 1791 288 1791 288 1993 512 c 128,-1,18
 2195 736 2195 736 2195 1248 c 256,19,20
 2195 1760 2195 1760 2048 1912 c 128,-1,21
 1901 2064 1901 2064 1643 2064 c 2,22,-1
 1386 2064 l 2,23,24
 1091 2064 1091 2064 797 1776 c 1,25,-1
 797 496 l 1,26,27
 1110 272 1110 272 1515 272 c 1,16,17
EndSplineSet
EndChar

StartChar: c
Encoding: 99 99 70
Width: 2723
GlyphClass: 2
Flags: W
LayerCount: 2
Back
Fore
SplineSet
264 1232 m 0,0,1
 264 1824 264 1824 549.5 2088 c 128,-1,2
 835 2352 835 2352 1203 2352 c 2,3,-1
 1571 2352 l 2,4,5
 1920 2352 1920 2352 2159.5 2096 c 128,-1,6
 2399 1840 2399 1840 2436 1520 c 1,7,-1
 2049 1520 l 1,8,9
 1994 1808 1994 1808 1837.5 1936 c 128,-1,10
 1681 2064 1681 2064 1516 2064 c 2,11,-1
 1240 2064 l 2,12,13
 1074 2064 1074 2064 844 1856 c 128,-1,14
 614 1648 614 1648 614 1232 c 0,15,16
 614 736 614 736 844 512 c 128,-1,17
 1074 288 1074 288 1350 288 c 0,18,19
 1571 288 1571 288 1773.5 416 c 128,-1,20
 1976 544 1976 544 2031 848 c 1,21,-1
 2417 848 l 1,22,23
 2344 432 2344 432 2077 216 c 128,-1,24
 1810 0 1810 0 1350 0 c 0,25,26
 872 0 872 0 568 360 c 128,-1,27
 264 720 264 720 264 1232 c 0,0,1
EndSplineSet
EndChar

StartChar: d
Encoding: 100 100 71
Width: 2786
GlyphClass: 2
Flags: W
LayerCount: 2
Back
Fore
SplineSet
1410 2352 m 2,0,1
 1704 2352 1704 2352 1962 2160 c 1,2,-1
 1962 3248 l 1,3,-1
 2330 3248 l 1,4,-1
 2330 0 l 1,5,-1
 1962 0 l 1,6,-1
 1962 176 l 1,7,8
 1723 0 1723 0 1373 0 c 0,9,10
 821 0 821 0 536 344 c 128,-1,11
 251 688 251 688 251 1248 c 0,12,13
 251 1792 251 1792 508.5 2072 c 128,-1,14
 766 2352 766 2352 1060 2352 c 2,15,-1
 1410 2352 l 2,0,1
1171 2064 m 2,16,17
 1005 2064 1005 2064 839.5 1864 c 128,-1,18
 674 1664 674 1664 674 1248 c 0,19,20
 674 768 674 768 867 528 c 128,-1,21
 1060 288 1060 288 1373 288 c 256,22,23
 1686 288 1686 288 1962 512 c 1,24,-1
 1962 1824 l 1,25,26
 1686 2064 1686 2064 1410 2064 c 2,27,-1
 1171 2064 l 2,16,17
EndSplineSet
EndChar

StartChar: e
Encoding: 101 101 72
Width: 2665
GlyphClass: 2
Flags: W
LayerCount: 2
Back
Fore
SplineSet
630 1056 m 1,0,1
 630 704 630 704 851 496 c 128,-1,2
 1072 288 1072 288 1366 288 c 0,3,4
 1587 288 1587 288 1734 360 c 128,-1,5
 1881 432 1881 432 1955 576 c 1,6,-1
 2341 576 l 1,7,8
 2268 304 2268 304 2019.5 152 c 128,-1,9
 1771 0 1771 0 1385 0 c 0,10,11
 869 0 869 0 575 296 c 128,-1,12
 281 592 281 592 281 1056 c 2,13,-1
 281 1328 l 2,14,15
 281 1824 281 1824 557 2088 c 128,-1,16
 833 2352 833 2352 1182 2352 c 2,17,-1
 1440 2352 l 2,18,19
 1716 2352 1716 2352 2019.5 2120 c 128,-1,20
 2323 1888 2323 1888 2323 1328 c 2,21,-1
 2323 1056 l 1,22,-1
 630 1056 l 1,0,1
1992 1328 m 1,23,24
 1992 1744 1992 1744 1780.5 1904 c 128,-1,25
 1569 2064 1569 2064 1293 2064 c 0,26,27
 998 2064 998 2064 814 1880 c 128,-1,28
 630 1696 630 1696 630 1328 c 1,29,-1
 1992 1328 l 1,23,24
EndSplineSet
EndChar

StartChar: f
Encoding: 102 102 73
Width: 1559
GlyphClass: 2
Flags: W
LayerCount: 2
Back
Fore
SplineSet
1367 2992 m 1,0,-1
 1018 2992 l 2,1,2
 834 2992 834 2992 834 2848 c 2,3,-1
 834 2352 l 1,4,-1
 1367 2352 l 1,5,-1
 1367 2064 l 1,6,-1
 834 2064 l 1,7,-1
 834 0 l 1,8,-1
 466 0 l 1,9,-1
 466 2064 l 1,10,-1
 153 2064 l 1,11,-1
 153 2352 l 1,12,-1
 466 2352 l 1,13,-1
 466 2864 l 2,14,15
 466 3248 466 3248 871 3248 c 2,16,-1
 1367 3248 l 1,17,-1
 1367 2992 l 1,0,-1
EndSplineSet
EndChar

StartChar: g
Encoding: 103 103 74
Width: 2760
GlyphClass: 2
Flags: W
LayerCount: 2
Back
Fore
SplineSet
497 1680 m 0,0,1
 497 1968 497 1968 699.5 2160 c 128,-1,2
 902 2352 902 2352 1251 2352 c 2,3,-1
 1454 2352 l 2,4,5
 1656 2352 1656 2352 1822 2256 c 1,6,7
 2098 2384 2098 2384 2502 2464 c 1,8,-1
 2502 2096 l 1,9,10
 2190 2112 2190 2112 1987 2064 c 1,11,12
 2134 1888 2134 1888 2134 1616 c 0,13,14
 2134 1360 2134 1360 1932 1168 c 128,-1,15
 1730 976 1730 976 1343 976 c 0,16,17
 1159 976 1159 976 1049 1024 c 1,18,19
 902 896 902 896 957 816 c 128,-1,20
 1012 736 1012 736 1472 680 c 128,-1,21
 1932 624 1932 624 2208 480 c 128,-1,22
 2484 336 2484 336 2484 48 c 0,23,24
 2484 -224 2484 -224 2199 -400 c 128,-1,25
 1914 -576 1914 -576 1325 -576 c 0,26,27
 810 -576 810 -576 497 -424 c 128,-1,28
 184 -272 184 -272 184 32 c 0,29,30
 184 240 184 240 331 384 c 128,-1,31
 478 528 478 528 681 624 c 1,32,33
 442 864 442 864 754 1152 c 1,34,35
 497 1360 497 1360 497 1680 c 0,0,1
902 1680 m 256,36,37
 902 1520 902 1520 1021.5 1408 c 128,-1,38
 1141 1296 1141 1296 1343 1296 c 0,39,40
 1564 1296 1564 1296 1665 1408 c 128,-1,41
 1766 1520 1766 1520 1766 1680 c 256,42,43
 1766 1840 1766 1840 1646.5 1952 c 128,-1,44
 1527 2064 1527 2064 1343 2064 c 256,45,46
 1159 2064 1159 2064 1030.5 1952 c 128,-1,47
 902 1840 902 1840 902 1680 c 256,36,37
589 32 m 0,48,49
 589 -96 589 -96 809.5 -168 c 128,-1,50
 1030 -240 1030 -240 1325 -240 c 0,51,52
 1730 -240 1730 -240 1914 -168 c 128,-1,53
 2098 -96 2098 -96 2098 48 c 0,54,55
 2098 256 2098 256 1748 336 c 128,-1,56
 1398 416 1398 416 1030 448 c 1,57,58
 828 368 828 368 708.5 256 c 128,-1,59
 589 144 589 144 589 32 c 0,48,49
EndSplineSet
EndChar

StartChar: h
Encoding: 104 104 75
Width: 2994
GlyphClass: 2
Flags: W
LayerCount: 2
Back
Fore
SplineSet
1515 2064 m 2,0,1
 1165 2064 1165 2064 815 1744 c 1,2,-1
 815 0 l 1,3,-1
 447 0 l 1,4,-1
 447 3248 l 1,5,-1
 815 3248 l 1,6,-1
 815 2064 l 1,7,8
 1165 2352 1165 2352 1533 2352 c 2,9,-1
 1883 2352 l 2,10,11
 2214 2352 2214 2352 2407 2200 c 128,-1,12
 2600 2048 2600 2048 2600 1696 c 2,13,-1
 2600 0 l 1,14,-1
 2251 0 l 1,15,-1
 2251 1696 l 2,16,17
 2251 1920 2251 1920 2149.5 1992 c 128,-1,18
 2048 2064 2048 2064 1864 2064 c 2,19,-1
 1515 2064 l 2,0,1
EndSplineSet
EndChar

StartChar: i
Encoding: 105 105 76
Width: 1309
GlyphClass: 2
Flags: W
LayerCount: 2
Back
Fore
SplineSet
852 0 m 1,0,-1
 447 0 l 1,1,-1
 447 2352 l 1,2,-1
 852 2352 l 1,3,-1
 852 0 l 1,0,-1
852 2800 m 1,4,-1
 447 2800 l 1,5,-1
 447 3520 l 1,6,-1
 852 3520 l 1,7,-1
 852 2800 l 1,4,-1
EndSplineSet
EndChar

StartChar: j
Encoding: 106 106 77
Width: 1258
GlyphClass: 2
Flags: W
LayerCount: 2
Back
Fore
SplineSet
7 -576 m 1,0,-1
 7 -224 l 1,1,2
 393 -224 393 -224 393 128 c 2,3,-1
 393 2352 l 1,4,-1
 798 2352 l 1,5,-1
 798 128 l 2,6,7
 798 -576 798 -576 7 -576 c 1,0,-1
798 2800 m 1,8,-1
 393 2800 l 1,9,-1
 393 3520 l 1,10,-1
 798 3520 l 1,11,-1
 798 2800 l 1,8,-1
EndSplineSet
EndChar

StartChar: k
Encoding: 107 107 78
Width: 2693
GlyphClass: 2
Flags: W
LayerCount: 2
Back
Fore
SplineSet
815 0 m 1,0,-1
 447 0 l 1,1,-1
 447 3248 l 1,2,-1
 815 3248 l 1,3,-1
 815 1328 l 1,4,-1
 1827 2352 l 1,5,-1
 2287 2352 l 1,6,-1
 1625 1680 l 1,7,-1
 2600 0 l 1,8,-1
 2159 0 l 1,9,-1
 1349 1424 l 1,10,-1
 815 880 l 1,11,-1
 815 0 l 1,0,-1
EndSplineSet
EndChar

StartChar: l
Encoding: 108 108 79
Width: 1327
GlyphClass: 2
Flags: W
LayerCount: 2
Back
Fore
SplineSet
1117 0 m 1,0,-1
 896 0 l 2,1,2
 436 0 436 0 436 368 c 2,3,-1
 436 3248 l 1,4,-1
 804 3248 l 1,5,-1
 804 368 l 2,6,7
 804 288 804 288 914 288 c 2,8,-1
 1117 288 l 1,9,-1
 1117 0 l 1,0,-1
EndSplineSet
EndChar

StartChar: m
Encoding: 109 109 80
Width: 4273
GlyphClass: 2
Flags: W
LayerCount: 2
Back
Fore
SplineSet
2855 2064 m 2,0,1
 2579 2064 2579 2064 2340 1728 c 1,2,-1
 2340 0 l 1,3,-1
 1935 0 l 1,4,-1
 1935 1600 l 2,5,6
 1935 1840 1935 1840 1815.5 1952 c 128,-1,7
 1696 2064 1696 2064 1604 2064 c 2,8,-1
 1328 2064 l 1,9,10
 1015 2048 1015 2048 813 1728 c 1,11,-1
 813 0 l 1,12,-1
 408 0 l 1,13,-1
 408 2352 l 1,14,-1
 813 2352 l 1,15,-1
 813 2064 l 1,16,17
 1034 2352 1034 2352 1347 2352 c 2,18,-1
 1604 2352 l 2,19,20
 1788 2352 1788 2352 1963 2264 c 128,-1,21
 2138 2176 2138 2176 2248 2032 c 1,22,23
 2469 2352 2469 2352 2855 2352 c 2,24,-1
 3131 2352 l 2,25,26
 3426 2352 3426 2352 3646.5 2200 c 128,-1,27
 3867 2048 3867 2048 3867 1600 c 2,28,-1
 3867 0 l 1,29,-1
 3444 0 l 1,30,-1
 3444 1600 l 2,31,32
 3444 1872 3444 1872 3343 1968 c 128,-1,33
 3242 2064 3242 2064 3113 2064 c 2,34,-1
 2855 2064 l 2,0,1
EndSplineSet
EndChar

StartChar: n
Encoding: 110 110 81
Width: 2895
GlyphClass: 2
Flags: W
LayerCount: 2
Back
Fore
SplineSet
1475 2064 m 2,0,1
 1089 2064 1089 2064 795 1664 c 1,2,-1
 795 0 l 1,3,-1
 408 0 l 1,4,-1
 408 2352 l 1,5,-1
 795 2352 l 1,6,-1
 795 2064 l 1,7,8
 1052 2352 1052 2352 1457 2352 c 2,9,-1
 1788 2352 l 2,10,11
 2487 2352 2487 2352 2487 1712 c 2,12,-1
 2487 0 l 1,13,-1
 2119 0 l 1,14,-1
 2119 1712 l 2,15,16
 2119 2064 2119 2064 1770 2064 c 2,17,-1
 1475 2064 l 2,0,1
EndSplineSet
EndChar

StartChar: o
Encoding: 111 111 82
Width: 2917
GlyphClass: 2
Flags: W
LayerCount: 2
Back
Fore
SplineSet
1597 2352 m 2,0,1
 2131 2352 2131 2352 2361 2040 c 128,-1,2
 2591 1728 2591 1728 2591 1232 c 2,3,-1
 2591 1184 l 2,4,5
 2591 624 2591 624 2352 312 c 128,-1,6
 2113 0 2113 0 1597 0 c 2,7,-1
 1285 0 l 2,8,9
 788 0 788 0 530.5 296 c 128,-1,10
 273 592 273 592 273 1184 c 2,11,-1
 273 1232 l 2,12,13
 273 1744 273 1744 549 2048 c 128,-1,14
 825 2352 825 2352 1285 2352 c 2,15,-1
 1597 2352 l 2,0,1
641 1232 m 2,16,-1
 641 1184 l 2,17,18
 641 720 641 720 843 504 c 128,-1,19
 1045 288 1045 288 1450 288 c 256,20,21
 1855 288 1855 288 2020.5 528 c 128,-1,22
 2186 768 2186 768 2186 1184 c 2,23,-1
 2186 1232 l 2,24,25
 2186 1632 2186 1632 2029.5 1848 c 128,-1,26
 1873 2064 1873 2064 1432 2064 c 0,27,28
 1064 2064 1064 2064 852.5 1856 c 128,-1,29
 641 1648 641 1648 641 1232 c 2,16,-1
EndSplineSet
EndChar

StartChar: p
Encoding: 112 112 83
Width: 2789
GlyphClass: 2
Flags: W
LayerCount: 2
Back
Fore
SplineSet
420 -576 m 1,0,-1
 420 2352 l 1,1,-1
 806 2352 l 1,2,-1
 806 2128 l 1,3,4
 1082 2352 1082 2352 1413 2352 c 2,5,-1
 1616 2352 l 2,6,7
 2002 2352 2002 2352 2241.5 2080 c 128,-1,8
 2481 1808 2481 1808 2481 1296 c 0,9,10
 2481 848 2481 848 2260 552 c 128,-1,11
 2039 256 2039 256 1505 256 c 0,12,13
 1064 256 1064 256 806 464 c 1,14,-1
 806 -576 l 1,15,-1
 420 -576 l 1,0,-1
1505 544 m 0,16,17
 1763 544 1763 544 1919.5 712 c 128,-1,18
 2076 880 2076 880 2076 1296 c 0,19,20
 2076 1728 2076 1728 1919.5 1896 c 128,-1,21
 1763 2064 1763 2064 1524 2064 c 0,22,23
 1101 2064 1101 2064 806 1792 c 1,24,-1
 806 768 l 1,25,26
 1101 544 1101 544 1505 544 c 0,16,17
EndSplineSet
EndChar

StartChar: q
Encoding: 113 113 84
Width: 2745
GlyphClass: 2
Flags: W
LayerCount: 2
Back
Fore
SplineSet
2309 -576 m 1,0,-1
 1923 -576 l 1,1,-1
 1923 480 l 1,2,3
 1628 256 1628 256 1150 256 c 256,4,5
 672 256 672 256 469.5 536 c 128,-1,6
 267 816 267 816 267 1216 c 0,7,8
 267 1808 267 1808 497 2080 c 128,-1,9
 727 2352 727 2352 1058 2352 c 2,10,-1
 1334 2352 l 2,11,12
 1665 2352 1665 2352 1923 2112 c 1,13,-1
 1923 2352 l 1,14,-1
 2309 2352 l 1,15,-1
 2309 -576 l 1,0,-1
1168 2064 m 0,16,17
 929 2064 929 2064 809.5 1848 c 128,-1,18
 690 1632 690 1632 690 1216 c 0,19,20
 690 864 690 864 800.5 704 c 128,-1,21
 911 544 911 544 1150 544 c 0,22,23
 1628 544 1628 544 1923 816 c 1,24,-1
 1923 1760 l 1,25,26
 1573 2064 1573 2064 1168 2064 c 0,16,17
EndSplineSet
EndChar

StartChar: r
Encoding: 114 114 85
Width: 2015
GlyphClass: 2
Flags: W
LayerCount: 2
Back
Fore
SplineSet
794 0 m 1,0,-1
 407 0 l 1,1,-1
 407 2352 l 1,2,-1
 794 2352 l 1,3,-1
 794 1968 l 1,4,5
 1346 2352 1346 2352 1861 2384 c 1,6,-1
 1861 1968 l 1,7,8
 1346 2000 1346 2000 794 1616 c 1,9,-1
 794 0 l 1,0,-1
EndSplineSet
EndChar

StartChar: s
Encoding: 115 115 86
Width: 2808
GlyphClass: 2
Flags: W
LayerCount: 2
Back
Fore
SplineSet
186 688 m 1,0,-1
 610 688 l 1,1,2
 610 496 610 496 830.5 392 c 128,-1,3
 1051 288 1051 288 1364 288 c 256,4,5
 1677 288 1677 288 1897.5 384 c 128,-1,6
 2118 480 2118 480 2118 672 c 0,7,8
 2118 848 2118 848 1879 920 c 128,-1,9
 1640 992 1640 992 1207.5 1032 c 128,-1,10
 775 1072 775 1072 554.5 1240 c 128,-1,11
 334 1408 334 1408 334 1712 c 0,12,13
 334 2032 334 2032 591.5 2192 c 128,-1,14
 849 2352 849 2352 1162 2352 c 2,15,-1
 1548 2352 l 2,16,17
 1879 2352 1879 2352 2136.5 2184 c 128,-1,18
 2394 2016 2394 2016 2394 1760 c 1,19,-1
 1971 1760 l 1,20,21
 1934 1904 1934 1904 1805.5 1984 c 128,-1,22
 1677 2064 1677 2064 1364 2064 c 0,23,24
 1014 2064 1014 2064 894.5 1968 c 128,-1,25
 775 1872 775 1872 775 1712 c 0,26,27
 775 1504 775 1504 940.5 1432 c 128,-1,28
 1106 1360 1106 1360 1520 1320 c 128,-1,29
 1934 1280 1934 1280 2228.5 1120 c 128,-1,30
 2523 960 2523 960 2523 672 c 0,31,32
 2523 352 2523 352 2238 176 c 128,-1,33
 1953 0 1953 0 1364 0 c 0,34,35
 812 0 812 0 527 184 c 128,-1,36
 242 368 242 368 186 688 c 1,0,-1
EndSplineSet
EndChar

StartChar: t
Encoding: 116 116 87
Width: 1691
GlyphClass: 2
Flags: W
LayerCount: 2
Back
Fore
SplineSet
528 2976 m 1,0,-1
 951 3104 l 1,1,-1
 951 2352 l 1,2,-1
 1503 2352 l 1,3,-1
 1503 2064 l 1,4,-1
 951 2064 l 1,5,-1
 951 400 l 2,6,7
 951 288 951 288 1080 288 c 2,8,-1
 1429 288 l 1,9,-1
 1429 0 l 1,10,-1
 1006 0 l 2,11,12
 528 0 528 0 528 400 c 2,13,-1
 528 2064 l 1,14,-1
 105 2064 l 1,15,-1
 105 2352 l 1,16,-1
 528 2352 l 1,17,-1
 528 2976 l 1,0,-1
EndSplineSet
EndChar

StartChar: u
Encoding: 117 117 88
Width: 2869
GlyphClass: 2
Flags: W
LayerCount: 2
Back
Fore
SplineSet
1248 320 m 0,0,1
 1671 320 1671 320 2057 752 c 1,2,-1
 2057 2352 l 1,3,-1
 2444 2352 l 1,4,-1
 2444 0 l 1,5,-1
 2057 0 l 1,6,-1
 2057 320 l 1,7,8
 1689 0 1689 0 1248 0 c 0,9,10
 806 0 806 0 585.5 216 c 128,-1,11
 365 432 365 432 365 816 c 2,12,-1
 365 2352 l 1,13,-1
 769 2352 l 1,14,-1
 769 816 l 2,15,16
 769 544 769 544 898 432 c 128,-1,17
 1027 320 1027 320 1248 320 c 0,0,1
EndSplineSet
EndChar

StartChar: v
Encoding: 118 118 89
Width: 2540
GlyphClass: 2
Flags: W
LayerCount: 2
Back
Fore
SplineSet
972 0 m 1,0,-1
 125 2352 l 1,1,-1
 604 2352 l 1,2,-1
 1266 400 l 1,3,-1
 1929 2352 l 1,4,-1
 2389 2352 l 1,5,-1
 1542 0 l 1,6,-1
 972 0 l 1,0,-1
EndSplineSet
EndChar

StartChar: w
Encoding: 119 119 90
Width: 3784
GlyphClass: 2
Flags: W
LayerCount: 2
Back
Fore
SplineSet
148 2352 m 1,0,-1
 590 2352 l 1,1,-1
 1105 352 l 1,2,-1
 1639 2352 l 1,3,-1
 2136 2352 l 1,4,-1
 2669 352 l 1,5,-1
 3166 2352 l 1,6,-1
 3589 2352 l 1,7,-1
 2964 0 l 1,8,-1
 2412 0 l 1,9,-1
 1896 1920 l 1,10,-1
 1381 0 l 1,11,-1
 866 0 l 1,12,-1
 148 2352 l 1,0,-1
EndSplineSet
EndChar

StartChar: x
Encoding: 120 120 91
Width: 2515
GlyphClass: 2
Flags: W
LayerCount: 2
Back
Fore
SplineSet
2325 0 m 1,0,-1
 1865 0 l 1,1,-1
 1276 816 l 1,2,-1
 669 0 l 1,3,-1
 191 0 l 1,4,-1
 1056 1168 l 1,5,-1
 191 2352 l 1,6,-1
 688 2352 l 1,7,-1
 1276 1488 l 1,8,-1
 1865 2352 l 1,9,-1
 2344 2352 l 1,10,-1
 1497 1184 l 1,11,-1
 2325 0 l 1,0,-1
EndSplineSet
EndChar

StartChar: y
Encoding: 121 121 92
Width: 2482
GlyphClass: 2
Flags: W
LayerCount: 2
Back
Fore
SplineSet
820 -96 m 1,0,-1
 967 208 l 1,1,-1
 121 2352 l 1,2,-1
 544 2352 l 1,3,-1
 1206 736 l 1,4,-1
 1887 2352 l 1,5,-1
 2366 2352 l 1,6,-1
 1206 -192 l 1,7,8
 1004 -576 1004 -576 673 -576 c 2,9,-1
 268 -576 l 1,10,-1
 268 -272 l 1,11,-1
 562 -272 l 2,12,13
 728 -272 728 -272 820 -96 c 1,0,-1
EndSplineSet
EndChar

StartChar: z
Encoding: 122 122 93
Width: 2572
GlyphClass: 2
Flags: W
LayerCount: 2
Back
Fore
SplineSet
278 2352 m 1,0,-1
 2284 2352 l 1,1,-1
 2284 2048 l 1,2,-1
 720 304 l 1,3,-1
 2284 304 l 1,4,-1
 2284 0 l 1,5,-1
 297 0 l 1,6,-1
 297 304 l 1,7,-1
 1861 2064 l 1,8,-1
 278 2064 l 1,9,-1
 278 2352 l 1,0,-1
EndSplineSet
EndChar

StartChar: braceleft
Encoding: 123 123 94
Width: 1266
GlyphClass: 2
Flags: W
LayerCount: 2
Back
Fore
SplineSet
1213 -432 m 1,0,1
 514 -432 514 -432 514 128 c 2,2,-1
 514 1024 l 1,3,4
 551 1360 551 1360 275 1408 c 1,5,-1
 275 1568 l 1,6,7
 569 1600 569 1600 514 1952 c 1,8,-1
 514 2768 l 2,9,10
 514 3344 514 3344 1213 3344 c 1,11,-1
 1213 3136 l 1,12,13
 845 3136 845 3136 845 2768 c 2,14,-1
 845 1952 l 2,15,16
 845 1616 845 1616 569 1488 c 1,17,18
 845 1344 845 1344 845 1024 c 2,19,-1
 845 128 l 2,20,21
 845 -240 845 -240 1213 -240 c 1,22,-1
 1213 -432 l 1,0,1
EndSplineSet
EndChar

StartChar: bar
Encoding: 124 124 95
Width: 1232
GlyphClass: 2
Flags: W
LayerCount: 2
Back
Fore
SplineSet
460 3520 m 1,0,-1
 773 3520 l 1,1,-1
 773 -576 l 1,2,-1
 460 -576 l 1,3,-1
 460 3520 l 1,0,-1
EndSplineSet
EndChar

StartChar: braceright
Encoding: 125 125 96
Width: 1273
GlyphClass: 2
Flags: W
LayerCount: 2
Back
Fore
SplineSet
52 3344 m 1,0,1
 769 3344 769 3344 769 2784 c 2,2,-1
 769 1888 l 1,3,4
 714 1552 714 1552 990 1504 c 1,5,-1
 990 1344 l 1,6,7
 714 1312 714 1312 769 960 c 1,8,-1
 769 144 l 2,9,10
 769 -432 769 -432 52 -432 c 1,11,-1
 52 -224 l 1,12,13
 420 -224 420 -224 420 144 c 2,14,-1
 420 960 l 2,15,16
 420 1296 420 1296 714 1424 c 1,17,18
 420 1568 420 1568 420 1888 c 2,19,-1
 420 2784 l 2,20,21
 420 3152 420 3152 52 3152 c 1,22,-1
 52 3344 l 1,0,1
EndSplineSet
EndChar

StartChar: asciitilde
Encoding: 126 126 97
Width: 1914
GlyphClass: 2
Flags: W
LayerCount: 2
Back
Fore
SplineSet
1710 2880 m 1,0,1
 1452 2448 1452 2448 919 2704 c 1,2,3
 606 2896 606 2896 422 2640 c 1,4,-1
 201 2816 l 1,5,6
 459 3296 459 3296 956 3024 c 1,7,8
 1268 2800 1268 2800 1489 3088 c 1,9,-1
 1710 2880 l 1,0,1
EndSplineSet
EndChar

StartChar: exclamdown
Encoding: 161 161 99
Width: 1235
GlyphClass: 2
Flags: W
LayerCount: 2
Back
Fore
SplineSet
414 -304 m 1,0,-1
 469 2192 l 1,1,-1
 764 2192 l 1,2,-1
 819 -304 l 1,3,-1
 414 -304 l 1,0,-1
800 3248 m 1,4,-1
 800 2720 l 1,5,-1
 451 2720 l 1,6,-1
 451 3248 l 1,7,-1
 800 3248 l 1,4,-1
EndSplineSet
EndChar

StartChar: cent
Encoding: 162 162 100
Width: 3019
GlyphClass: 2
Flags: W
LayerCount: 2
Back
Fore
SplineSet
309 1472 m 0,0,1
 309 1968 309 1968 631 2224 c 128,-1,2
 953 2480 953 2480 1395 2480 c 1,3,-1
 1395 2944 l 1,4,-1
 1763 2944 l 1,5,-1
 1763 2480 l 1,6,7
 2113 2480 2113 2480 2425.5 2272 c 128,-1,8
 2738 2064 2738 2064 2775 1696 c 1,9,-1
 2389 1696 l 1,10,11
 2389 1904 2389 1904 2214 2024 c 128,-1,12
 2039 2144 2039 2144 1901 2160 c 128,-1,13
 1763 2176 1763 2176 1763 2176 c 1,14,-1
 1763 736 l 1,15,16
 2057 768 2057 768 2204.5 904 c 128,-1,17
 2352 1040 2352 1040 2370 1248 c 1,18,-1
 2757 1248 l 1,19,20
 2738 864 2738 864 2453 656 c 128,-1,21
 2168 448 2168 448 1763 432 c 1,22,-1
 1763 0 l 1,23,-1
 1395 0 l 1,24,-1
 1395 432 l 1,25,26
 917 480 917 480 613 752 c 128,-1,27
 309 1024 309 1024 309 1472 c 0,0,1
1395 2176 m 1,28,29
 1119 2144 1119 2144 916.5 2000 c 128,-1,30
 714 1856 714 1856 714 1472 c 0,31,32
 714 1152 714 1152 889 968 c 128,-1,33
 1064 784 1064 784 1395 752 c 1,34,-1
 1395 2176 l 1,28,29
EndSplineSet
EndChar

StartChar: sterling
Encoding: 163 163 101
Width: 3262
GlyphClass: 2
Flags: W
LayerCount: 2
Back
Fore
SplineSet
2282 320 m 0,0,1
 2484 320 2484 320 2631 424 c 128,-1,2
 2778 528 2778 528 2742 896 c 1,3,-1
 3110 816 l 1,4,5
 3183 400 3183 400 2944 200 c 128,-1,6
 2705 0 2705 0 2282 0 c 0,7,8
 1932 0 1932 0 1794 80 c 128,-1,9
 1656 160 1656 160 1546 224 c 1,10,11
 1251 0 1251 0 791 0 c 0,12,13
 478 0 478 0 285 104 c 128,-1,14
 92 208 92 208 92 400 c 0,15,16
 92 608 92 608 285 720 c 128,-1,17
 478 832 478 832 736 832 c 256,18,19
 994 832 994 832 1150 784 c 128,-1,20
 1306 736 1306 736 1435 656 c 1,21,22
 1472 720 1472 720 1472 816 c 0,23,24
 1472 1056 1472 1056 1407.5 1192 c 128,-1,25
 1343 1328 1343 1328 1214 1520 c 1,26,-1
 552 1520 l 1,27,-1
 552 1792 l 1,28,-1
 1067 1792 l 1,29,30
 938 2000 938 2000 938 2176 c 0,31,32
 938 2464 938 2464 1150 2704 c 128,-1,33
 1362 2944 1362 2944 1858 2944 c 0,34,35
 2263 2944 2263 2944 2484 2768 c 128,-1,36
 2705 2592 2705 2592 2705 2400 c 1,37,-1
 2318 2400 l 1,38,39
 2318 2496 2318 2496 2208 2576 c 128,-1,40
 2098 2656 2098 2656 1858 2656 c 0,41,42
 1582 2656 1582 2656 1453.5 2512 c 128,-1,43
 1325 2368 1325 2368 1325 2176 c 1,44,45
 1343 1968 1343 1968 1472 1792 c 1,46,-1
 2318 1792 l 1,47,-1
 2318 1520 l 1,48,-1
 1638 1520 l 1,49,50
 1766 1328 1766 1328 1812 1200 c 128,-1,51
 1858 1072 1858 1072 1858 800 c 0,52,53
 1858 608 1858 608 1766 480 c 1,54,55
 1840 400 1840 400 1950.5 360 c 128,-1,56
 2061 320 2061 320 2282 320 c 0,0,1
736 592 m 0,57,58
 570 592 570 592 515 536 c 128,-1,59
 460 480 460 480 460 400 c 0,60,61
 460 336 460 336 543 296 c 128,-1,62
 626 256 626 256 791 256 c 0,63,64
 1104 256 1104 256 1306 400 c 1,65,66
 1196 480 1196 480 1076.5 536 c 128,-1,67
 957 592 957 592 736 592 c 0,57,58
EndSplineSet
EndChar

StartChar: currency
Encoding: 164 164 102
Width: 2401
GlyphClass: 2
Flags: W
LayerCount: 2
Back
Fore
SplineSet
637 1472 m 0,0,1
 637 976 637 976 802.5 736 c 128,-1,2
 968 496 968 496 1208 496 c 0,3,4
 1502 496 1502 496 1640 808 c 128,-1,5
 1778 1120 1778 1120 1778 1472 c 0,6,7
 1778 1904 1778 1904 1621.5 2168 c 128,-1,8
 1465 2432 1465 2432 1208 2432 c 0,9,10
 932 2432 932 2432 784.5 2152 c 128,-1,11
 637 1872 637 1872 637 1472 c 0,0,1
416 1472 m 1,12,13
 416 1904 416 1904 582 2288 c 1,14,-1
 269 2800 l 1,15,-1
 435 3072 l 1,16,-1
 748 2544 l 1,17,18
 950 2800 950 2800 1208 2800 c 0,19,20
 1484 2800 1484 2800 1686 2528 c 1,21,-1
 1999 3056 l 1,22,-1
 2164 2816 l 1,23,-1
 1852 2272 l 1,24,25
 1999 1920 1999 1920 1980 1472 c 1,26,27
 1980 1024 1980 1024 1833 672 c 1,28,-1
 2164 112 l 1,29,-1
 2017 -128 l 1,30,-1
 1686 416 l 1,31,32
 1484 160 1484 160 1208 160 c 0,33,34
 950 160 950 160 729 400 c 1,35,-1
 435 -128 l 1,36,-1
 269 128 l 1,37,-1
 582 656 l 1,38,39
 435 976 435 976 416 1472 c 1,12,13
EndSplineSet
EndChar

StartChar: yen
Encoding: 165 165 103
Width: 3558
GlyphClass: 2
Flags: W
LayerCount: 2
Back
Fore
SplineSet
1960 0 m 1,0,-1
 1592 0 l 1,1,-1
 1592 784 l 1,2,-1
 322 784 l 1,3,-1
 322 1056 l 1,4,-1
 1592 1056 l 1,5,-1
 1592 1584 l 1,6,-1
 322 1584 l 1,7,-1
 322 1856 l 1,8,-1
 1371 1856 l 1,9,-1
 304 3104 l 1,10,-1
 800 3104 l 1,11,-1
 1776 1904 l 1,12,-1
 2696 3104 l 1,13,-1
 3211 3104 l 1,14,-1
 2180 1856 l 1,15,-1
 3229 1856 l 1,16,-1
 3229 1584 l 1,17,-1
 1960 1584 l 1,18,-1
 1960 1056 l 1,19,-1
 3229 1056 l 1,20,-1
 3229 784 l 1,21,-1
 1960 784 l 1,22,-1
 1960 0 l 1,0,-1
EndSplineSet
EndChar

StartChar: brokenbar
Encoding: 166 166 104
Width: 1232
GlyphClass: 2
Flags: W
LayerCount: 2
Back
Fore
SplineSet
460 3520 m 1,0,-1
 773 3520 l 1,1,-1
 773 -576 l 1,2,-1
 460 -576 l 1,3,-1
 460 3520 l 1,0,-1
EndSplineSet
EndChar

StartChar: section
Encoding: 167 167 105
Width: 3840
GlyphClass: 2
Flags: W
LayerCount: 2
Back
Fore
SplineSet
814 464 m 1,0,1
 888 -32 888 -32 1937 -32 c 0,2,3
 3004 -32 3004 -32 3004 336 c 0,4,5
 3004 512 3004 512 2617.5 632 c 128,-1,6
 2231 752 2231 752 1624 880 c 0,7,8
 851 1040 851 1040 584 1184 c 128,-1,9
 317 1328 317 1328 317 1584 c 0,10,11
 317 1824 317 1824 980 2064 c 1,12,13
 483 2272 483 2272 483 2576 c 0,14,15
 483 2896 483 2896 842 3072 c 128,-1,16
 1201 3248 1201 3248 1937 3248 c 0,17,18
 3409 3248 3409 3248 3501 2480 c 1,19,-1
 3041 2480 l 1,20,21
 3022 2960 3022 2960 1937 2960 c 0,22,23
 980 2960 980 2960 980 2576 c 0,24,25
 980 2368 980 2368 1348 2256 c 128,-1,26
 1716 2144 1716 2144 2139 2064 c 1,27,28
 2857 1888 2857 1888 3179 1736 c 128,-1,29
 3501 1584 3501 1584 3501 1344 c 0,30,31
 3501 1056 3501 1056 2893 864 c 1,32,33
 3482 672 3482 672 3482 336 c 0,34,35
 3482 48 3482 48 3040.5 -128 c 128,-1,36
 2599 -304 2599 -304 1937 -304 c 0,37,38
 446 -304 446 -304 317 464 c 1,39,-1
 814 464 l 1,0,1
1440 1936 m 1,40,41
 796 1776 796 1776 796 1584 c 0,42,43
 796 1360 796 1360 1863 1136 c 1,44,-1
 2452 1008 l 1,45,46
 3004 1136 3004 1136 3004 1360 c 256,47,48
 3004 1584 3004 1584 2065 1792 c 1,49,-1
 1440 1936 l 1,40,41
EndSplineSet
Substitution2: "'vert' Vertical Alternates (obs) in Hiragana & Katakana lookup 0 subtable" section.vert
EndChar

StartChar: dieresis
Encoding: 168 168 106
Width: 2199
GlyphClass: 2
Flags: W
LayerCount: 2
Back
Fore
SplineSet
244 3104 m 1,0,-1
 814 3104 l 1,1,-1
 814 2624 l 1,2,-1
 244 2624 l 1,3,-1
 244 3104 l 1,0,-1
1385 3104 m 1,4,-1
 1955 3104 l 1,5,-1
 1955 2624 l 1,6,-1
 1385 2624 l 1,7,-1
 1385 3104 l 1,4,-1
EndSplineSet
Substitution2: "'vert' Vertical Alternates (obs) in Hiragana & Katakana lookup 0 subtable" dieresis.vert
EndChar

StartChar: copyright
Encoding: 169 169 107
Width: 3233
GlyphClass: 2
Flags: W
LayerCount: 2
Back
Fore
SplineSet
936 1456 m 0,0,1
 936 1712 936 1712 1138.5 1912 c 128,-1,2
 1341 2112 1341 2112 1617 2112 c 0,3,4
 1856 2112 1856 2112 2021.5 1984 c 128,-1,5
 2187 1856 2187 1856 2242 1616 c 1,6,-1
 2003 1616 l 1,7,8
 1966 1776 1966 1776 1874 1848 c 128,-1,9
 1782 1920 1782 1920 1617 1920 c 0,10,11
 1451 1920 1451 1920 1313 1800 c 128,-1,12
 1175 1680 1175 1680 1175 1456 c 256,13,14
 1175 1232 1175 1232 1304 1104 c 128,-1,15
 1433 976 1433 976 1617 976 c 0,16,17
 1782 976 1782 976 1883.5 1064 c 128,-1,18
 1985 1152 1985 1152 2022 1312 c 1,19,-1
 2261 1312 l 1,20,21
 2242 1088 2242 1088 2067.5 944 c 128,-1,22
 1893 800 1893 800 1617 800 c 256,23,24
 1341 800 1341 800 1138.5 992 c 128,-1,25
 936 1184 936 1184 936 1456 c 0,0,1
329 1472 m 0,26,27
 329 2048 329 2048 724.5 2392 c 128,-1,28
 1120 2736 1120 2736 1617 2736 c 0,29,30
 2187 2736 2187 2736 2546 2392 c 128,-1,31
 2905 2048 2905 2048 2905 1472 c 0,32,33
 2905 944 2905 944 2546 576 c 128,-1,34
 2187 208 2187 208 1617 208 c 0,35,36
 1046 208 1046 208 687.5 576 c 128,-1,37
 329 944 329 944 329 1472 c 0,26,27
531 1472 m 1,38,39
 550 992 550 992 853.5 696 c 128,-1,40
 1157 400 1157 400 1617 400 c 256,41,42
 2077 400 2077 400 2399 704 c 128,-1,43
 2721 1008 2721 1008 2721 1472 c 256,44,45
 2721 1936 2721 1936 2399 2240 c 128,-1,46
 2077 2544 2077 2544 1617 2544 c 256,47,48
 1157 2544 1157 2544 844 2232 c 128,-1,49
 531 1920 531 1920 531 1472 c 1,38,39
EndSplineSet
EndChar

StartChar: ordfeminine
Encoding: 170 170 108
Width: 1253
GlyphClass: 2
Flags: W
LayerCount: 2
Back
Fore
SplineSet
656 3248 m 2,0,1
 784 3248 784 3248 867 3144 c 128,-1,2
 950 3040 950 3040 950 2864 c 2,3,-1
 950 2352 l 1,4,-1
 987 2112 l 1,5,-1
 821 2112 l 1,6,-1
 803 2240 l 1,7,8
 748 2176 748 2176 692.5 2144 c 128,-1,9
 637 2112 637 2112 527 2112 c 0,10,11
 380 2112 380 2112 306 2192 c 128,-1,12
 232 2272 232 2272 232 2400 c 0,13,14
 232 2624 232 2624 398 2728 c 128,-1,15
 564 2832 564 2832 784 2848 c 1,16,-1
 784 2928 l 2,17,18
 784 2992 784 2992 738 3056 c 128,-1,19
 692 3120 692 3120 600 3120 c 256,20,21
 508 3120 508 3120 462 3064 c 128,-1,22
 416 3008 416 3008 416 2928 c 1,23,-1
 269 2928 l 1,24,25
 269 3072 269 3072 342.5 3160 c 128,-1,26
 416 3248 416 3248 527 3248 c 2,27,-1
 656 3248 l 2,0,1
784 2704 m 1,28,29
 600 2688 600 2688 499 2624 c 128,-1,30
 398 2560 398 2560 398 2416 c 0,31,32
 398 2336 398 2336 435 2296 c 128,-1,33
 472 2256 472 2256 527 2256 c 0,34,35
 619 2256 619 2256 674 2288 c 128,-1,36
 729 2320 729 2320 784 2432 c 1,37,-1
 784 2704 l 1,28,29
EndSplineSet
EndChar

StartChar: guillemotleft
Encoding: 171 171 109
Width: 2909
GlyphClass: 2
Flags: W
LayerCount: 2
Back
Fore
SplineSet
2063 2656 m 1,0,-1
 518 1472 l 1,1,-1
 2063 288 l 1,2,-1
 1898 144 l 1,3,-1
 186 1472 l 1,4,-1
 1898 2784 l 1,5,-1
 2063 2656 l 1,0,-1
2818 2656 m 1,6,-1
 1272 1472 l 1,7,-1
 2818 288 l 1,8,-1
 2652 144 l 1,9,-1
 922 1472 l 1,10,-1
 2652 2784 l 1,11,-1
 2818 2656 l 1,6,-1
EndSplineSet
EndChar

StartChar: logicalnot
Encoding: 172 172 110
Width: 4637
GlyphClass: 2
Flags: W
LayerCount: 2
Back
Fore
SplineSet
263 2000 m 1,0,-1
 4238 2000 l 1,1,-1
 4238 784 l 1,2,-1
 3851 784 l 1,3,-1
 3851 1728 l 1,4,-1
 263 1728 l 1,5,-1
 263 2000 l 1,0,-1
EndSplineSet
EndChar

StartChar: uni00AD
Encoding: 173 173 111
Width: 2765
GlyphClass: 2
Flags: W
LayerCount: 2
Back
Fore
SplineSet
354 1616 m 1,0,-1
 2415 1616 l 1,1,-1
 2415 1344 l 1,2,-1
 354 1344 l 1,3,-1
 354 1616 l 1,0,-1
EndSplineSet
EndChar

StartChar: registered
Encoding: 174 174 112
Width: 3233
GlyphClass: 2
Flags: W
LayerCount: 2
Back
Fore
SplineSet
329 1472 m 0,0,1
 329 2048 329 2048 724.5 2392 c 128,-1,2
 1120 2736 1120 2736 1617 2736 c 0,3,4
 2187 2736 2187 2736 2546 2392 c 128,-1,5
 2905 2048 2905 2048 2905 1472 c 0,6,7
 2905 944 2905 944 2546 576 c 128,-1,8
 2187 208 2187 208 1617 208 c 0,9,10
 1046 208 1046 208 687.5 576 c 128,-1,11
 329 944 329 944 329 1472 c 0,0,1
531 1472 m 1,12,13
 550 992 550 992 853.5 696 c 128,-1,14
 1157 400 1157 400 1617 400 c 256,15,16
 2077 400 2077 400 2399 704 c 128,-1,17
 2721 1008 2721 1008 2721 1472 c 256,18,19
 2721 1936 2721 1936 2399 2240 c 128,-1,20
 2077 2544 2077 2544 1617 2544 c 256,21,22
 1157 2544 1157 2544 844 2232 c 128,-1,23
 531 1920 531 1920 531 1472 c 1,12,13
2261 752 m 1,24,-1
 2040 752 l 1,25,-1
 1617 1472 l 1,26,-1
 1322 1472 l 1,27,-1
 1322 752 l 1,28,-1
 1157 752 l 1,29,-1
 1157 2208 l 1,30,-1
 1727 2208 l 2,31,32
 1948 2208 1948 2208 2067.5 2096 c 128,-1,33
 2187 1984 2187 1984 2187 1840 c 256,34,35
 2187 1696 2187 1696 2104.5 1592 c 128,-1,36
 2022 1488 2022 1488 1801 1472 c 1,37,-1
 2261 752 l 1,24,-1
1322 1600 m 1,38,-1
 1727 1600 l 2,39,40
 1838 1600 1838 1600 1911.5 1656 c 128,-1,41
 1985 1712 1985 1712 1985 1840 c 0,42,43
 1985 1952 1985 1952 1911.5 2008 c 128,-1,44
 1838 2064 1838 2064 1727 2064 c 2,45,-1
 1322 2064 l 1,46,-1
 1322 1600 l 1,38,-1
EndSplineSet
EndChar

StartChar: macron
Encoding: 175 175 113
Width: 3780
GlyphClass: 2
Flags: W
LayerCount: 2
Back
Fore
SplineSet
322 3520 m 1,0,-1
 3468 3520 l 1,1,-1
 3468 3248 l 1,2,-1
 322 3248 l 1,3,-1
 322 3520 l 1,0,-1
EndSplineSet
EndChar

StartChar: degree
Encoding: 176 176 114
Width: 2007
GlyphClass: 2
Flags: W
LayerCount: 2
Back
Fore
SplineSet
1000 3312 m 0,0,1
 1313 3312 1313 3312 1552.5 3120 c 128,-1,2
 1792 2928 1792 2928 1792 2608 c 0,3,4
 1792 2272 1792 2272 1562 2088 c 128,-1,5
 1332 1904 1332 1904 1000 1904 c 0,6,7
 669 1904 669 1904 439 2088 c 128,-1,8
 209 2272 209 2272 209 2608 c 0,9,10
 209 2928 209 2928 420.5 3120 c 128,-1,11
 632 3312 632 3312 1000 3312 c 0,0,1
1000 3024 m 0,12,13
 780 3024 780 3024 660 2912 c 128,-1,14
 540 2800 540 2800 540 2608 c 256,15,16
 540 2416 540 2416 669 2312 c 128,-1,17
 798 2208 798 2208 1000 2208 c 0,18,19
 1184 2208 1184 2208 1313 2312 c 128,-1,20
 1442 2416 1442 2416 1442 2608 c 0,21,22
 1442 2768 1442 2768 1322.5 2896 c 128,-1,23
 1203 3024 1203 3024 1000 3024 c 0,12,13
EndSplineSet
Substitution2: "'vert' Vertical Alternates (obs) in Hiragana & Katakana lookup 0 subtable" degree.vert
EndChar

StartChar: plusminus
Encoding: 177 177 115
Width: 3701
GlyphClass: 2
Flags: W
LayerCount: 2
Back
Fore
SplineSet
1678 3248 m 1,0,-1
 2009 3248 l 1,1,-1
 2009 2048 l 1,2,-1
 3463 2048 l 1,3,-1
 3463 1728 l 1,4,-1
 2009 1728 l 1,5,-1
 2009 512 l 1,6,-1
 1678 512 l 1,7,-1
 1678 1728 l 1,8,-1
 224 1728 l 1,9,-1
 224 2048 l 1,10,-1
 1678 2048 l 1,11,-1
 1678 3248 l 1,0,-1
224 -16 m 1,12,-1
 3463 -16 l 1,13,-1
 3463 -304 l 1,14,-1
 224 -304 l 1,15,-1
 224 -16 l 1,12,-1
EndSplineSet
Substitution2: "'vert' Vertical Alternates (obs) in Hiragana & Katakana lookup 0 subtable" plusminus.vert
EndChar

StartChar: uni00B2
Encoding: 178 178 116
Width: 1028
GlyphClass: 2
Flags: W
LayerCount: 2
Back
Fore
SplineSet
497 3424 m 0,0,1
 607 3424 607 3424 680.5 3328 c 128,-1,2
 754 3232 754 3232 754 3056 c 0,3,4
 754 2848 754 2848 644 2640 c 1,5,-1
 386 2224 l 1,6,-1
 754 2224 l 1,7,-1
 754 2064 l 1,8,-1
 258 2064 l 1,9,-1
 258 2240 l 1,10,-1
 534 2688 l 1,11,12
 662 2880 662 2880 662 3056 c 0,13,14
 662 3184 662 3184 616 3224 c 128,-1,15
 570 3264 570 3264 497 3264 c 0,16,17
 442 3264 442 3264 396 3224 c 128,-1,18
 350 3184 350 3184 350 3040 c 1,19,-1
 258 3040 l 1,20,21
 258 3216 258 3216 331.5 3320 c 128,-1,22
 405 3424 405 3424 497 3424 c 0,0,1
EndSplineSet
EndChar

StartChar: uni00B3
Encoding: 179 179 117
Width: 984
GlyphClass: 2
Flags: W
LayerCount: 2
Back
Fore
SplineSet
493 2912 m 1,0,1
 733 2912 733 2912 733 2480 c 0,2,3
 733 2064 733 2064 438 2064 c 2,4,-1
 236 2064 l 1,5,-1
 236 2208 l 1,6,-1
 438 2208 l 2,7,8
 604 2208 604 2208 604 2480 c 0,9,10
 604 2784 604 2784 438 2784 c 2,11,-1
 309 2784 l 1,12,-1
 309 2896 l 1,13,-1
 567 3280 l 1,14,-1
 236 3280 l 1,15,-1
 236 3424 l 1,16,-1
 733 3424 l 1,17,-1
 733 3280 l 1,18,-1
 493 2912 l 1,0,1
EndSplineSet
EndChar

StartChar: acute
Encoding: 180 180 118
Width: 1296
GlyphClass: 2
Flags: W
LayerCount: 2
Back
Fore
SplineSet
551 3104 m 1,0,-1
 1121 3104 l 1,1,-1
 569 2608 l 1,2,-1
 201 2608 l 1,3,-1
 551 3104 l 1,0,-1
EndSplineSet
Substitution2: "'vert' Vertical Alternates (obs) in Hiragana & Katakana lookup 0 subtable" acute.vert
EndChar

StartChar: uni00B5
Encoding: 181 181 119
Width: 2521
GlyphClass: 2
Flags: W
LayerCount: 2
Back
Fore
SplineSet
2094 0 m 1,0,-1
 1671 0 l 1,1,-1
 1671 208 l 1,2,3
 1450 0 1450 0 1211 0 c 0,4,5
 990 0 990 0 880 176 c 1,6,-1
 880 -576 l 1,7,-1
 438 -576 l 1,8,-1
 438 1920 l 1,9,-1
 880 1920 l 1,10,-1
 880 544 l 1,11,12
 1027 288 1027 288 1211 288 c 0,13,14
 1450 288 1450 288 1671 576 c 1,15,-1
 1671 1920 l 1,16,-1
 2094 1920 l 1,17,-1
 2094 0 l 1,0,-1
EndSplineSet
EndChar

StartChar: paragraph
Encoding: 182 182 120
Width: 1580
GlyphClass: 2
Flags: W
LayerCount: 2
Back
Fore
SplineSet
550 -304 m 1,0,-1
 550 1920 l 1,1,2
 384 1904 384 1904 273.5 2096 c 128,-1,3
 163 2288 163 2288 163 2592 c 0,4,5
 163 2880 163 2880 273.5 3064 c 128,-1,6
 384 3248 384 3248 568 3248 c 2,7,-1
 1194 3248 l 1,8,-1
 1194 2992 l 1,9,-1
 1138 2992 l 1,10,-1
 1138 -304 l 1,11,-1
 954 -304 l 1,12,-1
 954 2992 l 1,13,-1
 734 2992 l 1,14,-1
 734 -304 l 1,15,-1
 550 -304 l 1,0,-1
EndSplineSet
Substitution2: "'vert' Vertical Alternates (obs) in Hiragana & Katakana lookup 0 subtable" paragraph.vert
EndChar

StartChar: periodcentered
Encoding: 183 183 121
Width: 949
GlyphClass: 2
Flags: W
LayerCount: 2
Back
Fore
SplineSet
367 1280 m 1,0,-1
 367 1776 l 1,1,-1
 588 1776 l 1,2,-1
 588 1280 l 1,3,-1
 367 1280 l 1,0,-1
EndSplineSet
EndChar

StartChar: cedilla
Encoding: 184 184 122
Width: 815
GlyphClass: 2
Flags: W
LayerCount: 2
Back
Fore
SplineSet
237 288 m 0,0,1
 237 416 237 416 283 528 c 128,-1,2
 329 640 329 640 402 640 c 0,3,4
 476 640 476 640 522 536 c 128,-1,5
 568 432 568 432 568 288 c 1,6,7
 586 -96 586 -96 503.5 -312 c 128,-1,8
 421 -528 421 -528 255 -576 c 1,9,-1
 237 -400 l 1,10,11
 329 -384 329 -384 365.5 -320 c 128,-1,12
 402 -256 402 -256 420.5 -160 c 128,-1,13
 439 -64 439 -64 402 -64 c 0,14,15
 329 -64 329 -64 283 32 c 128,-1,16
 237 128 237 128 237 288 c 0,0,1
EndSplineSet
EndChar

StartChar: uni00B9
Encoding: 185 185 123
Width: 787
GlyphClass: 2
Flags: W
LayerCount: 2
Back
Fore
SplineSet
489 2064 m 1,0,-1
 323 2064 l 1,1,-1
 323 3040 l 1,2,-1
 194 3040 l 1,3,-1
 194 3232 l 1,4,5
 342 3232 342 3232 378 3424 c 1,6,-1
 489 3424 l 1,7,-1
 489 2064 l 1,0,-1
EndSplineSet
EndChar

StartChar: ordmasculine
Encoding: 186 186 124
Width: 1030
GlyphClass: 2
Flags: W
LayerCount: 2
Back
Fore
SplineSet
235 2752 m 0,0,1
 235 3008 235 3008 308.5 3216 c 128,-1,2
 382 3424 382 3424 511 3424 c 0,3,4
 639 3424 639 3424 713 3232 c 128,-1,5
 787 3040 787 3040 787 2752 c 0,6,7
 787 2448 787 2448 713 2256 c 128,-1,8
 639 2064 639 2064 511 2064 c 0,9,10
 382 2064 382 2064 308.5 2264 c 128,-1,11
 235 2464 235 2464 235 2752 c 0,0,1
345 2752 m 256,12,13
 345 2512 345 2512 391 2392 c 128,-1,14
 437 2272 437 2272 511 2272 c 0,15,16
 584 2272 584 2272 630 2392 c 128,-1,17
 676 2512 676 2512 676 2752 c 256,18,19
 676 2992 676 2992 630 3104 c 128,-1,20
 584 3216 584 3216 511 3216 c 0,21,22
 437 3216 437 3216 391 3104 c 128,-1,23
 345 2992 345 2992 345 2752 c 256,12,13
EndSplineSet
EndChar

StartChar: guillemotright
Encoding: 187 187 125
Width: 2891
GlyphClass: 2
Flags: W
LayerCount: 2
Back
Fore
SplineSet
830 288 m 1,0,-1
 2376 1472 l 1,1,-1
 830 2656 l 1,2,-1
 1014 2800 l 1,3,-1
 2707 1472 l 1,4,-1
 1014 160 l 1,5,-1
 830 288 l 1,0,-1
94 288 m 1,6,-1
 1622 1472 l 1,7,-1
 94 2656 l 1,8,-1
 260 2800 l 1,9,-1
 1971 1472 l 1,10,-1
 260 160 l 1,11,-1
 94 288 l 1,6,-1
EndSplineSet
EndChar

StartChar: onequarter
Encoding: 188 188 126
Width: 2283
GlyphClass: 2
Flags: W
LayerCount: 2
Back
Fore
SplineSet
1932 0 m 1,0,-1
 1693 0 l 1,1,-1
 1693 336 l 1,2,-1
 1012 336 l 1,3,-1
 1012 416 l 1,4,-1
 1730 1472 l 1,5,-1
 1932 1472 l 1,6,-1
 1932 512 l 1,7,-1
 2208 512 l 1,8,-1
 2208 336 l 1,9,-1
 1932 336 l 1,10,-1
 1932 0 l 1,0,-1
1693 1120 m 1,11,-1
 1270 512 l 1,12,-1
 1693 512 l 1,13,-1
 1693 1120 l 1,11,-1
1785 3104 m 1,14,-1
 1932 3072 l 1,15,-1
 460 16 l 1,16,-1
 313 64 l 1,17,-1
 1785 3104 l 1,14,-1
552 1632 m 1,18,-1
 331 1632 l 1,19,-1
 331 2816 l 1,20,-1
 92 2816 l 1,21,-1
 92 2960 l 1,22,23
 350 2960 350 2960 386 3104 c 1,24,-1
 552 3104 l 1,25,-1
 552 1632 l 1,18,-1
EndSplineSet
EndChar

StartChar: onehalf
Encoding: 189 189 127
Width: 2433
GlyphClass: 2
Flags: W
LayerCount: 2
Back
Fore
SplineSet
1651 1472 m 0,0,1
 1872 1472 1872 1472 2019.5 1360 c 128,-1,2
 2167 1248 2167 1248 2167 1056 c 0,3,4
 2167 848 2167 848 1927 624 c 1,5,-1
 1412 176 l 1,6,-1
 2167 176 l 1,7,-1
 2167 0 l 1,8,-1
 1173 0 l 1,9,-1
 1173 192 l 1,10,-1
 1725 672 l 1,11,12
 1946 880 1946 880 1946 1056 c 0,13,14
 1946 1200 1946 1200 1863 1248 c 128,-1,15
 1780 1296 1780 1296 1651 1296 c 0,16,17
 1541 1296 1541 1296 1458 1248 c 128,-1,18
 1375 1200 1375 1200 1375 1040 c 1,19,-1
 1155 1040 l 1,20,21
 1155 1232 1155 1232 1302 1352 c 128,-1,22
 1449 1472 1449 1472 1651 1472 c 0,0,1
547 1632 m 1,23,-1
 327 1632 l 1,24,-1
 327 2832 l 1,25,-1
 87 2832 l 1,26,-1
 87 2960 l 1,27,28
 345 2976 345 2976 382 3104 c 1,29,-1
 547 3104 l 1,30,-1
 547 1632 l 1,23,-1
1780 3104 m 1,31,-1
 1927 3072 l 1,32,-1
 455 16 l 1,33,-1
 308 64 l 1,34,-1
 1780 3104 l 1,31,-1
EndSplineSet
EndChar

StartChar: threequarters
Encoding: 190 190 128
Width: 2520
GlyphClass: 2
Flags: W
LayerCount: 2
Back
Fore
SplineSet
2167 0 m 1,0,-1
 1946 0 l 1,1,-1
 1946 336 l 1,2,-1
 1247 336 l 1,3,-1
 1247 544 l 1,4,-1
 1927 1472 l 1,5,-1
 2167 1472 l 1,6,-1
 2167 512 l 1,7,-1
 2461 512 l 1,8,-1
 2461 336 l 1,9,-1
 2167 336 l 1,10,-1
 2167 0 l 1,0,-1
1946 1136 m 1,11,-1
 1486 512 l 1,12,-1
 1946 512 l 1,13,-1
 1946 1136 l 1,11,-1
1946 3104 m 1,14,-1
 2093 3072 l 1,15,-1
 621 16 l 1,16,-1
 474 64 l 1,17,-1
 1946 3104 l 1,14,-1
731 2544 m 1,18,19
 1210 2544 1210 2544 1210 2096 c 0,20,21
 1210 1632 1210 1632 621 1632 c 2,22,-1
 253 1632 l 1,23,-1
 253 1792 l 1,24,-1
 621 1792 l 2,25,26
 934 1792 934 1792 934 2096 c 0,27,28
 934 2416 934 2416 621 2416 c 2,29,-1
 382 2416 l 1,30,-1
 382 2544 l 1,31,-1
 860 2944 l 1,32,-1
 253 2944 l 1,33,-1
 253 3104 l 1,34,-1
 1210 3104 l 1,35,-1
 1210 2944 l 1,36,-1
 731 2544 l 1,18,19
EndSplineSet
EndChar

StartChar: questiondown
Encoding: 191 191 129
Width: 2148
GlyphClass: 2
Flags: W
LayerCount: 2
Back
Fore
SplineSet
1359 3168 m 1,0,-1
 1359 2720 l 1,1,-1
 918 2720 l 1,2,-1
 918 3168 l 1,3,-1
 1359 3168 l 1,0,-1
1083 -160 m 1,4,5
 678 -176 678 -176 430 40 c 128,-1,6
 182 256 182 256 182 560 c 0,7,8
 182 896 182 896 347.5 1072 c 128,-1,9
 513 1248 513 1248 715 1376 c 1,10,11
 918 1520 918 1520 945.5 1680 c 128,-1,12
 973 1840 973 1840 973 1984 c 2,13,-1
 973 2224 l 1,14,-1
 1322 2224 l 1,15,-1
 1322 1984 l 2,16,17
 1322 1824 1322 1824 1285.5 1640 c 128,-1,18
 1249 1456 1249 1456 1010 1248 c 1,19,20
 770 1088 770 1088 641.5 952 c 128,-1,21
 513 816 513 816 513 576 c 0,22,23
 513 384 513 384 651 248 c 128,-1,24
 789 112 789 112 1083 112 c 0,25,26
 1396 112 1396 112 1543 272 c 128,-1,27
 1690 432 1690 432 1690 672 c 2,28,-1
 1690 848 l 1,29,-1
 2003 848 l 1,30,-1
 2003 672 l 2,31,32
 2003 304 2003 304 1745.5 72 c 128,-1,33
 1488 -160 1488 -160 1083 -160 c 1,4,5
EndSplineSet
EndChar

StartChar: Agrave
Encoding: 192 192 130
Width: 2116
GlyphClass: 2
Flags: W
LayerCount: 2
Back
Fore
SplineSet
585 3520 m 1,0,-1
 1082 3520 l 1,1,-1
 1505 2720 l 1,2,-1
 1229 2720 l 1,3,-1
 585 3520 l 1,0,-1
1947 0 m 1,4,-1
 1634 0 l 1,5,-1
 1413 672 l 1,6,-1
 677 672 l 1,7,-1
 475 0 l 1,8,-1
 162 0 l 1,9,-1
 880 2352 l 1,10,-1
 1229 2352 l 1,11,-1
 1947 0 l 1,4,-1
769 960 m 1,12,-1
 1340 960 l 1,13,-1
 1045 1904 l 1,14,-1
 769 960 l 1,12,-1
EndSplineSet
EndChar

StartChar: Aacute
Encoding: 193 193 131
Width: 2116
GlyphClass: 2
Flags: W
LayerCount: 2
Back
Fore
SplineSet
1524 3520 m 1,0,-1
 898 2720 l 1,1,-1
 604 2720 l 1,2,-1
 1027 3520 l 1,3,-1
 1524 3520 l 1,0,-1
1947 0 m 1,4,-1
 1634 0 l 1,5,-1
 1413 672 l 1,6,-1
 677 672 l 1,7,-1
 475 0 l 1,8,-1
 162 0 l 1,9,-1
 880 2352 l 1,10,-1
 1229 2352 l 1,11,-1
 1947 0 l 1,4,-1
769 960 m 1,12,-1
 1340 960 l 1,13,-1
 1045 1904 l 1,14,-1
 769 960 l 1,12,-1
EndSplineSet
EndChar

StartChar: Acircumflex
Encoding: 194 194 132
Width: 2118
GlyphClass: 2
Flags: W
LayerCount: 2
Back
Fore
SplineSet
973 3520 m 1,0,-1
 1120 3520 l 1,1,-1
 1617 2832 l 1,2,-1
 1433 2672 l 1,3,-1
 1046 3216 l 1,4,-1
 660 2672 l 1,5,-1
 476 2832 l 1,6,-1
 973 3520 l 1,0,-1
1948 0 m 1,7,-1
 1635 0 l 1,8,-1
 1414 672 l 1,9,-1
 678 672 l 1,10,-1
 476 0 l 1,11,-1
 163 0 l 1,12,-1
 881 2352 l 1,13,-1
 1230 2352 l 1,14,-1
 1948 0 l 1,7,-1
770 960 m 1,15,-1
 1341 960 l 1,16,-1
 1065 1904 l 1,17,-1
 770 960 l 1,15,-1
EndSplineSet
EndChar

StartChar: Atilde
Encoding: 195 195 133
Width: 2217
GlyphClass: 2
Flags: W
LayerCount: 2
Back
Fore
SplineSet
1910 2960 m 1,0,1
 1653 2656 1653 2656 1487 2656 c 256,2,3
 1321 2656 1321 2656 1193 2800 c 2,4,-1
 972 3040 l 1,5,6
 880 3152 880 3152 751 3152 c 0,7,8
 604 3152 604 3152 309 2800 c 1,9,-1
 309 3200 l 1,10,11
 585 3520 585 3520 751 3520 c 256,12,13
 917 3520 917 3520 1027 3360 c 1,14,-1
 1248 3120 l 1,15,16
 1358 3008 1358 3008 1487 3008 c 256,17,18
 1616 3008 1616 3008 1910 3360 c 1,19,-1
 1910 2960 l 1,0,1
2002 0 m 1,20,-1
 1689 0 l 1,21,-1
 1469 672 l 1,22,-1
 733 672 l 1,23,-1
 530 0 l 1,24,-1
 217 0 l 1,25,-1
 935 2352 l 1,26,-1
 1285 2352 l 1,27,-1
 2002 0 l 1,20,-1
825 960 m 1,28,-1
 1395 960 l 1,29,-1
 1101 1904 l 1,30,-1
 825 960 l 1,28,-1
EndSplineSet
EndChar

StartChar: Adieresis
Encoding: 196 196 134
Width: 2204
GlyphClass: 2
Flags: W
LayerCount: 2
Back
Fore
SplineSet
369 2720 m 1,0,-1
 369 3520 l 1,1,-1
 829 3520 l 1,2,-1
 829 2720 l 1,3,-1
 369 2720 l 1,0,-1
1326 2720 m 1,4,-1
 1326 3520 l 1,5,-1
 1804 3520 l 1,6,-1
 1804 2720 l 1,7,-1
 1326 2720 l 1,4,-1
2007 0 m 1,8,-1
 1676 0 l 1,9,-1
 1473 672 l 1,10,-1
 737 672 l 1,11,-1
 535 0 l 1,12,-1
 204 0 l 1,13,-1
 921 2352 l 1,14,-1
 1289 2352 l 1,15,-1
 2007 0 l 1,8,-1
811 960 m 1,16,-1
 1400 960 l 1,17,-1
 1105 1904 l 1,18,-1
 811 960 l 1,16,-1
EndSplineSet
EndChar

StartChar: Aring
Encoding: 197 197 135
Width: 2117
GlyphClass: 2
Flags: W
LayerCount: 2
Back
Fore
SplineSet
585 3104 m 0,0,1
 585 3264 585 3264 733 3392 c 1,2,3
 861 3520 861 3520 1064 3520 c 0,4,5
 1248 3520 1248 3520 1395 3392 c 256,6,7
 1542 3264 1542 3264 1542 3104 c 0,8,9
 1542 2928 1542 2928 1395 2816 c 1,10,11
 1248 2688 1248 2688 1064 2688 c 0,12,13
 861 2688 861 2688 733 2816 c 1,14,15
 585 2928 585 2928 585 3104 c 0,0,1
751 3104 m 0,16,17
 751 2976 751 2976 834 2896 c 128,-1,18
 917 2816 917 2816 1064 2816 c 0,19,20
 1193 2816 1193 2816 1285 2912 c 1,21,22
 1377 2976 1377 2976 1377 3104 c 0,23,24
 1377 3216 1377 3216 1285 3296 c 128,-1,25
 1193 3376 1193 3376 1064 3376 c 0,26,27
 917 3376 917 3376 843 3296 c 1,28,29
 751 3216 751 3216 751 3104 c 0,16,17
1947 0 m 1,30,-1
 1634 0 l 1,31,-1
 1413 672 l 1,32,-1
 677 672 l 1,33,-1
 475 0 l 1,34,-1
 162 0 l 1,35,-1
 880 2352 l 1,36,-1
 1229 2352 l 1,37,-1
 1947 0 l 1,30,-1
769 960 m 1,38,-1
 1340 960 l 1,39,-1
 1045 1904 l 1,40,-1
 769 960 l 1,38,-1
EndSplineSet
EndChar

StartChar: AE
Encoding: 198 198 136
Width: 2991
GlyphClass: 2
Flags: W
LayerCount: 2
Back
Fore
SplineSet
1401 1840 m 1,0,-1
 941 960 l 1,1,-1
 1401 960 l 1,2,-1
 1401 1840 l 1,0,-1
1401 688 m 1,3,-1
 794 688 l 1,4,-1
 444 0 l 1,5,-1
 131 0 l 1,6,-1
 1382 2352 l 1,7,-1
 2707 2352 l 1,8,-1
 2707 2080 l 1,9,-1
 1640 2080 l 1,10,-1
 1640 1376 l 1,11,-1
 2505 1376 l 1,12,-1
 2505 1088 l 1,13,-1
 1640 1088 l 1,14,-1
 1640 272 l 1,15,-1
 2707 272 l 1,16,-1
 2707 0 l 1,17,-1
 1401 0 l 1,18,-1
 1401 688 l 1,3,-1
EndSplineSet
EndChar

StartChar: Ccedilla
Encoding: 199 199 137
Width: 3478
GlyphClass: 2
Flags: W
LayerCount: 2
Back
Fore
SplineSet
1534 0 m 1,0,1
 1000 48 1000 48 614 392 c 128,-1,2
 228 736 228 736 228 1184 c 0,3,4
 228 1648 228 1648 642 2000 c 128,-1,5
 1056 2352 1056 2352 1773 2368 c 1,6,7
 2509 2352 2509 2352 2812.5 2144 c 128,-1,8
 3116 1936 3116 1936 3172 1552 c 1,9,-1
 2638 1552 l 1,10,11
 2546 1824 2546 1824 2353 1952 c 128,-1,12
 2160 2080 2160 2080 1773 2080 c 0,13,14
 1350 2080 1350 2080 1065 1856 c 128,-1,15
 780 1632 780 1632 780 1184 c 0,16,17
 780 768 780 768 1065 512 c 128,-1,18
 1350 256 1350 256 1718 256 c 256,19,20
 2086 256 2086 256 2334.5 384 c 128,-1,21
 2583 512 2583 512 2638 832 c 1,22,-1
 3172 832 l 1,23,24
 3153 432 3153 432 2794.5 232 c 128,-1,25
 2436 32 2436 32 1920 0 c 1,26,27
 2012 -32 2012 -32 2086 -32 c 1,28,29
 2344 -64 2344 -64 2399 -136 c 128,-1,30
 2454 -208 2454 -208 2454 -288 c 0,31,32
 2454 -448 2454 -448 2242.5 -512 c 128,-1,33
 2031 -576 2031 -576 1792 -576 c 1,34,35
 1571 -592 1571 -592 1377.5 -528 c 128,-1,36
 1184 -464 1184 -464 1111 -400 c 1,37,-1
 1442 -288 l 1,38,39
 1442 -288 1442 -288 1571 -344 c 128,-1,40
 1700 -400 1700 -400 1792 -400 c 0,41,42
 1920 -400 1920 -400 1975.5 -392 c 128,-1,43
 2031 -384 2031 -384 2049 -288 c 0,44,45
 2068 -192 2068 -192 1920 -160 c 1,46,47
 1626 -112 1626 -112 1534 0 c 1,0,1
EndSplineSet
EndChar

StartChar: Egrave
Encoding: 200 200 138
Width: 2857
GlyphClass: 2
Flags: W
LayerCount: 2
Back
Fore
SplineSet
818 3536 m 1,0,-1
 1535 3536 l 1,1,-1
 2142 2720 l 1,2,-1
 1738 2720 l 1,3,-1
 818 3536 l 1,0,-1
2602 2352 m 1,4,-1
 2602 2080 l 1,5,-1
 836 2080 l 1,6,-1
 836 1376 l 1,7,-1
 2308 1376 l 1,8,-1
 2308 1088 l 1,9,-1
 836 1088 l 1,10,-1
 836 272 l 1,11,-1
 2602 272 l 1,12,-1
 2602 0 l 1,13,-1
 394 0 l 1,14,-1
 394 2352 l 1,15,-1
 2602 2352 l 1,4,-1
EndSplineSet
EndChar

StartChar: Eacute
Encoding: 201 201 139
Width: 2857
GlyphClass: 2
Flags: W
LayerCount: 2
Back
Fore
SplineSet
2160 3536 m 1,0,-1
 1258 2720 l 1,1,-1
 835 2720 l 1,2,-1
 1460 3536 l 1,3,-1
 2160 3536 l 1,0,-1
2601 2352 m 1,4,-1
 2601 2064 l 1,5,-1
 835 2064 l 1,6,-1
 835 1360 l 1,7,-1
 2307 1360 l 1,8,-1
 2307 1088 l 1,9,-1
 835 1088 l 1,10,-1
 835 272 l 1,11,-1
 2601 272 l 1,12,-1
 2601 0 l 1,13,-1
 393 0 l 1,14,-1
 393 2352 l 1,15,-1
 2601 2352 l 1,4,-1
EndSplineSet
EndChar

StartChar: Ecircumflex
Encoding: 202 202 140
Width: 2856
GlyphClass: 2
Flags: W
LayerCount: 2
Back
Fore
SplineSet
1388 3536 m 1,0,-1
 1590 3536 l 1,1,-1
 2308 2768 l 1,2,-1
 2050 2576 l 1,3,-1
 1498 3184 l 1,4,-1
 928 2576 l 1,5,-1
 652 2768 l 1,6,-1
 1388 3536 l 1,0,-1
2602 2352 m 1,7,-1
 2602 2080 l 1,8,-1
 836 2080 l 1,9,-1
 836 1376 l 1,10,-1
 2308 1376 l 1,11,-1
 2308 1088 l 1,12,-1
 836 1088 l 1,13,-1
 836 272 l 1,14,-1
 2602 272 l 1,15,-1
 2602 0 l 1,16,-1
 394 0 l 1,17,-1
 394 2352 l 1,18,-1
 2602 2352 l 1,7,-1
EndSplineSet
EndChar

StartChar: Edieresis
Encoding: 203 203 141
Width: 2899
GlyphClass: 2
Flags: W
LayerCount: 2
Back
Fore
SplineSet
614 2720 m 1,0,-1
 614 3520 l 1,1,-1
 1240 3520 l 1,2,-1
 1240 2720 l 1,3,-1
 614 2720 l 1,0,-1
1773 2720 m 1,4,-1
 1773 3520 l 1,5,-1
 2399 3520 l 1,6,-1
 2399 2720 l 1,7,-1
 1773 2720 l 1,4,-1
2620 2352 m 1,8,-1
 2620 2080 l 1,9,-1
 853 2080 l 1,10,-1
 853 1376 l 1,11,-1
 2325 1376 l 1,12,-1
 2325 1088 l 1,13,-1
 853 1088 l 1,14,-1
 853 272 l 1,15,-1
 2620 272 l 1,16,-1
 2620 0 l 1,17,-1
 412 0 l 1,18,-1
 412 2352 l 1,19,-1
 2620 2352 l 1,8,-1
EndSplineSet
EndChar

StartChar: Igrave
Encoding: 204 204 142
Width: 1083
GlyphClass: 2
Flags: W
LayerCount: 2
Back
Fore
SplineSet
110 3536 m 1,0,-1
 534 3536 l 1,1,-1
 883 2720 l 1,2,-1
 644 2720 l 1,3,-1
 110 3536 l 1,0,-1
644 0 m 1,4,-1
 368 0 l 1,5,-1
 368 2352 l 1,6,-1
 644 2352 l 1,7,-1
 644 0 l 1,4,-1
EndSplineSet
EndChar

StartChar: Iacute
Encoding: 205 205 143
Width: 1048
GlyphClass: 2
Flags: W
LayerCount: 2
Back
Fore
SplineSet
858 3536 m 1,0,-1
 398 2832 l 1,1,-1
 196 2832 l 1,2,-1
 508 3536 l 1,3,-1
 858 3536 l 1,0,-1
656 0 m 1,4,-1
 416 0 l 1,5,-1
 416 2352 l 1,6,-1
 656 2352 l 1,7,-1
 656 0 l 1,4,-1
EndSplineSet
EndChar

StartChar: Icircumflex
Encoding: 206 206 144
Width: 1375
GlyphClass: 2
Flags: W
LayerCount: 2
Back
Fore
SplineSet
601 3520 m 1,0,-1
 767 3520 l 1,1,-1
 1319 2960 l 1,2,-1
 1117 2816 l 1,3,-1
 693 3264 l 1,4,-1
 252 2816 l 1,5,-1
 49 2960 l 1,6,-1
 601 3520 l 1,0,-1
859 0 m 1,7,-1
 528 0 l 1,8,-1
 528 2352 l 1,9,-1
 859 2352 l 1,10,-1
 859 0 l 1,7,-1
EndSplineSet
EndChar

StartChar: Idieresis
Encoding: 207 207 145
Width: 1317
GlyphClass: 2
Flags: W
LayerCount: 2
Back
Fore
SplineSet
74 3056 m 1,0,-1
 74 3536 l 1,1,-1
 442 3536 l 1,2,-1
 442 3056 l 1,3,-1
 74 3056 l 1,0,-1
846 3056 m 1,4,-1
 846 3536 l 1,5,-1
 1214 3536 l 1,6,-1
 1214 3056 l 1,7,-1
 846 3056 l 1,4,-1
828 0 m 1,8,-1
 552 0 l 1,9,-1
 552 2352 l 1,10,-1
 828 2352 l 1,11,-1
 828 0 l 1,8,-1
EndSplineSet
EndChar

StartChar: Eth
Encoding: 208 208 146
Width: 2745
GlyphClass: 2
Flags: W
LayerCount: 2
Back
Fore
SplineSet
887 1472 m 1,0,-1
 887 304 l 1,1,-1
 1255 304 l 2,2,3
 1715 304 1715 304 1899 648 c 128,-1,4
 2083 992 2083 992 2083 1544 c 128,-1,5
 2083 2096 2083 2096 1899 2464 c 128,-1,6
 1715 2832 1715 2832 1255 2832 c 2,7,-1
 887 2832 l 1,8,-1
 887 1744 l 1,9,-1
 1420 1744 l 1,10,-1
 1420 1472 l 1,11,-1
 887 1472 l 1,0,-1
611 1472 m 1,12,-1
 151 1472 l 1,13,-1
 151 1744 l 1,14,-1
 611 1744 l 1,15,-1
 611 3104 l 1,16,-1
 1255 3104 l 2,17,18
 1899 3104 1899 3104 2156.5 2680 c 128,-1,19
 2414 2256 2414 2256 2414 1552 c 128,-1,20
 2414 848 2414 848 2156.5 424 c 128,-1,21
 1899 0 1899 0 1255 0 c 2,22,-1
 611 0 l 1,23,-1
 611 1472 l 1,12,-1
EndSplineSet
EndChar

StartChar: Ntilde
Encoding: 209 209 147
Width: 3389
GlyphClass: 2
Flags: W
LayerCount: 2
Back
Fore
SplineSet
2897 3104 m 1,0,1
 2492 2864 2492 2864 2234 2864 c 0,2,3
 1995 2864 1995 2864 1811 2976 c 1,4,-1
 1480 3168 l 1,5,6
 1333 3248 1333 3248 1130 3248 c 0,7,8
 928 3248 928 3248 468 2976 c 1,9,-1
 468 3280 l 1,10,11
 873 3520 873 3520 1130 3520 c 0,12,13
 1388 3520 1388 3520 1554 3408 c 1,14,-1
 1885 3216 l 1,15,16
 2032 3136 2032 3136 2234 3136 c 0,17,18
 2455 3136 2455 3136 2897 3408 c 1,19,-1
 2897 3104 l 1,0,1
946 0 m 1,20,-1
 431 0 l 1,21,-1
 431 2352 l 1,22,-1
 1094 2352 l 1,23,-1
 2437 576 l 1,24,-1
 2437 2352 l 1,25,-1
 2952 2352 l 1,26,-1
 2952 0 l 1,27,-1
 2308 0 l 1,28,-1
 946 1824 l 1,29,-1
 946 0 l 1,20,-1
EndSplineSet
EndChar

StartChar: Ograve
Encoding: 210 210 148
Width: 2947
GlyphClass: 2
Flags: W
LayerCount: 2
Back
Fore
SplineSet
784 3520 m 1,0,-1
 1465 3520 l 1,1,-1
 2054 2864 l 1,2,-1
 1649 2864 l 1,3,-1
 784 3520 l 1,0,-1
232 1168 m 0,4,5
 232 1632 232 1632 526.5 1992 c 128,-1,6
 821 2352 821 2352 1300 2352 c 2,7,-1
 1576 2352 l 2,8,9
 2036 2352 2036 2352 2348.5 1992 c 128,-1,10
 2661 1632 2661 1632 2661 1168 c 0,11,12
 2661 672 2661 672 2320.5 328 c 128,-1,13
 1980 -16 1980 -16 1437.5 -16 c 128,-1,14
 895 -16 895 -16 563.5 328 c 128,-1,15
 232 672 232 672 232 1168 c 0,4,5
619 1168 m 0,16,17
 619 704 619 704 876.5 480 c 128,-1,18
 1134 256 1134 256 1437.5 256 c 128,-1,19
 1741 256 1741 256 2008 480 c 128,-1,20
 2275 704 2275 704 2275 1168 c 0,21,22
 2275 1616 2275 1616 2017.5 1856 c 128,-1,23
 1760 2096 1760 2096 1502 2096 c 2,24,-1
 1373 2096 l 2,25,26
 1134 2096 1134 2096 876.5 1840 c 128,-1,27
 619 1584 619 1584 619 1168 c 0,16,17
EndSplineSet
EndChar

StartChar: Oacute
Encoding: 211 211 149
Width: 2944
GlyphClass: 2
Flags: W
LayerCount: 2
Back
Fore
SplineSet
2016 3520 m 1,0,-1
 1298 2816 l 1,1,-1
 967 2816 l 1,2,-1
 1446 3520 l 1,3,-1
 2016 3520 l 1,0,-1
231 1168 m 0,4,5
 231 1632 231 1632 525.5 1992 c 128,-1,6
 820 2352 820 2352 1298 2352 c 2,7,-1
 1574 2352 l 2,8,9
 2034 2352 2034 2352 2347 1992 c 128,-1,10
 2660 1632 2660 1632 2660 1168 c 0,11,12
 2660 672 2660 672 2319.5 328 c 128,-1,13
 1979 -16 1979 -16 1436.5 -16 c 128,-1,14
 894 -16 894 -16 562.5 328 c 128,-1,15
 231 672 231 672 231 1168 c 0,4,5
618 1168 m 0,16,17
 618 704 618 704 875.5 480 c 128,-1,18
 1133 256 1133 256 1436.5 256 c 128,-1,19
 1740 256 1740 256 2007 480 c 128,-1,20
 2274 704 2274 704 2274 1168 c 0,21,22
 2274 1616 2274 1616 2016 1856 c 128,-1,23
 1758 2096 1758 2096 1501 2096 c 2,24,-1
 1372 2096 l 2,25,26
 1133 2096 1133 2096 875.5 1840 c 128,-1,27
 618 1584 618 1584 618 1168 c 0,16,17
EndSplineSet
EndChar

StartChar: Ocircumflex
Encoding: 212 212 150
Width: 2944
GlyphClass: 2
Flags: W
LayerCount: 2
Back
Fore
SplineSet
1354 3520 m 1,0,-1
 1519 3520 l 1,1,-1
 2090 2960 l 1,2,-1
 1887 2816 l 1,3,-1
 1446 3280 l 1,4,-1
 1004 2816 l 1,5,-1
 783 2960 l 1,6,-1
 1354 3520 l 1,0,-1
231 1168 m 0,7,8
 231 1632 231 1632 525.5 1992 c 128,-1,9
 820 2352 820 2352 1298 2352 c 2,10,-1
 1574 2352 l 2,11,12
 2034 2352 2034 2352 2347 1992 c 128,-1,13
 2660 1632 2660 1632 2660 1168 c 0,14,15
 2660 672 2660 672 2319.5 328 c 128,-1,16
 1979 -16 1979 -16 1436.5 -16 c 128,-1,17
 894 -16 894 -16 562.5 328 c 128,-1,18
 231 672 231 672 231 1168 c 0,7,8
618 1168 m 0,19,20
 618 704 618 704 875.5 480 c 128,-1,21
 1133 256 1133 256 1436.5 256 c 128,-1,22
 1740 256 1740 256 2007 480 c 128,-1,23
 2274 704 2274 704 2274 1168 c 0,24,25
 2274 1616 2274 1616 2016 1856 c 128,-1,26
 1758 2096 1758 2096 1501 2096 c 2,27,-1
 1372 2096 l 2,28,29
 1133 2096 1133 2096 875.5 1840 c 128,-1,30
 618 1584 618 1584 618 1168 c 0,19,20
EndSplineSet
EndChar

StartChar: Otilde
Encoding: 213 213 151
Width: 2954
GlyphClass: 2
Flags: W
LayerCount: 2
Back
Fore
SplineSet
2279 3104 m 1,0,1
 2022 2864 2022 2864 1838 2864 c 256,2,3
 1654 2864 1654 2864 1525 2976 c 2,4,-1
 1304 3168 l 1,5,6
 1194 3248 1194 3248 1065 3248 c 0,7,8
 918 3248 918 3248 605 2976 c 1,9,-1
 605 3296 l 1,10,11
 881 3536 881 3536 1065 3536 c 0,12,13
 1230 3536 1230 3536 1359 3424 c 2,14,-1
 1580 3232 l 1,15,16
 1690 3152 1690 3152 1838 3152 c 0,17,18
 1985 3152 1985 3152 2279 3424 c 1,19,-1
 2279 3104 l 1,0,1
237 1168 m 0,20,21
 237 1632 237 1632 531.5 1992 c 128,-1,22
 826 2352 826 2352 1304 2352 c 2,23,-1
 1580 2352 l 2,24,25
 2040 2352 2040 2352 2353 1992 c 128,-1,26
 2666 1632 2666 1632 2666 1168 c 0,27,28
 2666 672 2666 672 2325.5 328 c 128,-1,29
 1985 -16 1985 -16 1442 -16 c 128,-1,30
 899 -16 899 -16 568 328 c 128,-1,31
 237 672 237 672 237 1168 c 0,20,21
623 1168 m 0,32,33
 623 704 623 704 880.5 480 c 128,-1,34
 1138 256 1138 256 1442 256 c 128,-1,35
 1746 256 1746 256 2012.5 480 c 128,-1,36
 2279 704 2279 704 2279 1168 c 0,37,38
 2279 1616 2279 1616 2021.5 1856 c 128,-1,39
 1764 2096 1764 2096 1506 2096 c 2,40,-1
 1378 2096 l 2,41,42
 1138 2096 1138 2096 880.5 1840 c 128,-1,43
 623 1584 623 1584 623 1168 c 0,32,33
EndSplineSet
EndChar

StartChar: Odieresis
Encoding: 214 214 152
Width: 2957
GlyphClass: 2
Flags: W
LayerCount: 2
Back
Fore
SplineSet
698 2720 m 1,0,-1
 698 3520 l 1,1,-1
 1195 3520 l 1,2,-1
 1195 2720 l 1,3,-1
 698 2720 l 1,0,-1
1710 2720 m 1,4,-1
 1710 3520 l 1,5,-1
 2207 3520 l 1,6,-1
 2207 2720 l 1,7,-1
 1710 2720 l 1,4,-1
238 1168 m 0,8,9
 238 1632 238 1632 514 1992 c 128,-1,10
 790 2352 790 2352 1305 2352 c 2,11,-1
 1581 2352 l 2,12,13
 2096 2352 2096 2352 2381.5 1992 c 128,-1,14
 2667 1632 2667 1632 2667 1168 c 0,15,16
 2667 672 2667 672 2363.5 336 c 128,-1,17
 2060 0 2060 0 1563 0 c 2,18,-1
 1324 0 l 2,19,20
 845 0 845 0 541.5 336 c 128,-1,21
 238 672 238 672 238 1168 c 0,8,9
624 1168 m 0,22,23
 624 704 624 704 854 496 c 128,-1,24
 1084 288 1084 288 1379 288 c 2,25,-1
 1508 288 l 2,26,27
 1765 288 1765 288 2022.5 496 c 128,-1,28
 2280 704 2280 704 2280 1168 c 0,29,30
 2280 1616 2280 1616 2059.5 1840 c 128,-1,31
 1839 2064 1839 2064 1508 2064 c 2,32,-1
 1379 2064 l 2,33,34
 1048 2064 1048 2064 836 1824 c 128,-1,35
 624 1584 624 1584 624 1168 c 0,22,23
EndSplineSet
EndChar

StartChar: multiply
Encoding: 215 215 153
Width: 3288
GlyphClass: 2
Flags: W
LayerCount: 2
Back
Fore
SplineSet
399 2832 m 1,0,-1
 1613 1776 l 1,1,-1
 2828 2832 l 1,2,-1
 3067 2624 l 1,3,-1
 1853 1568 l 1,4,-1
 3104 496 l 1,5,-1
 2865 272 l 1,6,-1
 1613 1360 l 1,7,-1
 381 272 l 1,8,-1
 141 496 l 1,9,-1
 1374 1568 l 1,10,-1
 160 2624 l 1,11,-1
 399 2832 l 1,0,-1
EndSplineSet
Substitution2: "'vert' Vertical Alternates (obs) in Hiragana & Katakana lookup 0 subtable" multiply.vert
EndChar

StartChar: Oslash
Encoding: 216 216 154
Width: 2664
GlyphClass: 2
Flags: W
LayerCount: 2
Back
Fore
SplineSet
1695 2560 m 1,0,1
 1530 2768 1530 2768 1309 2768 c 0,2,3
 1070 2768 1070 2768 886 2456 c 128,-1,4
 702 2144 702 2144 702 1568 c 0,5,6
 702 1120 702 1120 794 832 c 1,7,-1
 1695 2560 l 1,0,1
1842 2304 m 1,8,-1
 922 560 l 1,9,10
 1088 304 1088 304 1309 304 c 0,11,12
 1566 304 1566 304 1759.5 632 c 128,-1,13
 1953 960 1953 960 1953 1568 c 0,14,15
 1953 2000 1953 2000 1842 2304 c 1,8,-1
591 448 m 1,16,17
 315 912 315 912 315 1568 c 0,18,19
 315 2176 315 2176 591 2640 c 128,-1,20
 867 3104 867 3104 1309 3104 c 0,21,22
 1640 3104 1640 3104 1861 2864 c 1,23,-1
 2137 3376 l 1,24,-1
 2358 3264 l 1,25,-1
 2026 2656 l 1,26,27
 2321 2176 2321 2176 2321 1568 c 0,28,29
 2321 912 2321 912 2035.5 456 c 128,-1,30
 1750 0 1750 0 1309 0 c 0,31,32
 996 0 996 0 757 240 c 1,33,-1
 481 -288 l 1,34,-1
 260 -160 l 1,35,-1
 591 448 l 1,16,17
EndSplineSet
EndChar

StartChar: Ugrave
Encoding: 217 217 155
Width: 3155
GlyphClass: 2
Flags: W
LayerCount: 2
Back
Fore
SplineSet
927 3536 m 1,0,-1
 1718 3536 l 1,1,-1
 2417 2832 l 1,2,-1
 1939 2832 l 1,3,-1
 927 3536 l 1,0,-1
1552 320 m 0,4,5
 1884 320 1884 320 2077 480 c 128,-1,6
 2270 640 2270 640 2270 1040 c 2,7,-1
 2270 2352 l 1,8,-1
 2785 2352 l 1,9,-1
 2785 1040 l 2,10,11
 2785 448 2785 448 2426.5 216 c 128,-1,12
 2068 -16 2068 -16 1534 -16 c 128,-1,13
 1000 -16 1000 -16 669 216 c 128,-1,14
 338 448 338 448 338 1040 c 2,15,-1
 338 2352 l 1,16,-1
 853 2352 l 1,17,-1
 853 1040 l 2,18,19
 853 640 853 640 1037 480 c 128,-1,20
 1221 320 1221 320 1552 320 c 0,4,5
EndSplineSet
EndChar

StartChar: Uacute
Encoding: 218 218 156
Width: 3156
GlyphClass: 2
Flags: W
LayerCount: 2
Back
Fore
SplineSet
2253 3536 m 1,0,-1
 1222 2832 l 1,1,-1
 762 2832 l 1,2,-1
 1443 3536 l 1,3,-1
 2253 3536 l 1,0,-1
1554 320 m 0,4,5
 1885 320 1885 320 2078 480 c 128,-1,6
 2271 640 2271 640 2271 1040 c 2,7,-1
 2271 2352 l 1,8,-1
 2786 2352 l 1,9,-1
 2786 1040 l 2,10,11
 2786 448 2786 448 2427.5 216 c 128,-1,12
 2069 -16 2069 -16 1535.5 -16 c 128,-1,13
 1002 -16 1002 -16 670.5 216 c 128,-1,14
 339 448 339 448 339 1040 c 2,15,-1
 339 2352 l 1,16,-1
 854 2352 l 1,17,-1
 854 1040 l 2,18,19
 854 640 854 640 1038 480 c 128,-1,20
 1222 320 1222 320 1554 320 c 0,4,5
EndSplineSet
EndChar

StartChar: Ucircumflex
Encoding: 219 219 157
Width: 3160
GlyphClass: 2
Flags: W
LayerCount: 2
Back
Fore
SplineSet
1446 3520 m 1,0,-1
 1685 3520 l 1,1,-1
 2494 2960 l 1,2,-1
 2200 2816 l 1,3,-1
 1556 3264 l 1,4,-1
 930 2816 l 1,5,-1
 618 2960 l 1,6,-1
 1446 3520 l 1,0,-1
1556 320 m 256,7,8
 1887 320 1887 320 2080.5 480 c 128,-1,9
 2274 640 2274 640 2274 1040 c 2,10,-1
 2274 2352 l 1,11,-1
 2789 2352 l 1,12,-1
 2789 1040 l 2,13,14
 2789 448 2789 448 2430 216 c 128,-1,15
 2071 -16 2071 -16 1537.5 -16 c 128,-1,16
 1004 -16 1004 -16 673 216 c 128,-1,17
 342 448 342 448 342 1040 c 2,18,-1
 342 2352 l 1,19,-1
 857 2352 l 1,20,-1
 857 1040 l 2,21,22
 857 640 857 640 1041 480 c 128,-1,23
 1225 320 1225 320 1556 320 c 256,7,8
EndSplineSet
EndChar

StartChar: Udieresis
Encoding: 220 220 158
Width: 3205
GlyphClass: 2
Flags: W
LayerCount: 2
Back
Fore
SplineSet
432 3056 m 1,0,-1
 432 3536 l 1,1,-1
 1150 3536 l 1,2,-1
 1150 3056 l 1,3,-1
 432 3056 l 1,0,-1
1904 3056 m 1,4,-1
 1904 3536 l 1,5,-1
 2604 3536 l 1,6,-1
 2604 3056 l 1,7,-1
 1904 3056 l 1,4,-1
1592 320 m 0,8,9
 1923 320 1923 320 2116 480 c 128,-1,10
 2309 640 2309 640 2309 1040 c 2,11,-1
 2309 2352 l 1,12,-1
 2824 2352 l 1,13,-1
 2824 1040 l 2,14,15
 2824 448 2824 448 2465.5 216 c 128,-1,16
 2107 -16 2107 -16 1573.5 -16 c 128,-1,17
 1040 -16 1040 -16 708.5 216 c 128,-1,18
 377 448 377 448 377 1040 c 2,19,-1
 377 2352 l 1,20,-1
 892 2352 l 1,21,-1
 892 1040 l 2,22,23
 892 640 892 640 1076 480 c 128,-1,24
 1260 320 1260 320 1592 320 c 0,8,9
EndSplineSet
EndChar

StartChar: Yacute
Encoding: 221 221 159
Width: 2418
GlyphClass: 2
Flags: W
LayerCount: 2
Back
Fore
SplineSet
1920 3520 m 1,0,-1
 982 2816 l 1,1,-1
 540 2816 l 1,2,-1
 1184 3520 l 1,3,-1
 1920 3520 l 1,0,-1
1442 0 m 1,4,-1
 964 0 l 1,5,-1
 964 1104 l 1,6,-1
 62 2352 l 1,7,-1
 540 2352 l 1,8,-1
 1203 1408 l 1,9,-1
 1865 2352 l 1,10,-1
 2344 2352 l 1,11,-1
 1442 1104 l 1,12,-1
 1442 0 l 1,4,-1
EndSplineSet
EndChar

StartChar: Thorn
Encoding: 222 222 160
Width: 2693
GlyphClass: 2
Flags: W
LayerCount: 2
Back
Fore
SplineSet
871 0 m 1,0,-1
 447 0 l 1,1,-1
 447 3248 l 1,2,-1
 871 3248 l 1,3,-1
 871 2384 l 1,4,-1
 1496 2384 l 2,5,6
 2398 2384 2398 2384 2416 1632 c 0,7,8
 2435 880 2435 880 1496 864 c 1,9,-1
 871 864 l 1,10,-1
 871 0 l 1,0,-1
2048 1632 m 1,11,12
 2048 2096 2048 2096 1496 2112 c 1,13,-1
 871 2112 l 1,14,-1
 871 1120 l 1,15,-1
 1496 1120 l 2,16,17
 2030 1120 2030 1120 2048 1632 c 1,11,12
EndSplineSet
EndChar

StartChar: germandbls
Encoding: 223 223 161
Width: 2847
GlyphClass: 2
Flags: W
LayerCount: 2
Back
Fore
SplineSet
1460 3104 m 2,0,1
 1810 3104 1810 3104 2067.5 2872 c 128,-1,2
 2325 2640 2325 2640 2325 2304 c 0,3,4
 2325 2016 2325 2016 2150.5 1848 c 128,-1,5
 1976 1680 1976 1680 1847 1648 c 1,6,7
 2123 1600 2123 1600 2343.5 1376 c 128,-1,8
 2564 1152 2564 1152 2564 848 c 0,9,10
 2564 -16 2564 -16 1626 0 c 1,11,-1
 1092 0 l 1,12,-1
 1092 288 l 1,13,-1
 1552 288 l 2,14,15
 2160 288 2160 288 2160 832 c 0,16,17
 2160 1168 2160 1168 1856 1344 c 128,-1,18
 1552 1520 1552 1520 1221 1520 c 1,19,-1
 1221 1776 l 1,20,21
 1534 1776 1534 1776 1718 1920 c 128,-1,22
 1902 2064 1902 2064 1902 2304 c 0,23,24
 1902 2576 1902 2576 1745.5 2696 c 128,-1,25
 1589 2816 1589 2816 1313 2816 c 0,26,27
 1111 2816 1111 2816 973 2664 c 128,-1,28
 835 2512 835 2512 835 2176 c 2,29,-1
 835 0 l 1,30,-1
 412 0 l 1,31,-1
 412 2176 l 2,32,33
 412 2704 412 2704 678.5 2904 c 128,-1,34
 945 3104 945 3104 1240 3104 c 2,35,-1
 1460 3104 l 2,0,1
EndSplineSet
EndChar

StartChar: agrave
Encoding: 224 224 162
Width: 2334
GlyphClass: 2
Flags: W
LayerCount: 2
Back
Fore
SplineSet
608 3248 m 1,0,-1
 1197 3248 l 1,1,-1
 1712 2544 l 1,2,-1
 1363 2544 l 1,3,-1
 608 3248 l 1,0,-1
2044 0 m 1,4,-1
 1712 0 l 1,5,-1
 1639 176 l 1,6,7
 1363 0 1363 0 921 0 c 0,8,9
 259 0 259 0 259 608 c 0,10,11
 259 1280 259 1280 1234 1280 c 2,12,-1
 1602 1280 l 1,13,-1
 1602 1392 l 2,14,15
 1602 1552 1602 1552 1501 1616 c 128,-1,16
 1400 1680 1400 1680 1234 1680 c 2,17,-1
 921 1680 l 2,18,19
 608 1680 608 1680 424 1568 c 1,20,-1
 277 1744 l 1,21,22
 572 1920 572 1920 903 1920 c 2,23,-1
 1308 1920 l 2,24,25
 1547 1920 1547 1920 1749.5 1800 c 128,-1,26
 1952 1680 1952 1680 1952 1392 c 2,27,-1
 1952 416 l 1,28,-1
 2044 0 l 1,4,-1
1602 1040 m 1,29,-1
 1234 1040 l 2,30,31
 664 1040 664 1040 645 592 c 1,32,33
 645 224 645 224 1013 224 c 0,34,35
 1308 224 1308 224 1602 432 c 1,36,-1
 1602 1040 l 1,29,-1
EndSplineSet
EndChar

StartChar: aacute
Encoding: 225 225 163
Width: 2335
GlyphClass: 2
Flags: W
LayerCount: 2
Back
Fore
SplineSet
1712 3248 m 1,0,-1
 958 2544 l 1,1,-1
 608 2544 l 1,2,-1
 1124 3248 l 1,3,-1
 1712 3248 l 1,0,-1
2044 0 m 1,4,-1
 1712 0 l 1,5,-1
 1639 176 l 1,6,7
 1363 0 1363 0 921 0 c 0,8,9
 259 0 259 0 259 608 c 0,10,11
 259 1280 259 1280 1234 1280 c 2,12,-1
 1602 1280 l 1,13,-1
 1602 1392 l 2,14,15
 1602 1552 1602 1552 1501 1616 c 128,-1,16
 1400 1680 1400 1680 1234 1680 c 2,17,-1
 921 1680 l 2,18,19
 608 1680 608 1680 424 1568 c 1,20,-1
 277 1744 l 1,21,22
 572 1920 572 1920 903 1920 c 2,23,-1
 1308 1920 l 2,24,25
 1547 1920 1547 1920 1749.5 1800 c 128,-1,26
 1952 1680 1952 1680 1952 1392 c 2,27,-1
 1952 416 l 1,28,-1
 2044 0 l 1,4,-1
1602 1040 m 1,29,-1
 1234 1040 l 2,30,31
 664 1040 664 1040 645 592 c 1,32,33
 645 224 645 224 1013 224 c 0,34,35
 1308 224 1308 224 1602 432 c 1,36,-1
 1602 1040 l 1,29,-1
EndSplineSet
EndChar

StartChar: acircumflex
Encoding: 226 226 164
Width: 2347
GlyphClass: 2
Flags: W
LayerCount: 2
Back
Fore
SplineSet
1075 3248 m 1,0,-1
 1259 3248 l 1,1,-1
 1866 2672 l 1,2,-1
 1646 2544 l 1,3,-1
 1167 2992 l 1,4,-1
 707 2544 l 1,5,-1
 468 2672 l 1,6,-1
 1075 3248 l 1,0,-1
2050 0 m 1,7,-1
 1719 0 l 1,8,-1
 1646 176 l 1,9,10
 1370 0 1370 0 928 0 c 0,11,12
 266 0 266 0 266 608 c 0,13,14
 266 1280 266 1280 1241 1280 c 2,15,-1
 1609 1280 l 1,16,-1
 1609 1392 l 2,17,18
 1609 1552 1609 1552 1507.5 1616 c 128,-1,19
 1406 1680 1406 1680 1241 1680 c 2,20,-1
 928 1680 l 2,21,22
 615 1680 615 1680 431 1568 c 1,23,-1
 284 1744 l 1,24,25
 578 1920 578 1920 910 1920 c 2,26,-1
 1314 1920 l 2,27,28
 1554 1920 1554 1920 1756 1800 c 128,-1,29
 1958 1680 1958 1680 1958 1392 c 2,30,-1
 1958 416 l 1,31,-1
 2050 0 l 1,7,-1
1609 1040 m 1,32,-1
 1241 1040 l 2,33,34
 670 1040 670 1040 652 592 c 1,35,36
 652 224 652 224 1020 224 c 0,37,38
 1314 224 1314 224 1609 432 c 1,39,-1
 1609 1040 l 1,32,-1
EndSplineSet
EndChar

StartChar: atilde
Encoding: 227 227 165
Width: 2451
GlyphClass: 2
Flags: W
LayerCount: 2
Back
Fore
SplineSet
2124 2672 m 1,0,1
 1830 2432 1830 2432 1646 2432 c 256,2,3
 1462 2432 1462 2432 1314 2544 c 1,4,-1
 1075 2736 l 1,5,6
 965 2816 965 2816 818 2816 c 0,7,8
 652 2816 652 2816 321 2544 c 1,9,-1
 321 2848 l 1,10,11
 615 3088 615 3088 818 3088 c 0,12,13
 1002 3088 1002 3088 1130 2976 c 1,14,-1
 1370 2784 l 1,15,16
 1498 2704 1498 2704 1646 2704 c 0,17,18
 1793 2704 1793 2704 2124 2976 c 1,19,-1
 2124 2672 l 1,0,1
2106 0 m 1,20,-1
 1774 0 l 1,21,-1
 1701 176 l 1,22,23
 1425 0 1425 0 983 0 c 0,24,25
 321 0 321 0 321 608 c 0,26,27
 321 1280 321 1280 1296 1280 c 2,28,-1
 1664 1280 l 1,29,-1
 1664 1392 l 2,30,31
 1664 1552 1664 1552 1563 1616 c 128,-1,32
 1462 1680 1462 1680 1296 1680 c 2,33,-1
 983 1680 l 2,34,35
 670 1680 670 1680 486 1568 c 1,36,-1
 339 1744 l 1,37,38
 634 1920 634 1920 965 1920 c 2,39,-1
 1370 1920 l 2,40,41
 1609 1920 1609 1920 1811.5 1800 c 128,-1,42
 2014 1680 2014 1680 2014 1392 c 2,43,-1
 2014 416 l 1,44,-1
 2106 0 l 1,20,-1
1664 1040 m 1,45,-1
 1296 1040 l 2,46,47
 726 1040 726 1040 707 592 c 1,48,49
 707 224 707 224 1075 224 c 0,50,51
 1370 224 1370 224 1664 432 c 1,52,-1
 1664 1040 l 1,45,-1
EndSplineSet
EndChar

StartChar: adieresis
Encoding: 228 228 166
Width: 2444
GlyphClass: 2
Flags: W
LayerCount: 2
Back
Fore
SplineSet
390 2352 m 1,0,-1
 390 3104 l 1,1,-1
 905 3104 l 1,2,-1
 905 2352 l 1,3,-1
 390 2352 l 1,0,-1
1475 2352 m 1,4,-1
 1475 3104 l 1,5,-1
 1991 3104 l 1,6,-1
 1991 2352 l 1,7,-1
 1475 2352 l 1,4,-1
2119 0 m 1,8,-1
 1788 0 l 1,9,-1
 1715 176 l 1,10,11
 1439 0 1439 0 997 0 c 0,12,13
 335 0 335 0 335 608 c 0,14,15
 335 1280 335 1280 1310 1280 c 2,16,-1
 1678 1280 l 1,17,-1
 1678 1392 l 2,18,19
 1678 1552 1678 1552 1576.5 1616 c 128,-1,20
 1475 1680 1475 1680 1310 1680 c 2,21,-1
 997 1680 l 2,22,23
 684 1680 684 1680 500 1568 c 1,24,-1
 353 1744 l 1,25,26
 647 1920 647 1920 979 1920 c 2,27,-1
 1383 1920 l 2,28,29
 1623 1920 1623 1920 1825 1800 c 128,-1,30
 2027 1680 2027 1680 2027 1392 c 2,31,-1
 2027 416 l 1,32,-1
 2119 0 l 1,8,-1
1678 1040 m 1,33,-1
 1310 1040 l 2,34,35
 739 1040 739 1040 721 592 c 1,36,37
 721 224 721 224 1089 224 c 0,38,39
 1383 224 1383 224 1678 432 c 1,40,-1
 1678 1040 l 1,33,-1
EndSplineSet
EndChar

StartChar: aring
Encoding: 229 229 167
Width: 2333
GlyphClass: 2
Flags: W
LayerCount: 2
Back
Fore
SplineSet
626 2800 m 0,0,1
 626 2992 626 2992 791 3136 c 1,2,3
 938 3280 938 3280 1159 3280 c 256,4,5
 1380 3280 1380 3280 1546 3136 c 1,6,7
 1693 2992 1693 2992 1693 2800 c 0,8,9
 1693 2592 1693 2592 1546 2448 c 1,10,11
 1380 2304 1380 2304 1159 2304 c 256,12,13
 938 2304 938 2304 791 2448 c 1,14,15
 626 2592 626 2592 626 2800 c 0,0,1
810 2784 m 0,16,17
 810 2656 810 2656 911 2560 c 128,-1,18
 1012 2464 1012 2464 1159 2464 c 256,19,20
 1306 2464 1306 2464 1417 2560 c 1,21,22
 1509 2656 1509 2656 1509 2784 c 0,23,24
 1509 2928 1509 2928 1407.5 3024 c 128,-1,25
 1306 3120 1306 3120 1159 3120 c 256,26,27
 1012 3120 1012 3120 902 3024 c 1,28,29
 810 2928 810 2928 810 2784 c 0,16,17
2042 0 m 1,30,-1
 1711 0 l 1,31,-1
 1638 176 l 1,32,33
 1362 0 1362 0 920 0 c 0,34,35
 258 0 258 0 258 608 c 0,36,37
 258 1280 258 1280 1233 1280 c 2,38,-1
 1601 1280 l 1,39,-1
 1601 1392 l 2,40,41
 1601 1552 1601 1552 1499.5 1616 c 128,-1,42
 1398 1680 1398 1680 1233 1680 c 2,43,-1
 920 1680 l 2,44,45
 607 1680 607 1680 423 1568 c 1,46,-1
 276 1744 l 1,47,48
 570 1920 570 1920 902 1920 c 2,49,-1
 1306 1920 l 2,50,51
 1546 1920 1546 1920 1748 1800 c 128,-1,52
 1950 1680 1950 1680 1950 1392 c 2,53,-1
 1950 416 l 1,54,-1
 2042 0 l 1,30,-1
1601 1040 m 1,55,-1
 1233 1040 l 2,56,57
 662 1040 662 1040 644 592 c 1,58,59
 644 224 644 224 1012 224 c 0,60,61
 1306 224 1306 224 1601 432 c 1,62,-1
 1601 1040 l 1,55,-1
EndSplineSet
EndChar

StartChar: ae
Encoding: 230 230 168
Width: 3290
GlyphClass: 2
Flags: W
LayerCount: 2
Back
Fore
SplineSet
1712 1216 m 1,0,-1
 2614 1216 l 1,1,2
 2540 1632 2540 1632 2172 1648 c 1,3,4
 1786 1632 1786 1632 1712 1216 c 1,0,-1
1584 1648 m 1,5,6
 1749 1920 1749 1920 2080 1920 c 2,7,-1
 2264 1920 l 2,8,9
 2522 1920 2522 1920 2752 1664 c 128,-1,10
 2982 1408 2982 1408 2982 960 c 1,11,-1
 1694 960 l 1,12,13
 1694 640 1694 640 1850.5 456 c 128,-1,14
 2007 272 2007 272 2228 272 c 0,15,16
 2393 272 2393 272 2494.5 360 c 128,-1,17
 2596 448 2596 448 2651 608 c 1,18,-1
 2964 608 l 1,19,20
 2816 -16 2816 -16 2228 -16 c 0,21,22
 1786 -16 1786 -16 1584 288 c 1,23,24
 1216 0 1216 0 811 -16 c 1,25,26
 535 -16 535 -16 415.5 120 c 128,-1,27
 296 256 296 256 296 480 c 0,28,29
 296 896 296 896 581 1056 c 128,-1,30
 866 1216 866 1216 1381 1264 c 1,31,32
 1381 1664 1381 1664 1013 1696 c 1,33,34
 700 1696 700 1696 664 1392 c 1,35,-1
 332 1392 l 1,36,37
 388 1712 388 1712 553.5 1816 c 128,-1,38
 719 1920 719 1920 903 1920 c 2,39,-1
 1142 1920 l 2,40,41
 1436 1920 1436 1920 1584 1648 c 1,5,6
1381 512 m 1,42,43
 1381 1008 1381 1008 1381 1008 c 1,44,45
 995 944 995 944 801.5 840 c 128,-1,46
 608 736 608 736 608 480 c 0,47,48
 608 288 608 288 811 288 c 0,49,50
 1142 288 1142 288 1381 512 c 1,42,43
EndSplineSet
EndChar

StartChar: ccedilla
Encoding: 231 231 169
Width: 2508
GlyphClass: 2
Flags: W
LayerCount: 2
Back
Fore
SplineSet
1392 0 m 1,0,1
 1484 -64 1484 -64 1594 -80 c 1,2,3
 1723 -128 1723 -128 1787.5 -176 c 128,-1,4
 1852 -224 1852 -224 1852 -288 c 0,5,6
 1852 -416 1852 -416 1704.5 -496 c 128,-1,7
 1557 -576 1557 -576 1300 -576 c 0,8,9
 1079 -576 1079 -576 941 -536 c 128,-1,10
 803 -496 803 -496 637 -352 c 1,11,-1
 803 -208 l 1,12,13
 932 -320 932 -320 1042 -352 c 128,-1,14
 1152 -384 1152 -384 1300 -384 c 0,15,16
 1410 -384 1410 -384 1493 -368 c 128,-1,17
 1576 -352 1576 -352 1576 -288 c 0,18,19
 1576 -240 1576 -240 1392 -192 c 1,20,21
 1171 -144 1171 -144 1116 0 c 1,22,23
 729 32 729 32 490 288 c 128,-1,24
 251 544 251 544 251 992 c 0,25,26
 251 1424 251 1424 499.5 1672 c 128,-1,27
 748 1920 748 1920 1134 1920 c 2,28,-1
 1373 1920 l 2,29,30
 1704 1920 1704 1920 1943.5 1696 c 128,-1,31
 2183 1472 2183 1472 2201 1184 c 1,32,-1
 1852 1184 l 1,33,34
 1815 1392 1815 1392 1658.5 1520 c 128,-1,35
 1502 1648 1502 1648 1244 1648 c 0,36,37
 950 1648 950 1648 766 1472 c 128,-1,38
 582 1296 582 1296 582 992 c 0,39,40
 582 608 582 608 766 448 c 128,-1,41
 950 288 950 288 1244 288 c 0,42,43
 1520 288 1520 288 1667.5 400 c 128,-1,44
 1815 512 1815 512 1852 736 c 1,45,-1
 2201 736 l 1,46,47
 2164 400 2164 400 1971 216 c 128,-1,48
 1778 32 1778 32 1392 0 c 1,0,1
EndSplineSet
EndChar

StartChar: egrave
Encoding: 232 232 170
Width: 2362
GlyphClass: 2
Flags: W
LayerCount: 2
Back
Fore
SplineSet
574 3248 m 1,0,-1
 1199 3248 l 1,1,-1
 1751 2544 l 1,2,-1
 1383 2544 l 1,3,-1
 574 3248 l 1,0,-1
666 1056 m 1,4,5
 647 896 647 896 666 752 c 0,6,7
 703 464 703 464 850 352 c 128,-1,8
 997 240 997 240 1181 240 c 256,9,10
 1365 240 1365 240 1503 296 c 128,-1,11
 1641 352 1641 352 1751 528 c 1,12,-1
 2046 368 l 1,13,14
 1935 208 1935 208 1751 104 c 128,-1,15
 1567 0 1567 0 1291 0 c 2,16,-1
 1089 0 l 2,17,18
 721 0 721 0 491 216 c 128,-1,19
 261 432 261 432 261 896 c 2,20,-1
 261 1088 l 2,21,22
 261 1536 261 1536 500 1728 c 128,-1,23
 739 1920 739 1920 1071 1920 c 2,24,-1
 1291 1920 l 2,25,26
 1604 1920 1604 1920 1834 1728 c 128,-1,27
 2064 1536 2064 1536 2064 1280 c 2,28,-1
 2064 1056 l 1,29,-1
 666 1056 l 1,4,5
1678 1280 m 1,30,31
 1659 1456 1659 1456 1549 1568 c 128,-1,32
 1439 1680 1439 1680 1181 1680 c 0,33,34
 905 1680 905 1680 804 1560 c 128,-1,35
 703 1440 703 1440 684 1280 c 1,36,-1
 1678 1280 l 1,30,31
EndSplineSet
EndChar

StartChar: eacute
Encoding: 233 233 171
Width: 2360
GlyphClass: 2
Flags: W
LayerCount: 2
Back
Fore
SplineSet
1750 3248 m 1,0,-1
 941 2544 l 1,1,-1
 573 2544 l 1,2,-1
 1125 3248 l 1,3,-1
 1750 3248 l 1,0,-1
665 1056 m 1,4,5
 646 896 646 896 665 752 c 0,6,7
 702 464 702 464 849 352 c 128,-1,8
 996 240 996 240 1180 240 c 256,9,10
 1364 240 1364 240 1502 296 c 128,-1,11
 1640 352 1640 352 1750 528 c 1,12,-1
 2045 368 l 1,13,14
 1934 208 1934 208 1750 104 c 128,-1,15
 1566 0 1566 0 1290 0 c 2,16,-1
 1088 0 l 2,17,18
 720 0 720 0 490 216 c 128,-1,19
 260 432 260 432 260 896 c 2,20,-1
 260 1088 l 2,21,22
 260 1536 260 1536 499 1728 c 128,-1,23
 738 1920 738 1920 1070 1920 c 2,24,-1
 1290 1920 l 2,25,26
 1603 1920 1603 1920 1833 1728 c 128,-1,27
 2063 1536 2063 1536 2063 1280 c 2,28,-1
 2063 1056 l 1,29,-1
 665 1056 l 1,4,5
1677 1280 m 1,30,31
 1658 1456 1658 1456 1548 1568 c 128,-1,32
 1438 1680 1438 1680 1180 1680 c 0,33,34
 904 1680 904 1680 803 1560 c 128,-1,35
 702 1440 702 1440 683 1280 c 1,36,-1
 1677 1280 l 1,30,31
EndSplineSet
EndChar

StartChar: ecircumflex
Encoding: 234 234 172
Width: 2378
GlyphClass: 2
Flags: W
LayerCount: 2
Back
Fore
SplineSet
1080 3248 m 1,0,-1
 1264 3248 l 1,1,-1
 1908 2672 l 1,2,-1
 1669 2544 l 1,3,-1
 1172 2992 l 1,4,-1
 675 2544 l 1,5,-1
 436 2672 l 1,6,-1
 1080 3248 l 1,0,-1
675 1056 m 1,7,8
 657 896 657 896 675 752 c 0,9,10
 712 464 712 464 859 352 c 128,-1,11
 1006 240 1006 240 1190 240 c 256,12,13
 1374 240 1374 240 1512 296 c 128,-1,14
 1650 352 1650 352 1761 528 c 1,15,-1
 2055 368 l 1,16,17
 1945 208 1945 208 1761 104 c 128,-1,18
 1577 0 1577 0 1301 0 c 2,19,-1
 1098 0 l 2,20,21
 730 0 730 0 500 216 c 128,-1,22
 270 432 270 432 270 896 c 2,23,-1
 270 1088 l 2,24,25
 270 1536 270 1536 509.5 1728 c 128,-1,26
 749 1920 749 1920 1080 1920 c 2,27,-1
 1301 1920 l 2,28,29
 1613 1920 1613 1920 1843 1728 c 128,-1,30
 2073 1536 2073 1536 2073 1280 c 2,31,-1
 2073 1056 l 1,32,-1
 675 1056 l 1,7,8
1687 1280 m 1,33,34
 1669 1456 1669 1456 1558.5 1568 c 128,-1,35
 1448 1680 1448 1680 1190 1680 c 0,36,37
 914 1680 914 1680 813 1560 c 128,-1,38
 712 1440 712 1440 693 1280 c 1,39,-1
 1687 1280 l 1,33,34
EndSplineSet
EndChar

StartChar: edieresis
Encoding: 235 235 173
Width: 2479
GlyphClass: 2
Flags: W
LayerCount: 2
Back
Fore
SplineSet
342 2544 m 1,0,-1
 342 3024 l 1,1,-1
 894 3024 l 1,2,-1
 894 2544 l 1,3,-1
 342 2544 l 1,0,-1
1482 2544 m 1,4,-1
 1482 3024 l 1,5,-1
 2034 3024 l 1,6,-1
 2034 2544 l 1,7,-1
 1482 2544 l 1,4,-1
746 1056 m 1,8,9
 728 896 728 896 746 752 c 0,10,11
 783 464 783 464 930.5 352 c 128,-1,12
 1078 240 1078 240 1262 240 c 256,13,14
 1446 240 1446 240 1584 296 c 128,-1,15
 1722 352 1722 352 1832 528 c 1,16,-1
 2126 368 l 1,17,18
 2016 208 2016 208 1832 104 c 128,-1,19
 1648 0 1648 0 1372 0 c 2,20,-1
 1170 0 l 2,21,22
 802 0 802 0 572 216 c 128,-1,23
 342 432 342 432 342 896 c 2,24,-1
 342 1088 l 2,25,26
 342 1536 342 1536 581 1728 c 128,-1,27
 820 1920 820 1920 1151 1920 c 2,28,-1
 1372 1920 l 2,29,30
 1685 1920 1685 1920 1915 1728 c 128,-1,31
 2145 1536 2145 1536 2145 1280 c 2,32,-1
 2145 1056 l 1,33,-1
 746 1056 l 1,8,9
1758 1280 m 1,34,35
 1740 1456 1740 1456 1629.5 1568 c 128,-1,36
 1519 1680 1519 1680 1262 1680 c 0,37,38
 986 1680 986 1680 884.5 1560 c 128,-1,39
 783 1440 783 1440 765 1280 c 1,40,-1
 1758 1280 l 1,34,35
EndSplineSet
EndChar

StartChar: igrave
Encoding: 236 236 174
Width: 1052
GlyphClass: 2
Flags: W
LayerCount: 2
Back
Fore
SplineSet
169 3248 m 1,0,-1
 537 3248 l 1,1,-1
 850 2544 l 1,2,-1
 629 2544 l 1,3,-1
 169 3248 l 1,0,-1
629 0 m 1,4,-1
 390 0 l 1,5,-1
 390 1920 l 1,6,-1
 629 1920 l 1,7,-1
 629 0 l 1,4,-1
EndSplineSet
EndChar

StartChar: iacute
Encoding: 237 237 175
Width: 1047
GlyphClass: 2
Flags: W
LayerCount: 2
Back
Fore
SplineSet
854 3248 m 1,0,-1
 394 2544 l 1,1,-1
 174 2544 l 1,2,-1
 486 3248 l 1,3,-1
 854 3248 l 1,0,-1
634 0 m 1,4,-1
 394 0 l 1,5,-1
 394 1920 l 1,6,-1
 634 1920 l 1,7,-1
 634 0 l 1,4,-1
EndSplineSet
EndChar

StartChar: icircumflex
Encoding: 238 238 176
Width: 1343
GlyphClass: 2
Flags: W
LayerCount: 2
Back
Fore
SplineSet
581 3248 m 1,0,-1
 746 3248 l 1,1,-1
 1298 2688 l 1,2,-1
 1096 2544 l 1,3,-1
 673 2992 l 1,4,-1
 231 2544 l 1,5,-1
 29 2688 l 1,6,-1
 581 3248 l 1,0,-1
838 0 m 1,7,-1
 489 0 l 1,8,-1
 489 1920 l 1,9,-1
 838 1920 l 1,10,-1
 838 0 l 1,7,-1
EndSplineSet
EndChar

StartChar: idieresis
Encoding: 239 239 177
Width: 1437
GlyphClass: 2
Flags: W
LayerCount: 2
Back
Fore
SplineSet
93 2544 m 1,0,-1
 93 3024 l 1,1,-1
 498 3024 l 1,2,-1
 498 2544 l 1,3,-1
 93 2544 l 1,0,-1
921 2544 m 1,4,-1
 921 3024 l 1,5,-1
 1308 3024 l 1,6,-1
 1308 2544 l 1,7,-1
 921 2544 l 1,4,-1
884 0 m 1,8,-1
 590 0 l 1,9,-1
 590 1920 l 1,10,-1
 884 1920 l 1,11,-1
 884 0 l 1,8,-1
EndSplineSet
EndChar

StartChar: eth
Encoding: 240 240 178
Width: 2566
GlyphClass: 2
Flags: W
LayerCount: 2
Back
Fore
SplineSet
1168 304 m 0,0,1
 1500 304 1500 304 1638 464 c 128,-1,2
 1776 624 1776 624 1776 944 c 256,3,4
 1776 1264 1776 1264 1601 1416 c 128,-1,5
 1426 1568 1426 1568 1168 1568 c 0,6,7
 874 1568 874 1568 727 1360 c 128,-1,8
 580 1152 580 1152 580 944 c 0,9,10
 580 624 580 624 764 464 c 128,-1,11
 948 304 948 304 1168 304 c 0,0,1
1812 2608 m 1,12,-1
 2291 2752 l 1,13,-1
 2401 2496 l 1,14,-1
 1996 2368 l 1,15,16
 2217 2000 2217 2000 2217 1216 c 0,17,18
 2217 592 2217 592 1941 296 c 128,-1,19
 1665 0 1665 0 1205 0 c 1,20,21
 727 -16 727 -16 478.5 280 c 128,-1,22
 230 576 230 576 230 944 c 0,23,24
 230 1440 230 1440 506 1648 c 128,-1,25
 782 1856 782 1856 1187 1856 c 0,26,27
 1352 1856 1352 1856 1527 1800 c 128,-1,28
 1702 1744 1702 1744 1794 1648 c 1,29,30
 1776 2048 1776 2048 1647 2272 c 1,31,-1
 561 1952 l 1,32,-1
 451 2208 l 1,33,-1
 1444 2496 l 1,34,35
 1260 2656 1260 2656 966 2784 c 1,36,-1
 1150 3024 l 1,37,38
 1500 2880 1500 2880 1812 2608 c 1,12,-1
EndSplineSet
EndChar

StartChar: ntilde
Encoding: 241 241 179
Width: 2450
GlyphClass: 2
Flags: W
LayerCount: 2
Back
Fore
SplineSet
2153 2672 m 1,0,1
 1858 2432 1858 2432 1656 2432 c 256,2,3
 1454 2432 1454 2432 1306 2544 c 2,4,-1
 1049 2736 l 2,5,6
 938 2816 938 2816 791 2816 c 0,7,8
 626 2816 626 2816 276 2544 c 1,9,-1
 276 2848 l 1,10,11
 589 3088 589 3088 791 3088 c 0,12,13
 975 3088 975 3088 1122 2976 c 2,14,-1
 1380 2784 l 2,15,16
 1490 2704 1490 2704 1656 2704 c 256,17,18
 1822 2704 1822 2704 2153 2976 c 1,19,-1
 2153 2672 l 1,0,1
2024 0 m 1,20,-1
 1638 0 l 1,21,-1
 1638 1376 l 2,22,23
 1638 1520 1638 1520 1573.5 1576 c 128,-1,24
 1509 1632 1509 1632 1325 1632 c 0,25,26
 1178 1632 1178 1632 1067.5 1568 c 128,-1,27
 957 1504 957 1504 791 1328 c 1,28,-1
 791 0 l 1,29,-1
 405 0 l 1,30,-1
 405 1920 l 1,31,-1
 791 1920 l 1,32,-1
 791 1648 l 1,33,34
 883 1776 883 1776 993.5 1848 c 128,-1,35
 1104 1920 1104 1920 1306 1920 c 2,36,-1
 1527 1920 l 2,37,38
 1766 1920 1766 1920 1895 1792 c 128,-1,39
 2024 1664 2024 1664 2024 1424 c 2,40,-1
 2024 0 l 1,20,-1
EndSplineSet
EndChar

StartChar: ograve
Encoding: 242 242 180
Width: 2589
GlyphClass: 2
Flags: W
LayerCount: 2
Back
Fore
SplineSet
670 3248 m 1,0,-1
 1296 3248 l 1,1,-1
 1848 2544 l 1,2,-1
 1480 2544 l 1,3,-1
 670 3248 l 1,0,-1
1388 1920 m 2,4,5
 1848 1920 1848 1920 2069 1664 c 128,-1,6
 2290 1408 2290 1408 2290 1008 c 2,7,-1
 2290 960 l 2,8,9
 2290 512 2290 512 2060 256 c 128,-1,10
 1830 0 1830 0 1388 0 c 2,11,-1
 1112 0 l 2,12,13
 670 0 670 0 458.5 240 c 128,-1,14
 247 480 247 480 247 960 c 2,15,-1
 247 1008 l 2,16,17
 247 1424 247 1424 477 1672 c 128,-1,18
 707 1920 707 1920 1112 1920 c 2,19,-1
 1388 1920 l 2,4,5
652 1008 m 2,20,-1
 652 960 l 2,21,22
 652 576 652 576 771.5 424 c 128,-1,23
 891 272 891 272 1112 272 c 2,24,-1
 1388 272 l 2,25,26
 1609 272 1609 272 1747 448 c 128,-1,27
 1885 624 1885 624 1885 960 c 2,28,-1
 1885 1008 l 2,29,30
 1885 1328 1885 1328 1756 1488 c 128,-1,31
 1627 1648 1627 1648 1388 1648 c 2,32,-1
 1112 1648 l 2,33,34
 910 1648 910 1648 781 1496 c 128,-1,35
 652 1344 652 1344 652 1008 c 2,20,-1
EndSplineSet
EndChar

StartChar: oacute
Encoding: 243 243 181
Width: 2590
GlyphClass: 2
Flags: W
LayerCount: 2
Back
Fore
SplineSet
1848 3248 m 1,0,-1
 1038 2544 l 1,1,-1
 670 2544 l 1,2,-1
 1222 3248 l 1,3,-1
 1848 3248 l 1,0,-1
1388 1920 m 2,4,5
 1848 1920 1848 1920 2069 1664 c 128,-1,6
 2290 1408 2290 1408 2290 1008 c 2,7,-1
 2290 960 l 2,8,9
 2290 512 2290 512 2060 256 c 128,-1,10
 1830 0 1830 0 1388 0 c 2,11,-1
 1112 0 l 2,12,13
 670 0 670 0 458.5 240 c 128,-1,14
 247 480 247 480 247 960 c 2,15,-1
 247 1008 l 2,16,17
 247 1424 247 1424 477 1672 c 128,-1,18
 707 1920 707 1920 1112 1920 c 2,19,-1
 1388 1920 l 2,4,5
652 1008 m 2,20,-1
 652 960 l 2,21,22
 652 576 652 576 771.5 424 c 128,-1,23
 891 272 891 272 1112 272 c 2,24,-1
 1388 272 l 2,25,26
 1609 272 1609 272 1747 448 c 128,-1,27
 1885 624 1885 624 1885 960 c 2,28,-1
 1885 1008 l 2,29,30
 1885 1328 1885 1328 1756 1488 c 128,-1,31
 1627 1648 1627 1648 1388 1648 c 2,32,-1
 1112 1648 l 2,33,34
 910 1648 910 1648 781 1496 c 128,-1,35
 652 1344 652 1344 652 1008 c 2,20,-1
EndSplineSet
EndChar

StartChar: ocircumflex
Encoding: 244 244 182
Width: 2594
GlyphClass: 2
Flags: W
LayerCount: 2
Back
Fore
SplineSet
1170 3248 m 1,0,-1
 1354 3248 l 1,1,-1
 1998 2672 l 1,2,-1
 1777 2544 l 1,3,-1
 1262 2992 l 1,4,-1
 765 2544 l 1,5,-1
 526 2672 l 1,6,-1
 1170 3248 l 1,0,-1
1390 1920 m 2,7,8
 1850 1920 1850 1920 2071 1664 c 128,-1,9
 2292 1408 2292 1408 2292 1008 c 2,10,-1
 2292 960 l 2,11,12
 2292 512 2292 512 2062 256 c 128,-1,13
 1832 0 1832 0 1390 0 c 2,14,-1
 1114 0 l 2,15,16
 673 0 673 0 461.5 240 c 128,-1,17
 250 480 250 480 250 960 c 2,18,-1
 250 1008 l 2,19,20
 250 1424 250 1424 480 1672 c 128,-1,21
 710 1920 710 1920 1114 1920 c 2,22,-1
 1390 1920 l 2,7,8
654 1008 m 2,23,-1
 654 960 l 2,24,25
 654 576 654 576 774 424 c 128,-1,26
 894 272 894 272 1114 272 c 2,27,-1
 1390 272 l 2,28,29
 1611 272 1611 272 1749 448 c 128,-1,30
 1887 624 1887 624 1887 960 c 2,31,-1
 1887 1008 l 2,32,33
 1887 1328 1887 1328 1758.5 1488 c 128,-1,34
 1630 1648 1630 1648 1390 1648 c 2,35,-1
 1114 1648 l 2,36,37
 912 1648 912 1648 783 1496 c 128,-1,38
 654 1344 654 1344 654 1008 c 2,23,-1
EndSplineSet
EndChar

StartChar: otilde
Encoding: 245 245 183
Width: 2676
GlyphClass: 2
Flags: W
LayerCount: 2
Back
Fore
SplineSet
2266 2672 m 1,0,1
 1953 2432 1953 2432 1750 2432 c 0,2,3
 1548 2432 1548 2432 1401 2544 c 2,4,-1
 1143 2736 l 2,5,6
 1033 2816 1033 2816 867 2816 c 0,7,8
 702 2816 702 2816 352 2544 c 1,9,-1
 352 2848 l 1,10,11
 665 3088 665 3088 867 3088 c 0,12,13
 1070 3088 1070 3088 1217 2976 c 2,14,-1
 1474 2784 l 2,15,16
 1585 2704 1585 2704 1750 2704 c 0,17,18
 1916 2704 1916 2704 2266 2976 c 1,19,-1
 2266 2672 l 1,0,1
1438 1920 m 2,20,21
 1898 1920 1898 1920 2118.5 1664 c 128,-1,22
 2339 1408 2339 1408 2339 1008 c 2,23,-1
 2339 960 l 2,24,25
 2339 512 2339 512 2109 256 c 128,-1,26
 1879 0 1879 0 1438 0 c 2,27,-1
 1162 0 l 2,28,29
 720 0 720 0 508.5 240 c 128,-1,30
 297 480 297 480 297 960 c 2,31,-1
 297 1008 l 2,32,33
 297 1424 297 1424 527 1672 c 128,-1,34
 757 1920 757 1920 1162 1920 c 2,35,-1
 1438 1920 l 2,20,21
702 1008 m 2,36,-1
 702 960 l 2,37,38
 702 576 702 576 821.5 424 c 128,-1,39
 941 272 941 272 1162 272 c 2,40,-1
 1438 272 l 2,41,42
 1658 272 1658 272 1796 448 c 128,-1,43
 1934 624 1934 624 1934 960 c 2,44,-1
 1934 1008 l 2,45,46
 1934 1328 1934 1328 1805.5 1488 c 128,-1,47
 1677 1648 1677 1648 1438 1648 c 2,48,-1
 1162 1648 l 2,49,50
 959 1648 959 1648 830.5 1496 c 128,-1,51
 702 1344 702 1344 702 1008 c 2,36,-1
EndSplineSet
EndChar

StartChar: odieresis
Encoding: 246 246 184
Width: 2662
GlyphClass: 2
Flags: W
LayerCount: 2
Back
Fore
SplineSet
393 2544 m 1,0,-1
 393 3024 l 1,1,-1
 964 3024 l 1,2,-1
 964 2544 l 1,3,-1
 393 2544 l 1,0,-1
1552 2544 m 1,4,-1
 1552 3024 l 1,5,-1
 2123 3024 l 1,6,-1
 2123 2544 l 1,7,-1
 1552 2544 l 1,4,-1
1442 1920 m 2,8,9
 1902 1920 1902 1920 2123 1664 c 128,-1,10
 2344 1408 2344 1408 2344 1008 c 2,11,-1
 2344 960 l 2,12,13
 2344 512 2344 512 2114 256 c 128,-1,14
 1884 0 1884 0 1442 0 c 2,15,-1
 1166 0 l 2,16,17
 724 0 724 0 512.5 240 c 128,-1,18
 301 480 301 480 301 960 c 2,19,-1
 301 1008 l 2,20,21
 301 1424 301 1424 531 1672 c 128,-1,22
 761 1920 761 1920 1166 1920 c 2,23,-1
 1442 1920 l 2,8,9
706 1008 m 2,24,-1
 706 960 l 2,25,26
 706 576 706 576 825.5 424 c 128,-1,27
 945 272 945 272 1166 272 c 2,28,-1
 1442 272 l 2,29,30
 1663 272 1663 272 1801 448 c 128,-1,31
 1939 624 1939 624 1939 960 c 2,32,-1
 1939 1008 l 2,33,34
 1939 1328 1939 1328 1810 1488 c 128,-1,35
 1681 1648 1681 1648 1442 1648 c 2,36,-1
 1166 1648 l 2,37,38
 964 1648 964 1648 835 1496 c 128,-1,39
 706 1344 706 1344 706 1008 c 2,24,-1
EndSplineSet
EndChar

StartChar: divide
Encoding: 247 247 185
Width: 3688
GlyphClass: 2
Flags: W
LayerCount: 2
Back
Fore
SplineSet
200 1680 m 1,0,-1
 3420 1680 l 1,1,-1
 3420 1424 l 1,2,-1
 200 1424 l 1,3,-1
 200 1680 l 1,0,-1
1838 2672 m 0,4,5
 2095 2672 2095 2672 2095 2432 c 256,6,7
 2095 2192 2095 2192 1838 2192 c 0,8,9
 1562 2192 1562 2192 1562 2432 c 256,10,11
 1562 2672 1562 2672 1838 2672 c 0,4,5
1838 928 m 256,12,13
 2114 928 2114 928 2114 688 c 256,14,15
 2114 448 2114 448 1838 448 c 256,16,17
 1562 448 1562 448 1562 688 c 256,18,19
 1562 928 1562 928 1838 928 c 256,12,13
EndSplineSet
Substitution2: "'vert' Vertical Alternates (obs) in Hiragana & Katakana lookup 0 subtable" divide.vert
EndChar

StartChar: oslash
Encoding: 248 248 186
Width: 2696
GlyphClass: 2
Flags: W
LayerCount: 2
Back
Fore
SplineSet
1587 1568 m 1,0,1
 1458 1632 1458 1632 1311 1632 c 0,2,3
 1072 1632 1072 1632 869.5 1456 c 128,-1,4
 667 1280 667 1280 667 928 c 0,5,6
 667 656 667 656 796 496 c 1,7,-1
 1587 1568 l 1,0,1
630 224 m 1,8,9
 244 528 244 528 244 944 c 0,10,11
 244 1312 244 1312 538.5 1616 c 128,-1,12
 833 1920 833 1920 1311 1920 c 0,13,14
 1569 1920 1569 1920 1771 1840 c 1,15,-1
 2047 2256 l 1,16,-1
 2249 2144 l 1,17,-1
 1955 1728 l 1,18,19
 2397 1424 2397 1424 2397 928 c 0,20,21
 2397 528 2397 528 2093 264 c 128,-1,22
 1789 0 1789 0 1311 0 c 0,23,24
 998 0 998 0 814 112 c 1,25,-1
 520 -256 l 1,26,-1
 336 -144 l 1,27,-1
 630 224 l 1,8,9
1753 1472 m 1,28,-1
 943 336 l 1,29,30
 1127 224 1127 224 1311 224 c 0,31,32
 1550 224 1550 224 1752.5 400 c 128,-1,33
 1955 576 1955 576 1955 944 c 0,34,35
 1955 1280 1955 1280 1753 1472 c 1,28,-1
EndSplineSet
EndChar

StartChar: ugrave
Encoding: 249 249 187
Width: 2367
GlyphClass: 2
Flags: W
LayerCount: 2
Back
Fore
SplineSet
575 3248 m 1,0,-1
 1201 3248 l 1,1,-1
 1753 2544 l 1,2,-1
 1385 2544 l 1,3,-1
 575 3248 l 1,0,-1
1973 0 m 1,4,-1
 1550 0 l 1,5,-1
 1550 208 l 1,6,7
 1329 0 1329 0 906 0 c 0,8,9
 630 0 630 0 483 136 c 128,-1,10
 336 272 336 272 336 528 c 2,11,-1
 336 1920 l 1,12,-1
 759 1920 l 1,13,-1
 759 544 l 2,14,15
 759 288 759 288 1053 288 c 0,16,17
 1329 288 1329 288 1550 576 c 1,18,-1
 1550 1920 l 1,19,-1
 1973 1920 l 1,20,-1
 1973 0 l 1,4,-1
EndSplineSet
EndChar

StartChar: uacute
Encoding: 250 250 188
Width: 2366
GlyphClass: 2
Flags: W
LayerCount: 2
Back
Fore
SplineSet
1751 3248 m 1,0,-1
 942 2544 l 1,1,-1
 574 2544 l 1,2,-1
 1126 3248 l 1,3,-1
 1751 3248 l 1,0,-1
1972 0 m 1,4,-1
 1549 0 l 1,5,-1
 1549 208 l 1,6,7
 1328 0 1328 0 905 0 c 0,8,9
 629 0 629 0 482 136 c 128,-1,10
 335 272 335 272 335 528 c 2,11,-1
 335 1920 l 1,12,-1
 758 1920 l 1,13,-1
 758 544 l 2,14,15
 758 288 758 288 1052 288 c 0,16,17
 1328 288 1328 288 1549 576 c 1,18,-1
 1549 1920 l 1,19,-1
 1972 1920 l 1,20,-1
 1972 0 l 1,4,-1
EndSplineSet
EndChar

StartChar: ucircumflex
Encoding: 251 251 189
Width: 2389
GlyphClass: 2
Flags: W
LayerCount: 2
Back
Fore
SplineSet
1084 3248 m 1,0,-1
 1268 3248 l 1,1,-1
 1912 2688 l 1,2,-1
 1673 2544 l 1,3,-1
 1176 2992 l 1,4,-1
 680 2544 l 1,5,-1
 440 2688 l 1,6,-1
 1084 3248 l 1,0,-1
1986 0 m 1,7,-1
 1563 0 l 1,8,-1
 1563 208 l 1,9,10
 1342 0 1342 0 919 0 c 0,11,12
 643 0 643 0 495.5 136 c 128,-1,13
 348 272 348 272 348 528 c 2,14,-1
 348 1920 l 1,15,-1
 772 1920 l 1,16,-1
 772 544 l 2,17,18
 772 288 772 288 1066 288 c 0,19,20
 1342 288 1342 288 1563 576 c 1,21,-1
 1563 1920 l 1,22,-1
 1986 1920 l 1,23,-1
 1986 0 l 1,7,-1
EndSplineSet
EndChar

StartChar: udieresis
Encoding: 252 252 190
Width: 2466
GlyphClass: 2
Flags: W
LayerCount: 2
Back
Fore
SplineSet
323 2544 m 1,0,-1
 323 3024 l 1,1,-1
 875 3024 l 1,2,-1
 875 2544 l 1,3,-1
 323 2544 l 1,0,-1
1464 2544 m 1,4,-1
 1464 3024 l 1,5,-1
 2016 3024 l 1,6,-1
 2016 2544 l 1,7,-1
 1464 2544 l 1,4,-1
2034 0 m 1,8,-1
 1611 0 l 1,9,-1
 1611 208 l 1,10,11
 1390 0 1390 0 967 0 c 0,12,13
 691 0 691 0 544 136 c 128,-1,14
 397 272 397 272 397 528 c 2,15,-1
 397 1920 l 1,16,-1
 820 1920 l 1,17,-1
 820 544 l 2,18,19
 820 288 820 288 1114 288 c 0,20,21
 1390 288 1390 288 1611 576 c 1,22,-1
 1611 1920 l 1,23,-1
 2034 1920 l 1,24,-1
 2034 0 l 1,8,-1
EndSplineSet
EndChar

StartChar: yacute
Encoding: 253 253 191
Width: 2107
GlyphClass: 2
Flags: W
LayerCount: 2
Back
Fore
SplineSet
1580 3248 m 1,0,-1
 826 2544 l 1,1,-1
 476 2544 l 1,2,-1
 991 3248 l 1,3,-1
 1580 3248 l 1,0,-1
1948 1920 m 1,4,-1
 881 -576 l 1,5,-1
 458 -576 l 1,6,-1
 770 160 l 1,7,-1
 126 1920 l 1,8,-1
 531 1920 l 1,9,-1
 991 608 l 1,10,-1
 1525 1920 l 1,11,-1
 1948 1920 l 1,4,-1
EndSplineSet
EndChar

StartChar: thorn
Encoding: 254 254 192
Width: 2577
GlyphClass: 2
Flags: W
LayerCount: 2
Back
Fore
SplineSet
427 -464 m 1,0,-1
 427 2720 l 1,1,-1
 776 2720 l 1,2,-1
 776 1920 l 1,3,4
 1107 2128 1107 2128 1420 2128 c 0,5,6
 1807 2128 1807 2128 2046 1872 c 128,-1,7
 2285 1616 2285 1616 2285 1152 c 0,8,9
 2285 656 2285 656 2027.5 424 c 128,-1,10
 1770 192 1770 192 1402 192 c 0,11,12
 1071 192 1071 192 776 368 c 1,13,-1
 776 -464 l 1,14,-1
 427 -464 l 1,0,-1
1402 512 m 0,15,16
 1880 512 1880 512 1880 1152 c 256,17,18
 1880 1792 1880 1792 1402 1808 c 1,19,20
 1015 1808 1015 1808 776 1536 c 1,21,-1
 776 688 l 1,22,23
 1052 512 1052 512 1402 512 c 0,15,16
EndSplineSet
EndChar

StartChar: ydieresis
Encoding: 255 255 193
Width: 2221
GlyphClass: 2
Flags: W
LayerCount: 2
Back
Fore
SplineSet
261 2544 m 1,0,-1
 261 3024 l 1,1,-1
 776 3024 l 1,2,-1
 776 2544 l 1,3,-1
 261 2544 l 1,0,-1
1347 2544 m 1,4,-1
 1347 3024 l 1,5,-1
 1862 3024 l 1,6,-1
 1862 2544 l 1,7,-1
 1347 2544 l 1,4,-1
2027 1920 m 1,8,-1
 960 -576 l 1,9,-1
 537 -576 l 1,10,-1
 850 160 l 1,11,-1
 206 1920 l 1,12,-1
 611 1920 l 1,13,-1
 1071 608 l 1,14,-1
 1604 1920 l 1,15,-1
 2027 1920 l 1,8,-1
EndSplineSet
EndChar

StartChar: Amacron
Encoding: 256 256 194
Width: 2224
GlyphClass: 2
Flags: W
LayerCount: 2
Back
Fore
SplineSet
1901 2992 m 1,0,-1
 319 2992 l 1,1,-1
 319 3264 l 1,2,-1
 1901 3264 l 1,3,-1
 1901 2992 l 1,0,-1
2011 0 m 1,4,-1
 1680 0 l 1,5,-1
 1478 672 l 1,6,-1
 742 672 l 1,7,-1
 539 0 l 1,8,-1
 208 0 l 1,9,-1
 926 2352 l 1,10,-1
 1294 2352 l 1,11,-1
 2011 0 l 1,4,-1
815 960 m 1,12,-1
 1404 960 l 1,13,-1
 1110 1904 l 1,14,-1
 815 960 l 1,12,-1
EndSplineSet
EndChar

StartChar: amacron
Encoding: 257 257 195
Width: 2477
GlyphClass: 2
Flags: W
LayerCount: 2
Back
Fore
SplineSet
2142 2992 m 1,0,-1
 339 2992 l 1,1,-1
 339 3264 l 1,2,-1
 2142 3264 l 1,3,-1
 2142 2992 l 1,0,-1
2124 0 m 1,4,-1
 1793 0 l 1,5,-1
 1719 176 l 1,6,7
 1443 0 1443 0 1002 0 c 0,8,9
 339 0 339 0 339 608 c 0,10,11
 339 1280 339 1280 1314 1280 c 2,12,-1
 1682 1280 l 1,13,-1
 1682 1392 l 2,14,15
 1682 1552 1682 1552 1581 1624 c 128,-1,16
 1480 1696 1480 1696 1314 1696 c 2,17,-1
 1002 1696 l 2,18,19
 689 1696 689 1696 505 1568 c 1,20,-1
 358 1760 l 1,21,22
 652 1920 652 1920 983 1920 c 2,23,-1
 1388 1920 l 2,24,25
 1627 1920 1627 1920 1829.5 1808 c 128,-1,26
 2032 1696 2032 1696 2032 1392 c 2,27,-1
 2032 416 l 1,28,-1
 2124 0 l 1,4,-1
1682 1040 m 1,29,-1
 1314 1040 l 2,30,31
 744 1040 744 1040 726 592 c 1,32,33
 726 224 726 224 1094 224 c 0,34,35
 1388 224 1388 224 1682 432 c 1,36,-1
 1682 1040 l 1,29,-1
EndSplineSet
EndChar

StartChar: Abreve
Encoding: 258 258 196
Width: 2202
GlyphClass: 2
Flags: W
LayerCount: 2
Back
Fore
SplineSet
1930 3520 m 1,0,1
 1930 2704 1930 2704 1120 2704 c 0,2,3
 274 2704 274 2704 274 3520 c 1,4,-1
 513 3520 l 1,5,6
 513 2944 513 2944 1120 2944 c 1,7,8
 1709 2960 1709 2960 1709 3520 c 1,9,-1
 1930 3520 l 1,0,1
2003 0 m 1,10,-1
 1672 0 l 1,11,-1
 1451 672 l 1,12,-1
 715 672 l 1,13,-1
 513 0 l 1,14,-1
 200 0 l 1,15,-1
 918 2352 l 1,16,-1
 1267 2352 l 1,17,-1
 2003 0 l 1,10,-1
807 960 m 1,18,-1
 1378 960 l 1,19,-1
 1102 1904 l 1,20,-1
 807 960 l 1,18,-1
EndSplineSet
EndChar

StartChar: abreve
Encoding: 259 259 197
Width: 2418
GlyphClass: 2
Flags: W
LayerCount: 2
Back
Fore
SplineSet
2147 3520 m 1,0,1
 2147 2704 2147 2704 1227 2704 c 0,2,3
 270 2704 270 2704 270 3520 c 1,4,-1
 546 3520 l 1,5,6
 546 2944 546 2944 1227 2944 c 1,7,8
 1889 2960 1889 2960 1908 3520 c 1,9,-1
 2147 3520 l 1,0,1
2092 0 m 1,10,-1
 1761 0 l 1,11,-1
 1687 176 l 1,12,13
 1411 0 1411 0 969 0 c 0,14,15
 307 0 307 0 307 608 c 0,16,17
 307 1280 307 1280 1282 1280 c 2,18,-1
 1650 1280 l 1,19,-1
 1650 1392 l 2,20,21
 1650 1552 1650 1552 1549 1624 c 128,-1,22
 1448 1696 1448 1696 1282 1696 c 2,23,-1
 969 1696 l 2,24,25
 657 1696 657 1696 473 1568 c 1,26,-1
 325 1760 l 1,27,28
 620 1920 620 1920 951 1920 c 2,29,-1
 1356 1920 l 2,30,31
 1595 1920 1595 1920 1797.5 1808 c 128,-1,32
 2000 1696 2000 1696 2000 1392 c 2,33,-1
 2000 416 l 1,34,-1
 2092 0 l 1,10,-1
1650 1040 m 1,35,-1
 1282 1040 l 2,36,37
 712 1040 712 1040 693 592 c 1,38,39
 693 224 693 224 1061 224 c 0,40,41
 1356 224 1356 224 1650 432 c 1,42,-1
 1650 1040 l 1,35,-1
EndSplineSet
EndChar

StartChar: Aogonek
Encoding: 260 260 198
Width: 2457
GlyphClass: 2
Flags: W
LayerCount: 2
Back
Fore
SplineSet
2485 -576 m 1,0,-1
 2025 -576 l 2,1,2
 1584 -576 1584 -576 1584 -208 c 2,3,-1
 1584 0 l 1,4,-1
 1731 0 l 1,5,-1
 1510 880 l 1,6,-1
 737 880 l 1,7,-1
 516 0 l 1,8,-1
 185 0 l 1,9,-1
 940 3104 l 1,10,-1
 1326 3104 l 1,11,-1
 2080 0 l 1,12,-1
 1860 0 l 1,13,-1
 1860 -208 l 2,14,15
 1860 -352 1860 -352 2025 -352 c 2,16,-1
 2485 -352 l 1,17,-1
 2485 -576 l 1,0,-1
829 1264 m 1,18,-1
 1436 1264 l 1,19,-1
 1124 2496 l 1,20,-1
 829 1264 l 1,18,-1
EndSplineSet
EndChar

StartChar: aogonek
Encoding: 261 261 199
Width: 2556
GlyphClass: 2
Flags: W
LayerCount: 2
Back
Fore
SplineSet
2428 -576 m 1,0,-1
 2244 -576 l 2,1,2
 1765 -576 1765 -576 1765 -208 c 2,3,-1
 1765 176 l 1,4,5
 1489 0 1489 0 1011 0 c 0,6,7
 275 0 275 0 275 608 c 0,8,9
 275 1280 275 1280 1360 1280 c 2,10,-1
 1765 1280 l 1,11,-1
 1765 1392 l 2,12,13
 1765 1552 1765 1552 1654.5 1624 c 128,-1,14
 1544 1696 1544 1696 1360 1696 c 2,15,-1
 1011 1696 l 2,16,17
 680 1696 680 1696 459 1568 c 1,18,-1
 293 1760 l 1,19,20
 624 1920 624 1920 992 1920 c 2,21,-1
 1434 1920 l 2,22,23
 1710 1920 1710 1920 1931 1808 c 128,-1,24
 2152 1696 2152 1696 2152 1392 c 2,25,-1
 2152 416 l 1,26,-1
 2244 0 l 1,27,-1
 2060 0 l 1,28,-1
 2060 -208 l 2,29,30
 2060 -352 2060 -352 2244 -352 c 2,31,-1
 2428 -352 l 1,32,-1
 2428 -576 l 1,0,-1
1765 1040 m 1,33,-1
 1360 1040 l 2,34,35
 716 1040 716 1040 698 592 c 1,36,37
 698 224 698 224 1103 224 c 0,38,39
 1434 224 1434 224 1765 432 c 1,40,-1
 1765 1040 l 1,33,-1
EndSplineSet
EndChar

StartChar: Cacute
Encoding: 262 262 200
Width: 2265
GlyphClass: 2
Flags: W
LayerCount: 2
Back
Fore
SplineSet
1955 752 m 1,0,1
 1955 432 1955 432 1762 216 c 128,-1,2
 1569 0 1569 0 1311 0 c 2,3,-1
 1035 0 l 2,4,5
 281 0 281 0 281 1168 c 2,6,-1
 281 1248 l 2,7,8
 281 2352 281 2352 1035 2352 c 2,9,-1
 1293 2352 l 2,10,11
 1587 2352 1587 2352 1771 2152 c 128,-1,12
 1955 1952 1955 1952 1955 1600 c 1,13,-1
 1642 1600 l 1,14,15
 1642 1776 1642 1776 1541 1920 c 128,-1,16
 1440 2064 1440 2064 1164 2064 c 0,17,18
 630 2064 630 2064 630 1264 c 2,19,-1
 630 1168 l 2,20,21
 630 288 630 288 1164 288 c 0,22,23
 1403 288 1403 288 1513.5 424 c 128,-1,24
 1624 560 1624 560 1642 752 c 1,25,-1
 1955 752 l 1,0,1
1661 3520 m 1,26,-1
 998 2720 l 1,27,-1
 685 2720 l 1,28,-1
 1145 3520 l 1,29,-1
 1661 3520 l 1,26,-1
EndSplineSet
EndChar

StartChar: cacute
Encoding: 263 263 201
Width: 2434
GlyphClass: 2
Flags: W
LayerCount: 2
Back
Fore
SplineSet
2134 576 m 1,0,1
 2134 336 2134 336 1922.5 168 c 128,-1,2
 1711 0 1711 0 1417 0 c 2,3,-1
 1104 0 l 2,4,5
 258 0 258 0 258 896 c 2,6,-1
 258 1040 l 2,7,8
 258 1904 258 1904 1122 1920 c 1,9,-1
 1398 1920 l 2,10,11
 1730 1920 1730 1920 1932 1752 c 128,-1,12
 2134 1584 2134 1584 2134 1328 c 1,13,-1
 1785 1328 l 1,14,15
 1785 1456 1785 1456 1674.5 1552 c 128,-1,16
 1564 1648 1564 1648 1251 1648 c 0,17,18
 644 1648 644 1648 644 1056 c 2,19,-1
 644 912 l 2,20,21
 644 272 644 272 1251 272 c 0,22,23
 1527 272 1527 272 1646.5 352 c 128,-1,24
 1766 432 1766 432 1785 576 c 1,25,-1
 2134 576 l 1,0,1
1748 3520 m 1,26,-1
 1012 2720 l 1,27,-1
 662 2720 l 1,28,-1
 1178 3520 l 1,29,-1
 1748 3520 l 1,26,-1
EndSplineSet
EndChar

StartChar: Ccircumflex
Encoding: 264 264 202
Width: 2270
GlyphClass: 2
Flags: W
LayerCount: 2
Back
Fore
SplineSet
1956 752 m 1,0,1
 1956 432 1956 432 1772 216 c 128,-1,2
 1588 0 1588 0 1312 0 c 2,3,-1
 1036 0 l 2,4,5
 300 0 300 0 300 1168 c 2,6,-1
 300 1248 l 2,7,8
 300 2352 300 2352 1055 2352 c 2,9,-1
 1312 2352 l 2,10,11
 1588 2352 1588 2352 1772 2152 c 128,-1,12
 1956 1952 1956 1952 1956 1600 c 1,13,-1
 1643 1600 l 1,14,15
 1643 1776 1643 1776 1542 1920 c 128,-1,16
 1441 2064 1441 2064 1165 2064 c 0,17,18
 631 2064 631 2064 631 1264 c 2,19,-1
 631 1168 l 2,20,21
 631 288 631 288 1165 288 c 0,22,23
 1423 288 1423 288 1524 424 c 128,-1,24
 1625 560 1625 560 1643 752 c 1,25,-1
 1956 752 l 1,0,1
981 3520 m 1,26,-1
 1128 3520 l 1,27,-1
 1662 2832 l 1,28,-1
 1459 2672 l 1,29,-1
 1055 3216 l 1,30,-1
 650 2672 l 1,31,-1
 447 2832 l 1,32,-1
 981 3520 l 1,26,-1
EndSplineSet
EndChar

StartChar: ccircumflex
Encoding: 265 265 203
Width: 2447
GlyphClass: 2
Flags: W
LayerCount: 2
Back
Fore
SplineSet
1113 3520 m 1,0,-1
 1279 3520 l 1,1,-1
 1868 2832 l 1,2,-1
 1647 2672 l 1,3,-1
 1187 3216 l 1,4,-1
 727 2672 l 1,5,-1
 506 2832 l 1,6,-1
 1113 3520 l 1,0,-1
2144 576 m 1,7,8
 2144 336 2144 336 1932 168 c 128,-1,9
 1720 0 1720 0 1426 0 c 2,10,-1
 1113 0 l 2,11,12
 267 0 267 0 267 896 c 2,13,-1
 267 1040 l 2,14,15
 267 1904 267 1904 1132 1920 c 1,16,-1
 1408 1920 l 2,17,18
 1739 1920 1739 1920 1941.5 1752 c 128,-1,19
 2144 1584 2144 1584 2144 1328 c 1,20,-1
 1794 1328 l 1,21,22
 1794 1456 1794 1456 1683.5 1552 c 128,-1,23
 1573 1648 1573 1648 1260 1648 c 0,24,25
 653 1648 653 1648 653 1056 c 2,26,-1
 653 912 l 2,27,28
 653 272 653 272 1260 272 c 0,29,30
 1536 272 1536 272 1656 352 c 128,-1,31
 1776 432 1776 432 1794 576 c 1,32,-1
 2144 576 l 1,7,8
EndSplineSet
EndChar

StartChar: Cdotaccent
Encoding: 266 266 204
Width: 3037
GlyphClass: 2
Flags: W
LayerCount: 2
Back
Fore
SplineSet
2739 752 m 1,0,1
 2739 432 2739 432 2454 216 c 128,-1,2
 2169 0 2169 0 1782 0 c 2,3,-1
 1378 0 l 2,4,5
 255 0 255 0 255 1168 c 2,6,-1
 255 1248 l 2,7,8
 255 2352 255 2352 1378 2352 c 2,9,-1
 1764 2352 l 2,10,11
 2206 2352 2206 2352 2472.5 2152 c 128,-1,12
 2739 1952 2739 1952 2739 1600 c 1,13,-1
 2279 1600 l 1,14,15
 2279 1776 2279 1776 2132 1920 c 128,-1,16
 1985 2064 1985 2064 1562 2064 c 0,17,18
 752 2064 752 2064 752 1264 c 2,19,-1
 752 1168 l 2,20,21
 752 288 752 288 1562 288 c 0,22,23
 1930 288 1930 288 2086 424 c 128,-1,24
 2242 560 2242 560 2279 752 c 1,25,-1
 2739 752 l 1,0,1
1194 2720 m 1,26,-1
 1194 3536 l 1,27,-1
 1930 3536 l 1,28,-1
 1930 2720 l 1,29,-1
 1194 2720 l 1,26,-1
EndSplineSet
EndChar

StartChar: cdotaccent
Encoding: 267 267 205
Width: 2432
GlyphClass: 2
Flags: W
LayerCount: 2
Back
Fore
SplineSet
919 2720 m 1,0,-1
 919 3536 l 1,1,-1
 1471 3536 l 1,2,-1
 1471 2720 l 1,3,-1
 919 2720 l 1,0,-1
2133 576 m 1,4,5
 2133 336 2133 336 1921.5 168 c 128,-1,6
 1710 0 1710 0 1416 0 c 2,7,-1
 1103 0 l 2,8,9
 256 0 256 0 256 896 c 2,10,-1
 256 1040 l 2,11,12
 256 1904 256 1904 1121 1920 c 1,13,-1
 1397 1920 l 2,14,15
 1728 1920 1728 1920 1930.5 1752 c 128,-1,16
 2133 1584 2133 1584 2133 1328 c 1,17,-1
 1784 1328 l 1,18,19
 1784 1456 1784 1456 1673.5 1552 c 128,-1,20
 1563 1648 1563 1648 1250 1648 c 0,21,22
 643 1648 643 1648 643 1056 c 2,23,-1
 643 912 l 2,24,25
 643 272 643 272 1250 272 c 0,26,27
 1526 272 1526 272 1645.5 352 c 128,-1,28
 1765 432 1765 432 1784 576 c 1,29,-1
 2133 576 l 1,4,5
EndSplineSet
EndChar

StartChar: Ccaron
Encoding: 268 268 206
Width: 2263
GlyphClass: 2
Flags: W
LayerCount: 2
Back
Fore
SplineSet
1935 752 m 1,0,1
 1935 432 1935 432 1751 216 c 128,-1,2
 1567 0 1567 0 1291 0 c 2,3,-1
 1015 0 l 2,4,5
 279 0 279 0 279 1168 c 2,6,-1
 279 1248 l 2,7,8
 279 2352 279 2352 1034 2352 c 2,9,-1
 1291 2352 l 2,10,11
 1567 2352 1567 2352 1751 2152 c 128,-1,12
 1935 1952 1935 1952 1935 1600 c 1,13,-1
 1623 1600 l 1,14,15
 1623 1776 1623 1776 1531 1920 c 128,-1,16
 1439 2064 1439 2064 1144 2064 c 0,17,18
 611 2064 611 2064 611 1264 c 2,19,-1
 611 1168 l 2,20,21
 611 288 611 288 1144 288 c 0,22,23
 1402 288 1402 288 1503 424 c 128,-1,24
 1604 560 1604 560 1623 752 c 1,25,-1
 1935 752 l 1,0,1
1365 2656 m 1,26,-1
 1199 2656 l 1,27,-1
 684 3344 l 1,28,-1
 868 3520 l 1,29,-1
 1273 2960 l 1,30,-1
 1696 3520 l 1,31,-1
 1880 3344 l 1,32,-1
 1365 2656 l 1,26,-1
EndSplineSet
EndChar

StartChar: ccaron
Encoding: 269 269 207
Width: 2440
GlyphClass: 2
Flags: W
LayerCount: 2
Back
Fore
SplineSet
1380 2656 m 1,0,-1
 1196 2656 l 1,1,-1
 607 3344 l 1,2,-1
 828 3520 l 1,3,-1
 1288 2960 l 1,4,-1
 1748 3520 l 1,5,-1
 1969 3344 l 1,6,-1
 1380 2656 l 1,0,-1
2134 576 m 1,7,8
 2134 336 2134 336 1922.5 168 c 128,-1,9
 1711 0 1711 0 1417 0 c 2,10,-1
 1104 0 l 2,11,12
 258 0 258 0 258 896 c 2,13,-1
 258 1040 l 2,14,15
 258 1904 258 1904 1122 1920 c 1,16,-1
 1398 1920 l 2,17,18
 1730 1920 1730 1920 1932 1752 c 128,-1,19
 2134 1584 2134 1584 2134 1328 c 1,20,-1
 1785 1328 l 1,21,22
 1785 1456 1785 1456 1674.5 1552 c 128,-1,23
 1564 1648 1564 1648 1251 1648 c 0,24,25
 644 1648 644 1648 644 1056 c 2,26,-1
 644 912 l 2,27,28
 644 272 644 272 1251 272 c 0,29,30
 1527 272 1527 272 1646.5 352 c 128,-1,31
 1766 432 1766 432 1785 576 c 1,32,-1
 2134 576 l 1,7,8
EndSplineSet
EndChar

StartChar: Dcaron
Encoding: 270 270 208
Width: 3092
GlyphClass: 2
Flags: W
LayerCount: 2
Back
Fore
SplineSet
392 2352 m 1,0,-1
 1441 2352 l 2,1,2
 2766 2352 2766 2352 2803 1184 c 1,3,4
 2803 0 2803 0 1423 0 c 2,5,-1
 392 0 l 1,6,-1
 392 2352 l 1,0,-1
779 224 m 1,7,-1
 1423 224 l 2,8,9
 2379 224 2379 224 2379 1184 c 0,10,11
 2379 2128 2379 2128 1423 2128 c 2,12,-1
 779 2128 l 1,13,-1
 779 224 l 1,7,-1
1680 2656 m 1,14,-1
 1533 2656 l 1,15,-1
 1018 3344 l 1,16,-1
 1202 3520 l 1,17,-1
 1607 2960 l 1,18,-1
 2011 3520 l 1,19,-1
 2195 3344 l 1,20,-1
 1680 2656 l 1,14,-1
EndSplineSet
EndChar

StartChar: dcaron
Encoding: 271 271 209
Width: 2691
GlyphClass: 2
Flags: W
LayerCount: 2
Back
Fore
SplineSet
1623 0 m 1,0,-1
 1310 0 l 1,1,-1
 1310 128 l 1,2,3
 1181 0 1181 0 1034 0 c 2,4,-1
 850 0 l 2,5,6
 298 0 298 0 298 1088 c 2,7,-1
 298 1248 l 2,8,9
 298 2352 298 2352 850 2352 c 2,10,-1
 1034 2352 l 2,11,12
 1199 2352 1199 2352 1310 2224 c 1,13,-1
 1310 3520 l 1,14,-1
 1623 3520 l 1,15,-1
 1623 0 l 1,0,-1
1310 464 m 1,16,-1
 1310 1872 l 1,17,18
 1199 2064 1199 2064 1034 2064 c 0,19,20
 611 2064 611 2064 611 1248 c 2,21,-1
 611 1088 l 2,22,23
 611 288 611 288 1015 288 c 0,24,25
 1181 288 1181 288 1310 464 c 1,16,-1
2469 3104 m 1,26,-1
 2469 2512 l 2,27,28
 2469 1760 2469 1760 2046 1728 c 1,29,-1
 2046 2016 l 1,30,31
 2248 2016 2248 2016 2248 2528 c 1,32,-1
 2046 2528 l 1,33,-1
 2046 3104 l 1,34,-1
 2469 3104 l 1,26,-1
EndSplineSet
EndChar

StartChar: Dcroat
Encoding: 272 272 210
Width: 3216
GlyphClass: 2
Flags: W
LayerCount: 2
Back
Fore
SplineSet
484 3104 m 1,0,-1
 1533 3104 l 2,1,2
 2876 3104 2876 3104 2895 1552 c 1,3,4
 2895 0 2895 0 1515 0 c 2,5,-1
 484 0 l 1,6,-1
 484 1424 l 1,7,-1
 208 1424 l 1,8,-1
 208 1696 l 1,9,-1
 484 1696 l 1,10,-1
 484 3104 l 1,0,-1
871 304 m 1,11,-1
 1515 304 l 2,12,13
 2490 304 2490 304 2490 1552 c 0,14,15
 2490 2816 2490 2816 1515 2816 c 2,16,-1
 871 2816 l 1,17,-1
 871 1696 l 1,18,-1
 1625 1696 l 1,19,-1
 1625 1424 l 1,20,-1
 871 1424 l 1,21,-1
 871 304 l 1,11,-1
EndSplineSet
EndChar

StartChar: dcroat
Encoding: 273 273 211
Width: 2112
GlyphClass: 2
Flags: W
LayerCount: 2
Back
Fore
SplineSet
1484 0 m 1,0,-1
 1208 0 l 1,1,-1
 1208 128 l 1,2,3
 1097 0 1097 0 968 0 c 2,4,-1
 803 0 l 2,5,6
 306 0 306 0 306 1088 c 2,7,-1
 306 1248 l 2,8,9
 306 2352 306 2352 803 2352 c 2,10,-1
 968 2352 l 2,11,12
 1116 2352 1116 2352 1208 2224 c 1,13,-1
 1208 2736 l 1,14,-1
 692 2736 l 1,15,-1
 692 3008 l 1,16,-1
 1208 3008 l 1,17,-1
 1208 3520 l 1,18,-1
 1484 3520 l 1,19,-1
 1484 3008 l 1,20,-1
 2036 3008 l 1,21,-1
 2036 2736 l 1,22,-1
 1484 2736 l 1,23,-1
 1484 0 l 1,0,-1
1208 464 m 1,24,-1
 1208 1872 l 1,25,26
 1116 2064 1116 2064 968 2064 c 0,27,28
 600 2064 600 2064 600 1248 c 2,29,-1
 600 1088 l 2,30,31
 600 288 600 288 950 288 c 0,32,33
 1097 288 1097 288 1208 464 c 1,24,-1
EndSplineSet
EndChar

StartChar: Emacron
Encoding: 274 274 212
Width: 2233
GlyphClass: 2
Flags: W
LayerCount: 2
Back
Fore
SplineSet
1915 2352 m 1,0,-1
 1915 2080 l 1,1,-1
 737 2080 l 1,2,-1
 737 1376 l 1,3,-1
 1712 1376 l 1,4,-1
 1712 1088 l 1,5,-1
 737 1088 l 1,6,-1
 737 272 l 1,7,-1
 1915 272 l 1,8,-1
 1915 0 l 1,9,-1
 443 0 l 1,10,-1
 443 2352 l 1,11,-1
 1915 2352 l 1,0,-1
1878 2992 m 1,12,-1
 443 2992 l 1,13,-1
 443 3264 l 1,14,-1
 1878 3264 l 1,15,-1
 1878 2992 l 1,12,-1
EndSplineSet
EndChar

StartChar: emacron
Encoding: 275 275 213
Width: 2505
GlyphClass: 2
Flags: W
LayerCount: 2
Back
Fore
SplineSet
748 1056 m 1,0,1
 729 896 729 896 748 752 c 0,2,3
 784 464 784 464 931.5 344 c 128,-1,4
 1079 224 1079 224 1263 224 c 256,5,6
 1447 224 1447 224 1585 288 c 128,-1,7
 1723 352 1723 352 1833 512 c 1,8,-1
 2128 368 l 1,9,10
 2017 192 2017 192 1833 96 c 128,-1,11
 1649 0 1649 0 1373 0 c 2,12,-1
 1171 0 l 2,13,14
 803 0 803 0 573 208 c 128,-1,15
 343 416 343 416 343 896 c 2,16,-1
 343 1088 l 2,17,18
 343 1536 343 1536 582 1728 c 128,-1,19
 821 1920 821 1920 1152 1920 c 2,20,-1
 1373 1920 l 2,21,22
 1686 1920 1686 1920 1916 1728 c 128,-1,23
 2146 1536 2146 1536 2146 1280 c 2,24,-1
 2146 1056 l 1,25,-1
 748 1056 l 1,0,1
1760 1280 m 1,26,27
 1741 1456 1741 1456 1630.5 1568 c 128,-1,28
 1520 1680 1520 1680 1263 1680 c 0,29,30
 987 1680 987 1680 885.5 1560 c 128,-1,31
 784 1440 784 1440 766 1280 c 1,32,-1
 1760 1280 l 1,26,27
2183 2992 m 1,33,-1
 306 2992 l 1,34,-1
 306 3264 l 1,35,-1
 2183 3264 l 1,36,-1
 2183 2992 l 1,33,-1
EndSplineSet
EndChar

StartChar: Ebreve
Encoding: 276 276 214
Width: 2922
GlyphClass: 2
Flags: W
LayerCount: 2
Back
Fore
SplineSet
2625 2352 m 1,0,-1
 2625 2080 l 1,1,-1
 859 2080 l 1,2,-1
 859 1376 l 1,3,-1
 2331 1376 l 1,4,-1
 2331 1088 l 1,5,-1
 859 1088 l 1,6,-1
 859 272 l 1,7,-1
 2625 272 l 1,8,-1
 2625 0 l 1,9,-1
 417 0 l 1,10,-1
 417 2352 l 1,11,-1
 2625 2352 l 1,0,-1
2625 3520 m 1,12,13
 2625 2704 2625 2704 1521 2704 c 0,14,15
 399 2704 399 2704 399 3520 c 1,16,-1
 712 3520 l 1,17,18
 730 2944 730 2944 1521 2944 c 1,19,20
 2313 2960 2313 2960 2331 3520 c 1,21,-1
 2625 3520 l 1,12,13
EndSplineSet
EndChar

StartChar: ebreve
Encoding: 277 277 215
Width: 2441
GlyphClass: 2
Flags: W
LayerCount: 2
Back
Fore
SplineSet
719 1056 m 1,0,1
 700 896 700 896 719 752 c 0,2,3
 756 464 756 464 903 344 c 128,-1,4
 1050 224 1050 224 1234 224 c 256,5,6
 1418 224 1418 224 1556 288 c 128,-1,7
 1694 352 1694 352 1804 512 c 1,8,-1
 2099 368 l 1,9,10
 1988 192 1988 192 1804 96 c 128,-1,11
 1620 0 1620 0 1344 0 c 2,12,-1
 1142 0 l 2,13,14
 774 0 774 0 544 208 c 128,-1,15
 314 416 314 416 314 896 c 2,16,-1
 314 1088 l 2,17,18
 314 1536 314 1536 553 1728 c 128,-1,19
 792 1920 792 1920 1124 1920 c 2,20,-1
 1344 1920 l 2,21,22
 1657 1920 1657 1920 1887 1728 c 128,-1,23
 2117 1536 2117 1536 2117 1280 c 2,24,-1
 2117 1056 l 1,25,-1
 719 1056 l 1,0,1
1731 1280 m 1,26,27
 1712 1456 1712 1456 1602 1568 c 128,-1,28
 1492 1680 1492 1680 1234 1680 c 0,29,30
 958 1680 958 1680 857 1560 c 128,-1,31
 756 1440 756 1440 737 1280 c 1,32,-1
 1731 1280 l 1,26,27
2209 3520 m 1,33,34
 2209 2704 2209 2704 1234 2704 c 0,35,36
 222 2704 222 2704 222 3520 c 1,37,-1
 516 3520 l 1,38,39
 516 2944 516 2944 1234 2944 c 1,40,41
 1933 2960 1933 2960 1952 3520 c 1,42,-1
 2209 3520 l 1,33,34
EndSplineSet
EndChar

StartChar: Edotaccent
Encoding: 278 278 216
Width: 2856
GlyphClass: 2
Flags: W
LayerCount: 2
Back
Fore
SplineSet
2601 2352 m 1,0,-1
 2601 2080 l 1,1,-1
 835 2080 l 1,2,-1
 835 1376 l 1,3,-1
 2307 1376 l 1,4,-1
 2307 1088 l 1,5,-1
 835 1088 l 1,6,-1
 835 272 l 1,7,-1
 2601 272 l 1,8,-1
 2601 0 l 1,9,-1
 393 0 l 1,10,-1
 393 2352 l 1,11,-1
 2601 2352 l 1,0,-1
1184 2720 m 1,12,-1
 1184 3536 l 1,13,-1
 1810 3536 l 1,14,-1
 1810 2720 l 1,15,-1
 1184 2720 l 1,12,-1
EndSplineSet
EndChar

StartChar: edotaccent
Encoding: 279 279 217
Width: 2362
GlyphClass: 2
Flags: W
LayerCount: 2
Back
Fore
SplineSet
666 1056 m 1,0,1
 647 896 647 896 666 752 c 0,2,3
 703 464 703 464 850 344 c 128,-1,4
 997 224 997 224 1181 224 c 256,5,6
 1365 224 1365 224 1503 288 c 128,-1,7
 1641 352 1641 352 1751 512 c 1,8,-1
 2046 368 l 1,9,10
 1935 192 1935 192 1751 96 c 128,-1,11
 1567 0 1567 0 1291 0 c 2,12,-1
 1089 0 l 2,13,14
 721 0 721 0 491 208 c 128,-1,15
 261 416 261 416 261 896 c 2,16,-1
 261 1088 l 2,17,18
 261 1536 261 1536 500 1728 c 128,-1,19
 739 1920 739 1920 1071 1920 c 2,20,-1
 1291 1920 l 2,21,22
 1604 1920 1604 1920 1834 1728 c 128,-1,23
 2064 1536 2064 1536 2064 1280 c 2,24,-1
 2064 1056 l 1,25,-1
 666 1056 l 1,0,1
1678 1280 m 1,26,27
 1659 1456 1659 1456 1549 1568 c 128,-1,28
 1439 1680 1439 1680 1181 1680 c 0,29,30
 905 1680 905 1680 804 1560 c 128,-1,31
 703 1440 703 1440 684 1280 c 1,32,-1
 1678 1280 l 1,26,27
868 2720 m 1,33,-1
 868 3536 l 1,34,-1
 1420 3536 l 1,35,-1
 1420 2720 l 1,36,-1
 868 2720 l 1,33,-1
EndSplineSet
EndChar

StartChar: Eogonek
Encoding: 280 280 218
Width: 2145
GlyphClass: 2
Flags: W
LayerCount: 2
Back
Fore
SplineSet
2007 -576 m 1,0,-1
 1620 -576 l 2,1,2
 1234 -576 1234 -576 1234 -208 c 2,3,-1
 1234 0 l 1,4,-1
 443 0 l 1,5,-1
 443 3104 l 1,6,-1
 1915 3104 l 1,7,-1
 1915 2800 l 1,8,-1
 737 2800 l 1,9,-1
 737 1808 l 1,10,-1
 1731 1808 l 1,11,-1
 1731 1504 l 1,12,-1
 737 1504 l 1,13,-1
 737 304 l 1,14,-1
 1915 304 l 1,15,-1
 1915 0 l 1,16,-1
 1473 0 l 1,17,-1
 1473 -208 l 2,18,19
 1473 -352 1473 -352 1620 -352 c 2,20,-1
 2007 -352 l 1,21,-1
 2007 -576 l 1,0,-1
EndSplineSet
EndChar

StartChar: eogonek
Encoding: 281 281 219
Width: 2403
GlyphClass: 2
Flags: W
LayerCount: 2
Back
Fore
SplineSet
1953 -576 m 1,0,-1
 1493 -576 l 2,1,2
 978 -576 978 -576 978 -192 c 2,3,-1
 978 0 l 1,4,5
 702 32 702 32 490 232 c 128,-1,6
 278 432 278 432 278 896 c 2,7,-1
 278 1088 l 2,8,9
 278 1536 278 1536 517.5 1728 c 128,-1,10
 757 1920 757 1920 1088 1920 c 2,11,-1
 1309 1920 l 2,12,13
 1622 1920 1622 1920 1852 1728 c 128,-1,14
 2082 1536 2082 1536 2082 1280 c 2,15,-1
 2082 1056 l 1,16,-1
 683 1056 l 1,17,18
 665 896 665 896 683 752 c 0,19,20
 720 464 720 464 867 352 c 128,-1,21
 1014 240 1014 240 1198 240 c 256,22,23
 1382 240 1382 240 1520 296 c 128,-1,24
 1658 352 1658 352 1769 528 c 1,25,-1
 2063 368 l 1,26,27
 1953 208 1953 208 1769 96 c 128,-1,28
 1585 -16 1585 -16 1309 -16 c 1,29,-1
 1309 -192 l 2,30,31
 1309 -336 1309 -336 1493 -336 c 2,32,-1
 1953 -336 l 1,33,-1
 1953 -576 l 1,0,-1
1695 1280 m 1,34,35
 1677 1456 1677 1456 1566.5 1568 c 128,-1,36
 1456 1680 1456 1680 1198 1680 c 0,37,38
 922 1680 922 1680 821 1560 c 128,-1,39
 720 1440 720 1440 702 1280 c 1,40,-1
 1695 1280 l 1,34,35
EndSplineSet
EndChar

StartChar: Ecaron
Encoding: 282 282 220
Width: 2139
GlyphClass: 2
Flags: W
LayerCount: 2
Back
Fore
SplineSet
1866 2352 m 1,0,-1
 1866 2080 l 1,1,-1
 689 2080 l 1,2,-1
 689 1376 l 1,3,-1
 1664 1376 l 1,4,-1
 1664 1088 l 1,5,-1
 689 1088 l 1,6,-1
 689 272 l 1,7,-1
 1866 272 l 1,8,-1
 1866 0 l 1,9,-1
 394 0 l 1,10,-1
 394 2352 l 1,11,-1
 1866 2352 l 1,0,-1
1278 2656 m 1,12,-1
 1149 2656 l 1,13,-1
 689 3344 l 1,14,-1
 854 3520 l 1,15,-1
 1204 2960 l 1,16,-1
 1554 3520 l 1,17,-1
 1719 3344 l 1,18,-1
 1278 2656 l 1,12,-1
EndSplineSet
EndChar

StartChar: ecaron
Encoding: 283 283 221
Width: 2370
GlyphClass: 2
Flags: W
LayerCount: 2
Back
Fore
SplineSet
670 1056 m 1,0,1
 652 896 652 896 670 752 c 0,2,3
 707 464 707 464 854.5 344 c 128,-1,4
 1002 224 1002 224 1186 224 c 256,5,6
 1370 224 1370 224 1508 288 c 128,-1,7
 1646 352 1646 352 1756 512 c 1,8,-1
 2050 368 l 1,9,10
 1940 192 1940 192 1756 96 c 128,-1,11
 1572 0 1572 0 1296 0 c 2,12,-1
 1094 0 l 2,13,14
 726 0 726 0 496 208 c 128,-1,15
 266 416 266 416 266 896 c 2,16,-1
 266 1088 l 2,17,18
 266 1536 266 1536 505 1728 c 128,-1,19
 744 1920 744 1920 1075 1920 c 2,20,-1
 1296 1920 l 2,21,22
 1609 1920 1609 1920 1839 1728 c 128,-1,23
 2069 1536 2069 1536 2069 1280 c 2,24,-1
 2069 1056 l 1,25,-1
 670 1056 l 1,0,1
1682 1280 m 1,26,27
 1664 1456 1664 1456 1553.5 1568 c 128,-1,28
 1443 1680 1443 1680 1186 1680 c 0,29,30
 910 1680 910 1680 808.5 1560 c 128,-1,31
 707 1440 707 1440 689 1280 c 1,32,-1
 1682 1280 l 1,26,27
1259 2656 m 1,33,-1
 1075 2656 l 1,34,-1
 486 3344 l 1,35,-1
 707 3520 l 1,36,-1
 1167 2960 l 1,37,-1
 1627 3520 l 1,38,-1
 1848 3344 l 1,39,-1
 1259 2656 l 1,33,-1
EndSplineSet
EndChar

StartChar: Gcircumflex
Encoding: 284 284 222
Width: 2792
GlyphClass: 2
Flags: W
LayerCount: 2
Back
Fore
SplineSet
2412 0 m 1,0,-1
 2099 0 l 1,1,-1
 2099 208 l 1,2,3
 1878 0 1878 0 1547 0 c 2,4,-1
 1252 0 l 2,5,6
 259 0 259 0 259 1168 c 0,7,8
 259 2352 259 2352 1234 2352 c 2,9,-1
 1547 2352 l 2,10,11
 1933 2352 1933 2352 2154 2216 c 128,-1,12
 2375 2080 2375 2080 2412 1824 c 1,13,-1
 2080 1824 l 1,14,15
 2062 1936 2062 1936 1942.5 2032 c 128,-1,16
 1823 2128 1823 2128 1565 2128 c 2,17,-1
 1234 2128 l 2,18,19
 608 2128 608 2128 608 1168 c 0,20,21
 608 224 608 224 1252 224 c 2,22,-1
 1547 224 l 2,23,24
 1860 224 1860 224 2099 528 c 1,25,-1
 2099 1152 l 1,26,-1
 1620 1152 l 1,27,-1
 1620 1360 l 1,28,-1
 2412 1360 l 1,29,-1
 2412 0 l 1,0,-1
1289 3520 m 1,30,-1
 1436 3520 l 1,31,-1
 1952 2832 l 1,32,-1
 1768 2672 l 1,33,-1
 1363 3216 l 1,34,-1
 940 2672 l 1,35,-1
 756 2832 l 1,36,-1
 1289 3520 l 1,30,-1
EndSplineSet
EndChar

StartChar: gcircumflex
Encoding: 285 285 223
Width: 2193
GlyphClass: 2
Flags: W
LayerCount: 2
Back
Fore
SplineSet
430 -224 m 1,0,1
 743 -304 743 -304 991.5 -304 c 128,-1,2
 1240 -304 1240 -304 1332 -192 c 128,-1,3
 1424 -80 1424 -80 1424 96 c 1,4,5
 1258 -16 1258 -16 1056 -16 c 2,6,-1
 890 -16 l 2,7,8
 301 -16 301 -16 301 816 c 2,9,-1
 301 1024 l 1,10,11
 320 1920 320 1920 890 1920 c 2,12,-1
 1056 1920 l 2,13,14
 1258 1920 1258 1920 1424 1792 c 1,15,-1
 1424 1920 l 1,16,-1
 1773 1920 l 1,17,-1
 1773 224 l 2,18,19
 1773 -144 1773 -144 1598.5 -360 c 128,-1,20
 1424 -576 1424 -576 1037 -576 c 0,21,22
 724 -576 724 -576 430 -512 c 1,23,-1
 430 -224 l 1,0,1
651 832 m 2,24,25
 651 224 651 224 1056 224 c 0,26,27
 1258 224 1258 224 1424 384 c 1,28,-1
 1424 1488 l 1,29,30
 1258 1664 1258 1664 1056 1664 c 0,31,32
 651 1664 651 1664 651 1024 c 2,33,-1
 651 832 l 2,24,25
1037 3520 m 1,34,-1
 1184 3520 l 1,35,-1
 1736 2832 l 1,36,-1
 1534 2672 l 1,37,-1
 1111 3216 l 1,38,-1
 688 2672 l 1,39,-1
 485 2832 l 1,40,-1
 1037 3520 l 1,34,-1
EndSplineSet
EndChar

StartChar: Gbreve
Encoding: 286 286 224
Width: 2810
GlyphClass: 2
Flags: W
LayerCount: 2
Back
Fore
SplineSet
2418 0 m 1,0,-1
 2106 0 l 1,1,-1
 2106 208 l 1,2,3
 1885 0 1885 0 1572 0 c 2,4,-1
 1259 0 l 2,5,6
 266 0 266 0 266 1168 c 0,7,8
 266 2352 266 2352 1241 2352 c 2,9,-1
 1572 2352 l 2,10,11
 1940 2352 1940 2352 2161 2216 c 128,-1,12
 2382 2080 2382 2080 2418 1824 c 1,13,-1
 2087 1824 l 1,14,15
 2087 1936 2087 1936 1958.5 2032 c 128,-1,16
 1830 2128 1830 2128 1572 2128 c 2,17,-1
 1241 2128 l 2,18,19
 615 2128 615 2128 615 1168 c 0,20,21
 615 224 615 224 1259 224 c 2,22,-1
 1572 224 l 2,23,24
 1866 224 1866 224 2106 528 c 1,25,-1
 2106 1152 l 1,26,-1
 1627 1152 l 1,27,-1
 1627 1360 l 1,28,-1
 2418 1360 l 1,29,-1
 2418 0 l 1,0,-1
2271 3520 m 1,30,31
 2271 2704 2271 2704 1406 2704 c 0,32,33
 523 2704 523 2704 523 3520 c 1,34,-1
 762 3520 l 1,35,36
 781 2944 781 2944 1406 2944 c 1,37,38
 2032 2960 2032 2960 2050 3520 c 1,39,-1
 2271 3520 l 1,30,31
EndSplineSet
EndChar

StartChar: gbreve
Encoding: 287 287 225
Width: 2224
GlyphClass: 2
Flags: W
LayerCount: 2
Back
Fore
SplineSet
2044 3520 m 1,0,1
 2044 2704 2044 2704 1142 2704 c 0,2,3
 204 2704 204 2704 204 3520 c 1,4,-1
 480 3520 l 1,5,6
 480 2944 480 2944 1142 2944 c 1,7,8
 1786 2960 1786 2960 1804 3520 c 1,9,-1
 2044 3520 l 1,0,1
461 -224 m 1,10,11
 774 -304 774 -304 1022.5 -304 c 128,-1,12
 1271 -304 1271 -304 1363 -192 c 128,-1,13
 1455 -80 1455 -80 1455 96 c 1,14,15
 1289 -16 1289 -16 1087 -16 c 2,16,-1
 921 -16 l 2,17,18
 332 -16 332 -16 332 816 c 2,19,-1
 332 1024 l 1,20,21
 351 1920 351 1920 921 1920 c 2,22,-1
 1087 1920 l 2,23,24
 1289 1920 1289 1920 1455 1792 c 1,25,-1
 1455 1920 l 1,26,-1
 1804 1920 l 1,27,-1
 1804 224 l 2,28,29
 1804 -144 1804 -144 1629.5 -360 c 128,-1,30
 1455 -576 1455 -576 1068 -576 c 0,31,32
 756 -576 756 -576 461 -512 c 1,33,-1
 461 -224 l 1,10,11
682 832 m 2,34,35
 682 224 682 224 1087 224 c 0,36,37
 1289 224 1289 224 1455 384 c 1,38,-1
 1455 1488 l 1,39,40
 1289 1664 1289 1664 1087 1664 c 0,41,42
 682 1664 682 1664 682 1024 c 2,43,-1
 682 832 l 2,34,35
EndSplineSet
EndChar

StartChar: Gdotaccent
Encoding: 288 288 226
Width: 2792
GlyphClass: 2
Flags: W
LayerCount: 2
Back
Fore
SplineSet
2412 0 m 1,0,-1
 2099 0 l 1,1,-1
 2099 208 l 1,2,3
 1878 0 1878 0 1547 0 c 2,4,-1
 1252 0 l 2,5,6
 259 0 259 0 259 1168 c 0,7,8
 259 2352 259 2352 1234 2352 c 2,9,-1
 1547 2352 l 2,10,11
 1933 2352 1933 2352 2154 2216 c 128,-1,12
 2375 2080 2375 2080 2412 1824 c 1,13,-1
 2080 1824 l 1,14,15
 2062 1936 2062 1936 1942.5 2032 c 128,-1,16
 1823 2128 1823 2128 1565 2128 c 2,17,-1
 1234 2128 l 2,18,19
 608 2128 608 2128 608 1168 c 0,20,21
 608 224 608 224 1252 224 c 2,22,-1
 1547 224 l 2,23,24
 1860 224 1860 224 2099 528 c 1,25,-1
 2099 1152 l 1,26,-1
 1620 1152 l 1,27,-1
 1620 1360 l 1,28,-1
 2412 1360 l 1,29,-1
 2412 0 l 1,0,-1
1124 2720 m 1,30,-1
 1124 3536 l 1,31,-1
 1620 3536 l 1,32,-1
 1620 2720 l 1,33,-1
 1124 2720 l 1,30,-1
EndSplineSet
EndChar

StartChar: gdotaccent
Encoding: 289 289 227
Width: 2156
GlyphClass: 2
Flags: W
LayerCount: 2
Back
Fore
SplineSet
820 2720 m 1,0,-1
 820 3536 l 1,1,-1
 1335 3536 l 1,2,-1
 1335 2720 l 1,3,-1
 820 2720 l 1,0,-1
415 -224 m 1,4,5
 728 -304 728 -304 976.5 -304 c 128,-1,6
 1225 -304 1225 -304 1317 -192 c 128,-1,7
 1409 -80 1409 -80 1409 96 c 1,8,9
 1243 -16 1243 -16 1041 -16 c 2,10,-1
 875 -16 l 2,11,12
 286 -16 286 -16 286 816 c 2,13,-1
 286 1024 l 1,14,15
 305 1920 305 1920 875 1920 c 2,16,-1
 1041 1920 l 2,17,18
 1243 1920 1243 1920 1409 1792 c 1,19,-1
 1409 1920 l 1,20,-1
 1758 1920 l 1,21,-1
 1758 224 l 2,22,23
 1758 -144 1758 -144 1583.5 -360 c 128,-1,24
 1409 -576 1409 -576 1022 -576 c 0,25,26
 710 -576 710 -576 415 -512 c 1,27,-1
 415 -224 l 1,4,5
636 832 m 2,28,29
 636 224 636 224 1041 224 c 0,30,31
 1243 224 1243 224 1409 384 c 1,32,-1
 1409 1488 l 1,33,34
 1243 1664 1243 1664 1041 1664 c 0,35,36
 636 1664 636 1664 636 1024 c 2,37,-1
 636 832 l 2,28,29
EndSplineSet
EndChar

StartChar: Gcommaaccent
Encoding: 290 290 228
Width: 2820
GlyphClass: 2
Flags: W
LayerCount: 2
Back
Fore
SplineSet
2426 0 m 1,0,-1
 2114 0 l 1,1,-1
 2114 208 l 1,2,3
 1893 0 1893 0 1562 0 c 2,4,-1
 1267 0 l 2,5,6
 274 0 274 0 274 1168 c 0,7,8
 274 2352 274 2352 1249 2352 c 2,9,-1
 1562 2352 l 2,10,11
 1948 2352 1948 2352 2169 2216 c 128,-1,12
 2390 2080 2390 2080 2426 1824 c 1,13,-1
 2095 1824 l 1,14,15
 2077 1936 2077 1936 1957.5 2032 c 128,-1,16
 1838 2128 1838 2128 1580 2128 c 2,17,-1
 1249 2128 l 2,18,19
 623 2128 623 2128 623 1168 c 0,20,21
 623 224 623 224 1267 224 c 2,22,-1
 1562 224 l 2,23,24
 1874 224 1874 224 2114 528 c 1,25,-1
 2114 1152 l 1,26,-1
 1635 1152 l 1,27,-1
 1635 1360 l 1,28,-1
 2426 1360 l 1,29,-1
 2426 0 l 1,0,-1
1635 -96 m 1,30,-1
 1635 -304 l 2,31,32
 1635 -560 1635 -560 1157 -576 c 1,33,-1
 1157 -480 l 1,34,35
 1396 -480 1396 -480 1396 -288 c 1,36,-1
 1157 -288 l 1,37,-1
 1157 -96 l 1,38,-1
 1635 -96 l 1,30,-1
EndSplineSet
EndChar

StartChar: gcommaaccent
Encoding: 291 291 229
Width: 2148
GlyphClass: 2
Flags: W
LayerCount: 2
Back
Fore
SplineSet
797 2352 m 1,0,-1
 797 2720 l 2,1,2
 797 3504 797 3504 1294 3520 c 1,3,-1
 1294 3232 l 1,4,5
 1055 3232 1055 3232 1055 2720 c 1,6,-1
 1294 2720 l 1,7,-1
 1294 2352 l 1,8,-1
 797 2352 l 1,0,-1
411 -224 m 1,9,10
 723 -304 723 -304 971.5 -304 c 128,-1,11
 1220 -304 1220 -304 1312 -192 c 128,-1,12
 1404 -80 1404 -80 1404 96 c 1,13,14
 1239 -16 1239 -16 1036 -16 c 2,15,-1
 871 -16 l 2,16,17
 282 -16 282 -16 282 816 c 2,18,-1
 282 1024 l 1,19,20
 300 1920 300 1920 871 1920 c 2,21,-1
 1036 1920 l 2,22,23
 1239 1920 1239 1920 1404 1792 c 1,24,-1
 1404 1920 l 1,25,-1
 1754 1920 l 1,26,-1
 1754 224 l 2,27,28
 1754 -144 1754 -144 1579 -360 c 128,-1,29
 1404 -576 1404 -576 1018 -576 c 0,30,31
 705 -576 705 -576 411 -512 c 1,32,-1
 411 -224 l 1,9,10
631 832 m 2,33,34
 631 224 631 224 1036 224 c 0,35,36
 1239 224 1239 224 1404 384 c 1,37,-1
 1404 1488 l 1,38,39
 1239 1664 1239 1664 1036 1664 c 0,40,41
 631 1664 631 1664 631 1024 c 2,42,-1
 631 832 l 2,33,34
EndSplineSet
EndChar

StartChar: Hcircumflex
Encoding: 292 292 230
Width: 2702
GlyphClass: 2
Flags: W
LayerCount: 2
Back
Fore
SplineSet
2290 0 m 1,0,-1
 1977 0 l 1,1,-1
 1977 1136 l 1,2,-1
 726 1136 l 1,3,-1
 726 0 l 1,4,-1
 394 0 l 1,5,-1
 394 2352 l 1,6,-1
 726 2352 l 1,7,-1
 726 1376 l 1,8,-1
 1977 1376 l 1,9,-1
 1977 2352 l 1,10,-1
 2290 2352 l 1,11,-1
 2290 0 l 1,0,-1
1278 3520 m 1,12,-1
 1425 3520 l 1,13,-1
 1922 2832 l 1,14,-1
 1756 2672 l 1,15,-1
 1351 3216 l 1,16,-1
 965 2672 l 1,17,-1
 781 2832 l 1,18,-1
 1278 3520 l 1,12,-1
EndSplineSet
EndChar

StartChar: hcircumflex
Encoding: 293 293 231
Width: 2396
GlyphClass: 2
Flags: W
LayerCount: 2
Back
Fore
SplineSet
2027 0 m 1,0,-1
 1641 0 l 1,1,-1
 1641 1136 l 2,2,3
 1641 1248 1641 1248 1558 1296 c 128,-1,4
 1475 1344 1475 1344 1328 1344 c 256,5,6
 1181 1344 1181 1344 1061.5 1288 c 128,-1,7
 942 1232 942 1232 795 1056 c 1,8,-1
 795 0 l 1,9,-1
 408 0 l 1,10,-1
 408 2352 l 1,11,-1
 795 2352 l 1,12,-1
 795 1376 l 1,13,14
 923 1488 923 1488 1033.5 1544 c 128,-1,15
 1144 1600 1144 1600 1310 1600 c 2,16,-1
 1531 1600 l 2,17,18
 1751 1600 1751 1600 1889 1480 c 128,-1,19
 2027 1360 2027 1360 2027 1136 c 2,20,-1
 2027 0 l 1,0,-1
1126 3520 m 1,21,-1
 1291 3520 l 1,22,-1
 1880 2832 l 1,23,-1
 1659 2672 l 1,24,-1
 1199 3216 l 1,25,-1
 739 2672 l 1,26,-1
 519 2832 l 1,27,-1
 1126 3520 l 1,21,-1
EndSplineSet
EndChar

StartChar: Hbar
Encoding: 294 294 232
Width: 2753
GlyphClass: 2
Flags: W
LayerCount: 2
Back
Fore
SplineSet
2308 0 m 1,0,-1
 1995 0 l 1,1,-1
 1995 1520 l 1,2,-1
 744 1520 l 1,3,-1
 744 0 l 1,4,-1
 413 0 l 1,5,-1
 413 2400 l 1,6,-1
 118 2400 l 1,7,-1
 118 2672 l 1,8,-1
 413 2672 l 1,9,-1
 413 3104 l 1,10,-1
 744 3104 l 1,11,-1
 744 2672 l 1,12,-1
 1995 2672 l 1,13,-1
 1995 3104 l 1,14,-1
 2308 3104 l 1,15,-1
 2308 2672 l 1,16,-1
 2621 2672 l 1,17,-1
 2621 2400 l 1,18,-1
 2308 2400 l 1,19,-1
 2308 0 l 1,0,-1
744 1792 m 1,20,-1
 1995 1792 l 1,21,-1
 1995 2400 l 1,22,-1
 744 2400 l 1,23,-1
 744 1792 l 1,20,-1
EndSplineSet
EndChar

StartChar: hbar
Encoding: 295 295 233
Width: 2452
GlyphClass: 2
Flags: W
LayerCount: 2
Back
Fore
SplineSet
2054 0 m 1,0,-1
 1668 0 l 1,1,-1
 1668 1808 l 2,2,3
 1668 1936 1668 1936 1603.5 2000 c 128,-1,4
 1539 2064 1539 2064 1355 2064 c 0,5,6
 1208 2064 1208 2064 1097.5 1992 c 128,-1,7
 987 1920 987 1920 821 1760 c 1,8,-1
 821 0 l 1,9,-1
 435 0 l 1,10,-1
 435 2784 l 1,11,-1
 196 2784 l 1,12,-1
 196 3056 l 1,13,-1
 435 3056 l 1,14,-1
 435 3520 l 1,15,-1
 821 3520 l 1,16,-1
 821 3056 l 1,17,-1
 1557 3056 l 1,18,-1
 1557 2784 l 1,19,-1
 821 2784 l 1,20,-1
 821 2064 l 1,21,22
 913 2208 913 2208 1023.5 2280 c 128,-1,23
 1134 2352 1134 2352 1336 2352 c 2,24,-1
 1557 2352 l 2,25,26
 1796 2352 1796 2352 1925 2224 c 128,-1,27
 2054 2096 2054 2096 2054 1856 c 2,28,-1
 2054 0 l 1,0,-1
EndSplineSet
EndChar

StartChar: Itilde
Encoding: 296 296 234
Width: 1846
GlyphClass: 2
Flags: W
LayerCount: 2
Back
Fore
SplineSet
1773 3040 m 1,0,1
 1516 2800 1516 2800 1332 2800 c 256,2,3
 1148 2800 1148 2800 1019 2912 c 1,4,-1
 780 3104 l 1,5,6
 688 3184 688 3184 540 3184 c 0,7,8
 393 3184 393 3184 80 2912 c 1,9,-1
 80 3216 l 1,10,11
 356 3456 356 3456 540 3456 c 0,12,13
 706 3456 706 3456 835 3344 c 1,14,-1
 1074 3152 l 1,15,16
 1184 3072 1184 3072 1332 3072 c 0,17,18
 1479 3072 1479 3072 1773 3344 c 1,19,-1
 1773 3040 l 1,0,1
1332 0 m 1,20,-1
 540 0 l 1,21,-1
 540 224 l 1,22,-1
 780 224 l 1,23,-1
 780 2128 l 1,24,-1
 540 2128 l 1,25,-1
 540 2352 l 1,26,-1
 1332 2352 l 1,27,-1
 1332 2128 l 1,28,-1
 1092 2128 l 1,29,-1
 1092 224 l 1,30,-1
 1332 224 l 1,31,-1
 1332 0 l 1,20,-1
EndSplineSet
EndChar

StartChar: itilde
Encoding: 297 297 235
Width: 1739
GlyphClass: 2
Flags: W
LayerCount: 2
Back
Fore
SplineSet
1650 2672 m 1,0,1
 1393 2432 1393 2432 1227 2432 c 256,2,3
 1061 2432 1061 2432 933 2544 c 1,4,-1
 730 2736 l 1,5,6
 638 2816 638 2816 491 2816 c 0,7,8
 362 2816 362 2816 68 2544 c 1,9,-1
 68 2848 l 1,10,11
 325 3088 325 3088 491 3088 c 256,12,13
 657 3088 657 3088 785 2976 c 1,14,-1
 988 2784 l 1,15,16
 1098 2704 1098 2704 1227 2704 c 0,17,18
 1374 2704 1374 2704 1650 2976 c 1,19,-1
 1650 2672 l 1,0,1
1043 0 m 1,20,-1
 693 0 l 1,21,-1
 693 1920 l 1,22,-1
 1043 1920 l 1,23,-1
 1043 0 l 1,20,-1
EndSplineSet
EndChar

StartChar: Imacron
Encoding: 298 298 236
Width: 1535
GlyphClass: 2
Flags: W
LayerCount: 2
Back
Fore
SplineSet
1089 0 m 1,0,-1
 463 0 l 1,1,-1
 463 224 l 1,2,-1
 647 224 l 1,3,-1
 647 2128 l 1,4,-1
 463 2128 l 1,5,-1
 463 2352 l 1,6,-1
 1089 2352 l 1,7,-1
 1089 2128 l 1,8,-1
 905 2128 l 1,9,-1
 905 224 l 1,10,-1
 1089 224 l 1,11,-1
 1089 0 l 1,0,-1
1457 2992 m 1,12,-1
 77 2992 l 1,13,-1
 77 3264 l 1,14,-1
 1457 3264 l 1,15,-1
 1457 2992 l 1,12,-1
EndSplineSet
EndChar

StartChar: imacron
Encoding: 299 299 237
Width: 1506
GlyphClass: 2
Flags: W
LayerCount: 2
Back
Fore
SplineSet
908 0 m 1,0,-1
 614 0 l 1,1,-1
 614 1920 l 1,2,-1
 908 1920 l 1,3,-1
 908 0 l 1,0,-1
1424 2992 m 1,4,-1
 80 2992 l 1,5,-1
 80 3264 l 1,6,-1
 1424 3264 l 1,7,-1
 1424 2992 l 1,4,-1
EndSplineSet
EndChar

StartChar: Ibreve
Encoding: 300 300 238
Width: 1787
GlyphClass: 2
Flags: W
LayerCount: 2
Back
Fore
SplineSet
1296 0 m 1,0,-1
 542 0 l 1,1,-1
 542 224 l 1,2,-1
 762 224 l 1,3,-1
 762 2128 l 1,4,-1
 542 2128 l 1,5,-1
 542 2352 l 1,6,-1
 1296 2352 l 1,7,-1
 1296 2128 l 1,8,-1
 1057 2128 l 1,9,-1
 1057 224 l 1,10,-1
 1296 224 l 1,11,-1
 1296 0 l 1,0,-1
1756 3520 m 1,12,13
 1756 2704 1756 2704 910 2704 c 0,14,15
 45 2704 45 2704 45 3520 c 1,16,-1
 284 3520 l 1,17,18
 302 2944 302 2944 910 2944 c 1,19,20
 1517 2960 1517 2960 1535 3520 c 1,21,-1
 1756 3520 l 1,12,13
EndSplineSet
EndChar

StartChar: ibreve
Encoding: 301 301 239
Width: 1727
GlyphClass: 2
Flags: W
LayerCount: 2
Back
Fore
SplineSet
1045 0 m 1,0,-1
 714 0 l 1,1,-1
 714 1920 l 1,2,-1
 1045 1920 l 1,3,-1
 1045 0 l 1,0,-1
1689 3520 m 1,4,5
 1689 2704 1689 2704 880 2704 c 0,6,7
 52 2704 52 2704 52 3520 c 1,8,-1
 291 3520 l 1,9,10
 309 2944 309 2944 880 2944 c 1,11,12
 1450 2960 1450 2960 1469 3520 c 1,13,-1
 1689 3520 l 1,4,5
EndSplineSet
EndChar

StartChar: Iogonek
Encoding: 302 302 240
Width: 1118
GlyphClass: 2
Flags: W
LayerCount: 2
Back
Fore
SplineSet
1032 -576 m 1,0,-1
 756 -576 l 2,1,2
 498 -576 498 -576 498 -208 c 2,3,-1
 498 0 l 1,4,-1
 351 0 l 1,5,-1
 351 288 l 1,6,-1
 480 288 l 1,7,-1
 480 2816 l 1,8,-1
 351 2816 l 1,9,-1
 351 3104 l 1,10,-1
 811 3104 l 1,11,-1
 811 2816 l 1,12,-1
 682 2816 l 1,13,-1
 682 288 l 1,14,-1
 811 288 l 1,15,-1
 811 0 l 1,16,-1
 664 0 l 1,17,-1
 664 -208 l 2,18,19
 664 -352 664 -352 756 -352 c 2,20,-1
 1032 -352 l 1,21,-1
 1032 -576 l 1,0,-1
EndSplineSet
EndChar

StartChar: iogonek
Encoding: 303 303 241
Width: 1043
GlyphClass: 2
Flags: W
LayerCount: 2
Back
Fore
SplineSet
979 -576 m 1,0,-1
 684 -576 l 2,1,2
 482 -576 482 -576 482 -208 c 2,3,-1
 482 0 l 1,4,-1
 445 0 l 1,5,-1
 445 1920 l 1,6,-1
 647 1920 l 1,7,-1
 647 0 l 1,8,-1
 592 0 l 1,9,-1
 592 -208 l 2,10,11
 592 -352 592 -352 684 -352 c 2,12,-1
 979 -352 l 1,13,-1
 979 -576 l 1,0,-1
647 2352 m 1,14,-1
 445 2352 l 1,15,-1
 445 3104 l 1,16,-1
 647 3104 l 1,17,-1
 647 2352 l 1,14,-1
EndSplineSet
EndChar

StartChar: Idotaccent
Encoding: 304 304 242
Width: 1154
GlyphClass: 2
Flags: W
LayerCount: 2
Back
Fore
SplineSet
798 0 m 1,0,-1
 356 0 l 1,1,-1
 356 224 l 1,2,-1
 485 224 l 1,3,-1
 485 2128 l 1,4,-1
 356 2128 l 1,5,-1
 356 2352 l 1,6,-1
 798 2352 l 1,7,-1
 798 2128 l 1,8,-1
 669 2128 l 1,9,-1
 669 224 l 1,10,-1
 798 224 l 1,11,-1
 798 0 l 1,0,-1
430 2720 m 1,12,-1
 430 3536 l 1,13,-1
 706 3536 l 1,14,-1
 706 2720 l 1,15,-1
 430 2720 l 1,12,-1
EndSplineSet
EndChar

StartChar: dotlessi
Encoding: 305 305 243
Width: 957
GlyphClass: 2
Flags: W
LayerCount: 2
Back
Fore
SplineSet
549 0 m 1,0,-1
 383 0 l 1,1,-1
 383 1920 l 1,2,-1
 549 1920 l 1,3,-1
 549 0 l 1,0,-1
EndSplineSet
EndChar

StartChar: IJ
Encoding: 306 306 244
Width: 3144
GlyphClass: 2
Flags: W
LayerCount: 2
Back
Fore
SplineSet
1078 0 m 1,0,-1
 305 0 l 1,1,-1
 305 304 l 1,2,-1
 526 304 l 1,3,-1
 526 2816 l 1,4,-1
 305 2816 l 1,5,-1
 305 3104 l 1,6,-1
 1078 3104 l 1,7,-1
 1078 2816 l 1,8,-1
 838 2816 l 1,9,-1
 838 304 l 1,10,-1
 1078 304 l 1,11,-1
 1078 0 l 1,0,-1
2715 3104 m 1,12,-1
 2715 896 l 2,13,14
 2715 0 2715 0 1942 0 c 0,15,16
 1666 0 1666 0 1409 128 c 1,17,-1
 1519 416 l 1,18,19
 1740 304 1740 304 1942 304 c 0,20,21
 2347 304 2347 304 2366 896 c 1,22,-1
 2366 3104 l 1,23,-1
 2715 3104 l 1,12,-1
EndSplineSet
EndChar

StartChar: ij
Encoding: 307 307 245
Width: 2179
GlyphClass: 2
Flags: W
LayerCount: 2
Back
Fore
SplineSet
760 0 m 1,0,-1
 447 0 l 1,1,-1
 447 2352 l 1,2,-1
 760 2352 l 1,3,-1
 760 0 l 1,0,-1
760 2720 m 1,4,-1
 447 2720 l 1,5,-1
 447 3520 l 1,6,-1
 760 3520 l 1,7,-1
 760 2720 l 1,4,-1
1717 2720 m 1,8,-1
 1404 2720 l 1,9,-1
 1404 3520 l 1,10,-1
 1717 3520 l 1,11,-1
 1717 2720 l 1,8,-1
1717 2352 m 1,12,-1
 1717 -64 l 2,13,14
 1717 -576 1717 -576 1331 -576 c 2,15,-1
 1091 -576 l 1,16,-1
 1091 -256 l 1,17,-1
 1239 -256 l 2,18,19
 1404 -256 1404 -256 1404 -64 c 2,20,-1
 1404 2352 l 1,21,-1
 1717 2352 l 1,12,-1
EndSplineSet
EndChar

StartChar: Jcircumflex
Encoding: 308 308 246
Width: 2166
GlyphClass: 2
Flags: W
LayerCount: 2
Back
Fore
SplineSet
1774 2352 m 1,0,-1
 1774 896 l 2,1,2
 1774 0 1774 0 836 0 c 0,3,4
 505 0 505 0 174 128 c 1,5,-1
 321 416 l 1,6,7
 597 304 597 304 836 304 c 0,8,9
 1333 304 1333 304 1351 896 c 1,10,-1
 1351 2352 l 1,11,-1
 1774 2352 l 1,0,-1
873 3520 m 1,12,-1
 1057 3520 l 1,13,-1
 1682 2832 l 1,14,-1
 1462 2672 l 1,15,-1
 965 3216 l 1,16,-1
 468 2672 l 1,17,-1
 210 2832 l 1,18,-1
 873 3520 l 1,12,-1
EndSplineSet
EndChar

StartChar: jcircumflex
Encoding: 309 309 247
Width: 1388
GlyphClass: 2
Flags: W
LayerCount: 2
Back
Fore
SplineSet
896 1920 m 1,0,-1
 896 -64 l 2,1,2
 896 -576 896 -576 491 -576 c 2,3,-1
 13 -576 l 1,4,-1
 13 -256 l 1,5,-1
 399 -256 l 2,6,7
 546 -256 546 -256 565 -64 c 1,8,-1
 565 1920 l 1,9,-1
 896 1920 l 1,0,-1
657 3520 m 1,10,-1
 804 3520 l 1,11,-1
 1301 2832 l 1,12,-1
 1117 2672 l 1,13,-1
 730 3216 l 1,14,-1
 344 2672 l 1,15,-1
 160 2832 l 1,16,-1
 657 3520 l 1,10,-1
EndSplineSet
EndChar

StartChar: Kcommaaccent
Encoding: 310 310 248
Width: 2891
GlyphClass: 2
Flags: W
LayerCount: 2
Back
Fore
SplineSet
1676 -96 m 1,0,-1
 1676 -304 l 2,1,2
 1676 -560 1676 -560 1050 -576 c 1,3,-1
 1050 -480 l 1,4,5
 1344 -480 1344 -480 1344 -288 c 1,6,-1
 1050 -288 l 1,7,-1
 1050 -96 l 1,8,-1
 1676 -96 l 1,0,-1
2780 0 m 1,9,-1
 2246 0 l 1,10,-1
 1197 1664 l 1,11,-1
 884 1376 l 1,12,-1
 884 0 l 1,13,-1
 443 0 l 1,14,-1
 443 3104 l 1,15,-1
 884 3104 l 1,16,-1
 884 1840 l 1,17,-1
 2191 3104 l 1,18,-1
 2706 3104 l 1,19,-1
 1492 1920 l 1,20,-1
 2780 0 l 1,9,-1
EndSplineSet
EndChar

StartChar: kcommaaccent
Encoding: 311 311 249
Width: 2079
GlyphClass: 2
Flags: W
LayerCount: 2
Back
Fore
SplineSet
1405 -96 m 1,0,-1
 1405 -304 l 2,1,2
 1405 -560 1405 -560 908 -576 c 1,3,-1
 908 -480 l 1,4,5
 1148 -480 1148 -480 1148 -288 c 1,6,-1
 908 -288 l 1,7,-1
 908 -96 l 1,8,-1
 1405 -96 l 1,0,-1
1902 0 m 1,9,-1
 1497 0 l 1,10,-1
 982 1104 l 1,11,-1
 798 864 l 1,12,-1
 798 0 l 1,13,-1
 448 0 l 1,14,-1
 448 3520 l 1,15,-1
 798 3520 l 1,16,-1
 798 1392 l 1,17,-1
 1460 2352 l 1,18,-1
 1884 2352 l 1,19,-1
 1221 1408 l 1,20,-1
 1902 0 l 1,9,-1
EndSplineSet
EndChar

StartChar: kgreenlandic
Encoding: 312 312 250
Width: 2173
GlyphClass: 2
Flags: W
LayerCount: 2
Back
Fore
SplineSet
2002 0 m 1,0,-1
 1634 0 l 1,1,-1
 898 1024 l 1,2,-1
 696 848 l 1,3,-1
 696 0 l 1,4,-1
 383 0 l 1,5,-1
 383 1920 l 1,6,-1
 696 1920 l 1,7,-1
 696 1136 l 1,8,-1
 1597 1920 l 1,9,-1
 1965 1920 l 1,10,-1
 1101 1184 l 1,11,-1
 2002 0 l 1,0,-1
EndSplineSet
EndChar

StartChar: Lacute
Encoding: 313 313 251
Width: 1802
GlyphClass: 2
Flags: W
LayerCount: 2
Back
Fore
SplineSet
1810 3520 m 1,0,-1
 1276 2720 l 1,1,-1
 1037 2720 l 1,2,-1
 1405 3520 l 1,3,-1
 1810 3520 l 1,0,-1
1589 0 m 1,4,-1
 393 0 l 1,5,-1
 393 2352 l 1,6,-1
 669 2352 l 1,7,-1
 669 304 l 1,8,-1
 1589 304 l 1,9,-1
 1589 0 l 1,4,-1
EndSplineSet
EndChar

StartChar: lacute
Encoding: 314 314 252
Width: 1037
GlyphClass: 2
Flags: W
LayerCount: 2
Back
Fore
SplineSet
820 3520 m 1,0,-1
 434 2720 l 1,1,-1
 268 2720 l 1,2,-1
 526 3520 l 1,3,-1
 820 3520 l 1,0,-1
636 0 m 1,4,-1
 415 0 l 1,5,-1
 415 2352 l 1,6,-1
 636 2352 l 1,7,-1
 636 0 l 1,4,-1
EndSplineSet
EndChar

StartChar: Lcommaaccent
Encoding: 315 315 253
Width: 2382
GlyphClass: 2
Flags: W
LayerCount: 2
Back
Fore
SplineSet
1565 -96 m 1,0,-1
 1565 -304 l 2,1,2
 1565 -560 1565 -560 995 -576 c 1,3,-1
 995 -480 l 1,4,5
 1271 -480 1271 -480 1271 -288 c 1,6,-1
 995 -288 l 1,7,-1
 995 -96 l 1,8,-1
 1565 -96 l 1,0,-1
2228 0 m 1,9,-1
 443 0 l 1,10,-1
 443 3104 l 1,11,-1
 829 3104 l 1,12,-1
 829 304 l 1,13,-1
 2228 304 l 1,14,-1
 2228 0 l 1,9,-1
EndSplineSet
EndChar

StartChar: lcommaaccent
Encoding: 316 316 254
Width: 1022
GlyphClass: 2
Flags: W
LayerCount: 2
Back
Fore
SplineSet
631 -96 m 1,0,-1
 631 -304 l 2,1,2
 631 -560 631 -560 355 -576 c 1,3,-1
 355 -480 l 1,4,5
 484 -480 484 -480 484 -288 c 1,6,-1
 355 -288 l 1,7,-1
 355 -96 l 1,8,-1
 631 -96 l 1,0,-1
595 0 m 1,9,-1
 411 0 l 1,10,-1
 411 2720 l 1,11,-1
 595 2720 l 1,12,-1
 595 0 l 1,9,-1
EndSplineSet
EndChar

StartChar: Lcaron
Encoding: 317 317 255
Width: 2541
GlyphClass: 2
Flags: W
LayerCount: 2
Back
Fore
SplineSet
1640 0 m 1,0,-1
 444 0 l 1,1,-1
 444 3104 l 1,2,-1
 720 3104 l 1,3,-1
 720 304 l 1,4,-1
 1640 304 l 1,5,-1
 1640 0 l 1,0,-1
2302 3104 m 1,6,-1
 2302 2512 l 2,7,8
 2302 1760 2302 1760 1916 1728 c 1,9,-1
 1916 2016 l 1,10,11
 2100 2016 2100 2016 2100 2528 c 1,12,-1
 1916 2528 l 1,13,-1
 1916 3104 l 1,14,-1
 2302 3104 l 1,6,-1
EndSplineSet
EndChar

StartChar: lcaron
Encoding: 318 318 256
Width: 1615
GlyphClass: 2
Flags: W
LayerCount: 2
Back
Fore
SplineSet
1382 3104 m 1,0,-1
 1382 2512 l 2,1,2
 1382 1760 1382 1760 1033 1728 c 1,3,-1
 1033 2016 l 1,4,5
 1198 2016 1198 2016 1198 2528 c 1,6,-1
 1033 2528 l 1,7,-1
 1033 3104 l 1,8,-1
 1382 3104 l 1,0,-1
702 0 m 1,9,-1
 444 0 l 1,10,-1
 444 3104 l 1,11,-1
 702 3104 l 1,12,-1
 702 0 l 1,9,-1
EndSplineSet
EndChar

StartChar: Ldot
Encoding: 319 319 257
Width: 2406
GlyphClass: 2
Flags: W
LayerCount: 2
Back
Fore
SplineSet
2229 0 m 1,0,-1
 444 0 l 1,1,-1
 444 3104 l 1,2,-1
 830 3104 l 1,3,-1
 830 304 l 1,4,-1
 2229 304 l 1,5,-1
 2229 0 l 1,0,-1
1990 2464 m 1,6,-1
 1990 1872 l 1,7,-1
 1419 1872 l 1,8,-1
 1419 2464 l 1,9,-1
 1990 2464 l 1,6,-1
EndSplineSet
EndChar

StartChar: ldot
Encoding: 320 320 258
Width: 1580
GlyphClass: 2
Flags: W
LayerCount: 2
Back
Fore
SplineSet
1401 2352 m 1,0,-1
 1401 1872 l 1,1,-1
 1051 1872 l 1,2,-1
 1051 2352 l 1,3,-1
 1401 2352 l 1,0,-1
720 0 m 1,4,-1
 444 0 l 1,5,-1
 444 3104 l 1,6,-1
 720 3104 l 1,7,-1
 720 0 l 1,4,-1
EndSplineSet
EndChar

StartChar: Lslash
Encoding: 321 321 259
Width: 2387
GlyphClass: 2
Flags: W
LayerCount: 2
Back
Fore
SplineSet
2232 0 m 1,0,-1
 539 0 l 1,1,-1
 539 1472 l 1,2,-1
 208 1264 l 1,3,-1
 208 1632 l 1,4,-1
 539 1840 l 1,5,-1
 539 3104 l 1,6,-1
 815 3104 l 1,7,-1
 815 2000 l 1,8,-1
 1441 2384 l 1,9,-1
 1441 2016 l 1,10,-1
 815 1632 l 1,11,-1
 815 304 l 1,12,-1
 2232 304 l 1,13,-1
 2232 0 l 1,0,-1
EndSplineSet
EndChar

StartChar: lslash
Encoding: 322 322 260
Width: 1432
GlyphClass: 2
Flags: W
LayerCount: 2
Back
Fore
SplineSet
516 0 m 1,0,-1
 516 1472 l 1,1,-1
 222 1264 l 1,2,-1
 222 1632 l 1,3,-1
 516 1840 l 1,4,-1
 516 3104 l 1,5,-1
 756 3104 l 1,6,-1
 756 2000 l 1,7,-1
 1289 2384 l 1,8,-1
 1289 2016 l 1,9,-1
 756 1632 l 1,10,-1
 756 0 l 1,11,-1
 516 0 l 1,0,-1
EndSplineSet
EndChar

StartChar: Nacute
Encoding: 323 323 261
Width: 2774
GlyphClass: 2
Flags: W
LayerCount: 2
Back
Fore
SplineSet
2141 3520 m 1,0,-1
 1497 2720 l 1,1,-1
 1203 2720 l 1,2,-1
 1644 3520 l 1,3,-1
 2141 3520 l 1,0,-1
2362 0 m 1,4,-1
 1902 0 l 1,5,-1
 706 2032 l 1,6,-1
 706 0 l 1,7,-1
 393 0 l 1,8,-1
 393 2352 l 1,9,-1
 853 2352 l 1,10,-1
 2031 336 l 1,11,-1
 2031 2352 l 1,12,-1
 2362 2352 l 1,13,-1
 2362 0 l 1,4,-1
EndSplineSet
EndChar

StartChar: nacute
Encoding: 324 324 262
Width: 2370
GlyphClass: 2
Flags: W
LayerCount: 2
Back
Fore
SplineSet
1712 3520 m 1,0,-1
 976 2720 l 1,1,-1
 627 2720 l 1,2,-1
 1142 3520 l 1,3,-1
 1712 3520 l 1,0,-1
1988 0 m 1,4,-1
 1602 0 l 1,5,-1
 1602 1376 l 2,6,7
 1602 1520 1602 1520 1537.5 1576 c 128,-1,8
 1473 1632 1473 1632 1289 1632 c 0,9,10
 1142 1632 1142 1632 1031.5 1568 c 128,-1,11
 921 1504 921 1504 756 1328 c 1,12,-1
 756 0 l 1,13,-1
 369 0 l 1,14,-1
 369 1920 l 1,15,-1
 756 1920 l 1,16,-1
 756 1648 l 1,17,18
 848 1776 848 1776 958 1848 c 128,-1,19
 1068 1920 1068 1920 1271 1920 c 2,20,-1
 1492 1920 l 2,21,22
 1731 1920 1731 1920 1859.5 1792 c 128,-1,23
 1988 1664 1988 1664 1988 1424 c 2,24,-1
 1988 0 l 1,4,-1
EndSplineSet
EndChar

StartChar: Ncommaaccent
Encoding: 325 325 263
Width: 2863
GlyphClass: 2
Flags: W
LayerCount: 2
Back
Fore
SplineSet
1400 -96 m 1,0,-1
 1400 -304 l 2,1,2
 1400 -560 1400 -560 940 -576 c 1,3,-1
 940 -480 l 1,4,5
 1160 -480 1160 -480 1160 -288 c 1,6,-1
 940 -288 l 1,7,-1
 940 -96 l 1,8,-1
 1400 -96 l 1,0,-1
2412 0 m 1,9,-1
 1952 0 l 1,10,-1
 756 2672 l 1,11,-1
 756 0 l 1,12,-1
 443 0 l 1,13,-1
 443 3104 l 1,14,-1
 903 3104 l 1,15,-1
 2080 448 l 1,16,-1
 2080 3104 l 1,17,-1
 2412 3104 l 1,18,-1
 2412 0 l 1,9,-1
EndSplineSet
EndChar

StartChar: ncommaaccent
Encoding: 326 326 264
Width: 2398
GlyphClass: 2
Flags: W
LayerCount: 2
Back
Fore
SplineSet
1432 -96 m 1,0,-1
 1432 -304 l 2,1,2
 1432 -560 1432 -560 898 -576 c 1,3,-1
 898 -480 l 1,4,5
 1156 -480 1156 -480 1156 -288 c 1,6,-1
 898 -288 l 1,7,-1
 898 -96 l 1,8,-1
 1432 -96 l 1,0,-1
2002 0 m 1,9,-1
 1616 0 l 1,10,-1
 1616 1376 l 2,11,12
 1616 1520 1616 1520 1551.5 1576 c 128,-1,13
 1487 1632 1487 1632 1303 1632 c 0,14,15
 1156 1632 1156 1632 1045.5 1568 c 128,-1,16
 935 1504 935 1504 769 1328 c 1,17,-1
 769 0 l 1,18,-1
 383 0 l 1,19,-1
 383 1920 l 1,20,-1
 769 1920 l 1,21,-1
 769 1648 l 1,22,23
 861 1776 861 1776 971.5 1848 c 128,-1,24
 1082 1920 1082 1920 1285 1920 c 2,25,-1
 1505 1920 l 2,26,27
 1745 1920 1745 1920 1873.5 1792 c 128,-1,28
 2002 1664 2002 1664 2002 1424 c 2,29,-1
 2002 0 l 1,9,-1
EndSplineSet
EndChar

StartChar: Ncaron
Encoding: 327 327 265
Width: 2787
GlyphClass: 2
Flags: W
LayerCount: 2
Back
Fore
SplineSet
2363 0 m 1,0,-1
 1903 0 l 1,1,-1
 707 2032 l 1,2,-1
 707 0 l 1,3,-1
 394 0 l 1,4,-1
 394 2352 l 1,5,-1
 854 2352 l 1,6,-1
 2032 336 l 1,7,-1
 2032 2352 l 1,8,-1
 2363 2352 l 1,9,-1
 2363 0 l 1,0,-1
2455 3520 m 1,10,11
 2455 2704 2455 2704 1627 2704 c 0,12,13
 762 2704 762 2704 762 3520 c 1,14,-1
 1020 3520 l 1,15,16
 1020 2944 1020 2944 1627 2944 c 1,17,18
 2216 2960 2216 2960 2234 3520 c 1,19,-1
 2455 3520 l 1,10,11
EndSplineSet
EndChar

StartChar: ncaron
Encoding: 328 328 266
Width: 2417
GlyphClass: 2
Flags: W
LayerCount: 2
Back
Fore
SplineSet
2015 0 m 1,0,-1
 1628 0 l 1,1,-1
 1628 1376 l 2,2,3
 1628 1520 1628 1520 1564 1576 c 128,-1,4
 1500 1632 1500 1632 1316 1632 c 0,5,6
 1168 1632 1168 1632 1058 1568 c 128,-1,7
 948 1504 948 1504 782 1328 c 1,8,-1
 782 0 l 1,9,-1
 396 0 l 1,10,-1
 396 1920 l 1,11,-1
 782 1920 l 1,12,-1
 782 1648 l 1,13,14
 874 1776 874 1776 984.5 1848 c 128,-1,15
 1095 1920 1095 1920 1297 1920 c 2,16,-1
 1518 1920 l 2,17,18
 1757 1920 1757 1920 1886 1792 c 128,-1,19
 2015 1664 2015 1664 2015 1424 c 2,20,-1
 2015 0 l 1,0,-1
2180 3520 m 1,21,22
 2180 2704 2180 2704 1205 2704 c 0,23,24
 193 2704 193 2704 193 3520 c 1,25,-1
 488 3520 l 1,26,27
 488 2944 488 2944 1205 2944 c 1,28,29
 1904 2960 1904 2960 1923 3520 c 1,30,-1
 2180 3520 l 1,21,22
EndSplineSet
EndChar

StartChar: napostrophe
Encoding: 329 329 267
Width: 2452
GlyphClass: 2
Flags: W
LayerCount: 2
Back
Fore
SplineSet
898 3520 m 1,0,-1
 898 2928 l 2,1,2
 898 2176 898 2176 365 2144 c 1,3,-1
 365 2432 l 1,4,5
 622 2432 622 2432 622 2944 c 1,6,-1
 365 2944 l 1,7,-1
 365 3520 l 1,8,-1
 898 3520 l 1,0,-1
2076 0 m 1,9,-1
 1689 0 l 1,10,-1
 1689 1376 l 2,11,12
 1689 1520 1689 1520 1625 1576 c 128,-1,13
 1561 1632 1561 1632 1377 1632 c 0,14,15
 1229 1632 1229 1632 1119 1568 c 128,-1,16
 1009 1504 1009 1504 843 1328 c 1,17,-1
 843 0 l 1,18,-1
 457 0 l 1,19,-1
 457 1920 l 1,20,-1
 843 1920 l 1,21,-1
 843 1648 l 1,22,23
 935 1776 935 1776 1045.5 1848 c 128,-1,24
 1156 1920 1156 1920 1358 1920 c 2,25,-1
 1579 1920 l 2,26,27
 1818 1920 1818 1920 1947 1792 c 128,-1,28
 2076 1664 2076 1664 2076 1424 c 2,29,-1
 2076 0 l 1,9,-1
EndSplineSet
EndChar

StartChar: Eng
Encoding: 330 330 268
Width: 2673
GlyphClass: 2
Flags: W
LayerCount: 2
Back
Fore
SplineSet
1824 2560 m 2,0,1
 1824 2704 1824 2704 1750.5 2760 c 128,-1,2
 1677 2816 1677 2816 1474 2816 c 0,3,4
 1309 2816 1309 2816 1189.5 2752 c 128,-1,5
 1070 2688 1070 2688 867 2512 c 1,6,-1
 867 0 l 1,7,-1
 444 0 l 1,8,-1
 444 3104 l 1,9,-1
 867 3104 l 1,10,-1
 867 2832 l 1,11,12
 978 2960 978 2960 1106.5 3032 c 128,-1,13
 1235 3104 1235 3104 1438 3104 c 2,14,-1
 1695 3104 l 2,15,16
 1971 3104 1971 3104 2118.5 2976 c 128,-1,17
 2266 2848 2266 2848 2266 2608 c 2,18,-1
 2266 896 l 2,19,20
 2266 0 2266 0 1474 0 c 0,21,22
 1235 0 1235 0 996 128 c 1,23,-1
 1143 416 l 1,24,25
 1309 304 1309 304 1474 304 c 0,26,27
 1806 304 1806 304 1824 896 c 1,28,-1
 1824 2560 l 2,0,1
EndSplineSet
EndChar

StartChar: eng
Encoding: 331 331 269
Width: 2408
GlyphClass: 2
Flags: W
LayerCount: 2
Back
Fore
SplineSet
1616 1376 m 2,0,1
 1616 1520 1616 1520 1551.5 1576 c 128,-1,2
 1487 1632 1487 1632 1303 1632 c 0,3,4
 1156 1632 1156 1632 1045.5 1568 c 128,-1,5
 935 1504 935 1504 769 1328 c 1,6,-1
 769 0 l 1,7,-1
 383 0 l 1,8,-1
 383 1920 l 1,9,-1
 769 1920 l 1,10,-1
 769 1648 l 1,11,12
 861 1776 861 1776 971.5 1848 c 128,-1,13
 1082 1920 1082 1920 1285 1920 c 2,14,-1
 1505 1920 l 2,15,16
 1745 1920 1745 1920 1873.5 1792 c 128,-1,17
 2002 1664 2002 1664 2002 1424 c 2,18,-1
 2002 80 l 2,19,20
 2002 -576 2002 -576 1303 -576 c 0,21,22
 1082 -576 1082 -576 880 -448 c 1,23,-1
 1009 -160 l 1,24,25
 1156 -272 1156 -272 1303 -272 c 0,26,27
 1597 -272 1597 -272 1616 80 c 1,28,-1
 1616 1376 l 2,0,1
EndSplineSet
EndChar

StartChar: Omacron
Encoding: 332 332 270
Width: 2895
GlyphClass: 2
Flags: W
LayerCount: 2
Back
Fore
SplineSet
2214 2992 m 1,0,-1
 521 2992 l 1,1,-1
 521 3264 l 1,2,-1
 2214 3264 l 1,3,-1
 2214 2992 l 1,0,-1
1551 2352 m 2,4,5
 2563 2352 2563 2352 2582 1168 c 1,6,7
 2582 0 2582 0 1551 0 c 2,8,-1
 1275 0 l 2,9,10
 263 0 263 0 282 1168 c 1,11,12
 263 2352 263 2352 1275 2352 c 2,13,-1
 1551 2352 l 2,4,5
1275 2128 m 2,14,15
 631 2128 631 2128 631 1168 c 1,16,17
 613 240 613 240 1275 224 c 1,18,-1
 1551 224 l 2,19,20
 2214 224 2214 224 2214 1168 c 0,21,22
 2214 2128 2214 2128 1551 2128 c 2,23,-1
 1275 2128 l 2,14,15
EndSplineSet
EndChar

StartChar: omacron
Encoding: 333 333 271
Width: 2702
GlyphClass: 2
Flags: W
LayerCount: 2
Back
Fore
SplineSet
2295 2992 m 1,0,-1
 382 2992 l 1,1,-1
 382 3264 l 1,2,-1
 2295 3264 l 1,3,-1
 2295 2992 l 1,0,-1
1449 1920 m 2,4,5
 1909 1920 1909 1920 2130 1672 c 128,-1,6
 2351 1424 2351 1424 2351 1024 c 2,7,-1
 2351 944 l 2,8,9
 2351 496 2351 496 2121 248 c 128,-1,10
 1891 0 1891 0 1449 0 c 2,11,-1
 1173 0 l 2,12,13
 731 0 731 0 519.5 232 c 128,-1,14
 308 464 308 464 308 944 c 2,15,-1
 308 1024 l 2,16,17
 308 1440 308 1440 538 1680 c 128,-1,18
 768 1920 768 1920 1173 1920 c 2,19,-1
 1449 1920 l 2,4,5
713 1024 m 2,20,-1
 713 944 l 2,21,22
 713 560 713 560 832.5 392 c 128,-1,23
 952 224 952 224 1173 224 c 2,24,-1
 1449 224 l 2,25,26
 1670 224 1670 224 1808 416 c 128,-1,27
 1946 608 1946 608 1946 944 c 2,28,-1
 1946 1024 l 2,29,30
 1946 1344 1946 1344 1817 1520 c 128,-1,31
 1688 1696 1688 1696 1449 1696 c 2,32,-1
 1173 1696 l 2,33,34
 971 1696 971 1696 842 1528 c 128,-1,35
 713 1360 713 1360 713 1024 c 2,20,-1
EndSplineSet
EndChar

StartChar: Obreve
Encoding: 334 334 272
Width: 2879
GlyphClass: 2
Flags: W
LayerCount: 2
Back
Fore
SplineSet
2293 3520 m 1,0,1
 2293 2704 2293 2704 1410 2704 c 256,2,3
 527 2704 527 2704 527 3520 c 1,4,-1
 784 3520 l 1,5,6
 784 2944 784 2944 1410 2944 c 1,7,8
 2036 2960 2036 2960 2054 3520 c 1,9,-1
 2293 3520 l 1,0,1
1539 2352 m 2,10,11
 2551 2352 2551 2352 2569 1168 c 1,12,13
 2569 0 2569 0 1539 0 c 2,14,-1
 1263 0 l 2,15,16
 251 0 251 0 269 1168 c 1,17,18
 251 2352 251 2352 1263 2352 c 2,19,-1
 1539 2352 l 2,10,11
1263 2128 m 2,20,21
 619 2128 619 2128 619 1168 c 1,22,23
 600 240 600 240 1263 224 c 1,24,-1
 1539 224 l 2,25,26
 2201 224 2201 224 2201 1168 c 0,27,28
 2201 2128 2201 2128 1539 2128 c 2,29,-1
 1263 2128 l 2,20,21
EndSplineSet
EndChar

StartChar: obreve
Encoding: 335 335 273
Width: 2685
GlyphClass: 2
Flags: W
LayerCount: 2
Back
Fore
SplineSet
2341 3520 m 1,0,1
 2341 2704 2341 2704 1348 2704 c 0,2,3
 317 2704 317 2704 317 3520 c 1,4,-1
 612 3520 l 1,5,6
 630 2944 630 2944 1348 2944 c 1,7,8
 2047 2960 2047 2960 2065 3520 c 1,9,-1
 2341 3520 l 1,0,1
1440 1920 m 2,10,11
 1900 1920 1900 1920 2120.5 1672 c 128,-1,12
 2341 1424 2341 1424 2341 1024 c 2,13,-1
 2341 944 l 2,14,15
 2341 496 2341 496 2111 248 c 128,-1,16
 1881 0 1881 0 1440 0 c 2,17,-1
 1164 0 l 2,18,19
 722 0 722 0 510.5 232 c 128,-1,20
 299 464 299 464 299 944 c 2,21,-1
 299 1024 l 2,22,23
 299 1440 299 1440 529 1680 c 128,-1,24
 759 1920 759 1920 1164 1920 c 2,25,-1
 1440 1920 l 2,10,11
704 1024 m 2,26,-1
 704 944 l 2,27,28
 704 560 704 560 823.5 392 c 128,-1,29
 943 224 943 224 1164 224 c 2,30,-1
 1440 224 l 2,31,32
 1661 224 1661 224 1799 416 c 128,-1,33
 1937 608 1937 608 1937 944 c 2,34,-1
 1937 1024 l 2,35,36
 1937 1344 1937 1344 1808 1520 c 128,-1,37
 1679 1696 1679 1696 1440 1696 c 2,38,-1
 1164 1696 l 2,39,40
 961 1696 961 1696 832.5 1528 c 128,-1,41
 704 1360 704 1360 704 1024 c 2,26,-1
EndSplineSet
EndChar

StartChar: Ohungarumlaut
Encoding: 336 336 274
Width: 2899
GlyphClass: 2
Flags: W
LayerCount: 2
Back
Fore
SplineSet
1341 3520 m 1,0,-1
 678 2720 l 1,1,-1
 384 2720 l 1,2,-1
 826 3520 l 1,3,-1
 1341 3520 l 1,0,-1
2408 3520 m 1,4,-1
 1746 2720 l 1,5,-1
 1451 2720 l 1,6,-1
 1893 3520 l 1,7,-1
 2408 3520 l 1,4,-1
1562 2352 m 2,8,9
 2574 2352 2574 2352 2592 1168 c 1,10,11
 2592 0 2592 0 1562 0 c 2,12,-1
 1286 0 l 2,13,14
 274 0 274 0 292 1168 c 1,15,16
 274 2352 274 2352 1286 2352 c 2,17,-1
 1562 2352 l 2,8,9
1286 2128 m 2,18,19
 642 2128 642 2128 642 1168 c 1,20,21
 623 240 623 240 1286 224 c 1,22,-1
 1562 224 l 2,23,24
 2224 224 2224 224 2224 1168 c 0,25,26
 2224 2128 2224 2128 1562 2128 c 2,27,-1
 1286 2128 l 2,18,19
EndSplineSet
EndChar

StartChar: ohungarumlaut
Encoding: 337 337 275
Width: 2711
GlyphClass: 2
Flags: W
LayerCount: 2
Back
Fore
SplineSet
1408 3520 m 1,0,-1
 635 2720 l 1,1,-1
 285 2720 l 1,2,-1
 800 3520 l 1,3,-1
 1408 3520 l 1,0,-1
2383 3520 m 1,4,-1
 1592 2720 l 1,5,-1
 1242 2720 l 1,6,-1
 1776 3520 l 1,7,-1
 2383 3520 l 1,4,-1
1481 1920 m 2,8,9
 1941 1920 1941 1920 2171 1672 c 128,-1,10
 2401 1424 2401 1424 2401 1024 c 2,11,-1
 2401 944 l 2,12,13
 2401 496 2401 496 2162 248 c 128,-1,14
 1923 0 1923 0 1481 0 c 2,15,-1
 1187 0 l 2,16,17
 727 0 727 0 515.5 232 c 128,-1,18
 304 464 304 464 304 944 c 2,19,-1
 304 1024 l 2,20,21
 304 1440 304 1440 534 1680 c 128,-1,22
 764 1920 764 1920 1187 1920 c 2,23,-1
 1481 1920 l 2,8,9
708 1024 m 2,24,-1
 708 944 l 2,25,26
 708 560 708 560 837 424 c 128,-1,27
 966 288 966 288 1187 288 c 2,28,-1
 1481 288 l 2,29,30
 1702 288 1702 288 1840 448 c 128,-1,31
 1978 608 1978 608 1978 944 c 2,32,-1
 1978 1024 l 2,33,34
 1978 1344 1978 1344 1840 1496 c 128,-1,35
 1702 1648 1702 1648 1481 1648 c 2,36,-1
 1187 1648 l 2,37,38
 966 1648 966 1648 837 1504 c 128,-1,39
 708 1360 708 1360 708 1024 c 2,24,-1
EndSplineSet
EndChar

StartChar: OE
Encoding: 338 338 276
Width: 3169
GlyphClass: 2
Flags: W
LayerCount: 2
Back
Fore
SplineSet
1098 3104 m 2,0,1
 1485 3104 1485 3104 1650 2496 c 1,2,-1
 1650 3104 l 1,3,-1
 2920 3104 l 1,4,-1
 2920 2816 l 1,5,-1
 1963 2816 l 1,6,-1
 1963 1808 l 1,7,-1
 2754 1808 l 1,8,-1
 2754 1536 l 1,9,-1
 1963 1536 l 1,10,-1
 1963 304 l 1,11,-1
 2901 304 l 1,12,-1
 2901 0 l 1,13,-1
 1650 0 l 1,14,-1
 1650 576 l 1,15,16
 1485 0 1485 0 1098 0 c 2,17,-1
 951 0 l 2,18,19
 325 0 325 0 344 1536 c 1,20,21
 325 3104 325 3104 951 3104 c 2,22,-1
 1098 3104 l 2,0,1
951 2816 m 2,23,24
 601 2816 601 2816 601 1536 c 0,25,26
 601 320 601 320 951 304 c 1,27,-1
 1098 304 l 2,28,29
 1466 304 1466 304 1466 1536 c 0,30,31
 1466 2816 1466 2816 1117 2816 c 2,32,-1
 951 2816 l 2,23,24
EndSplineSet
EndChar

StartChar: oe
Encoding: 339 339 277
Width: 3203
GlyphClass: 2
Flags: W
LayerCount: 2
Back
Fore
SplineSet
1119 1920 m 2,0,1
 1450 1920 1450 1920 1616 1680 c 1,2,-1
 1653 1744 l 1,3,4
 1837 1920 1837 1920 2094 1920 c 2,5,-1
 2260 1920 l 2,6,7
 2517 1920 2517 1920 2701 1736 c 128,-1,8
 2885 1552 2885 1552 2885 1296 c 2,9,-1
 2885 1072 l 1,10,-1
 1781 1072 l 1,11,-1
 1781 1024 l 1,12,-1
 1781 944 l 1,13,-1
 1781 816 l 2,14,15
 1781 768 1781 768 1781 736 c 0,16,17
 1800 448 1800 448 1919.5 336 c 128,-1,18
 2039 224 2039 224 2186 224 c 256,19,20
 2333 224 2333 224 2434.5 280 c 128,-1,21
 2536 336 2536 336 2628 512 c 1,22,-1
 2849 352 l 1,23,24
 2775 192 2775 192 2628 96 c 128,-1,25
 2481 0 2481 0 2260 0 c 2,26,-1
 2113 0 l 2,27,28
 1837 0 1837 0 1653 208 c 1,29,-1
 1616 256 l 1,30,31
 1432 0 1432 0 1119 0 c 2,32,-1
 917 0 l 2,33,34
 604 0 604 0 447.5 232 c 128,-1,35
 291 464 291 464 291 944 c 2,36,-1
 291 1024 l 2,37,38
 291 1440 291 1440 456.5 1680 c 128,-1,39
 622 1920 622 1920 917 1920 c 2,40,-1
 1119 1920 l 2,0,1
585 1024 m 2,41,-1
 585 944 l 2,42,43
 585 560 585 560 668 392 c 128,-1,44
 751 224 751 224 917 224 c 2,45,-1
 1119 224 l 2,46,47
 1266 224 1266 224 1377 416 c 1,48,49
 1450 560 1450 560 1469 784 c 1,50,-1
 1469 880 l 1,51,-1
 1469 1104 l 1,52,-1
 1469 1184 l 1,53,54
 1450 1392 1450 1392 1377 1520 c 1,55,56
 1285 1696 1285 1696 1119 1696 c 2,57,-1
 917 1696 l 2,58,59
 769 1696 769 1696 677 1528 c 128,-1,60
 585 1360 585 1360 585 1024 c 2,41,-1
2573 1296 m 1,61,62
 2554 1472 2554 1472 2462 1576 c 128,-1,63
 2370 1680 2370 1680 2186 1696 c 1,64,65
 1965 1696 1965 1696 1882.5 1576 c 128,-1,66
 1800 1456 1800 1456 1800 1296 c 1,67,-1
 2573 1296 l 1,61,62
EndSplineSet
EndChar

StartChar: Racute
Encoding: 340 340 278
Width: 2466
GlyphClass: 2
Flags: W
LayerCount: 2
Back
Fore
SplineSet
2031 3520 m 1,0,-1
 1405 2720 l 1,1,-1
 1129 2720 l 1,2,-1
 1552 3520 l 1,3,-1
 2031 3520 l 1,0,-1
2270 0 m 1,4,-1
 1902 0 l 1,5,-1
 1184 1168 l 1,6,-1
 688 1168 l 1,7,-1
 688 0 l 1,8,-1
 393 0 l 1,9,-1
 393 2352 l 1,10,-1
 1368 2352 l 2,11,12
 1755 2352 1755 2352 1957.5 2176 c 128,-1,13
 2160 2000 2160 2000 2160 1760 c 0,14,15
 2160 1536 2160 1536 2022 1368 c 128,-1,16
 1884 1200 1884 1200 1516 1168 c 1,17,-1
 2270 0 l 1,4,-1
688 1376 m 1,18,-1
 1368 1376 l 2,19,20
 1589 1376 1589 1376 1708.5 1464 c 128,-1,21
 1828 1552 1828 1552 1828 1760 c 0,22,23
 1828 1952 1828 1952 1699.5 2040 c 128,-1,24
 1571 2128 1571 2128 1368 2128 c 2,25,-1
 688 2128 l 1,26,-1
 688 1376 l 1,18,-1
EndSplineSet
EndChar

StartChar: racute
Encoding: 341 341 279
Width: 1393
GlyphClass: 2
Flags: W
LayerCount: 2
Back
Fore
SplineSet
1383 3520 m 1,0,-1
 868 2720 l 1,1,-1
 629 2720 l 1,2,-1
 979 3520 l 1,3,-1
 1383 3520 l 1,0,-1
1199 1648 m 1,4,-1
 942 1648 l 2,5,6
 776 1648 776 1648 647 1392 c 1,7,-1
 647 0 l 1,8,-1
 371 0 l 1,9,-1
 371 1920 l 1,10,-1
 647 1920 l 1,11,-1
 647 1696 l 1,12,13
 758 1920 758 1920 942 1920 c 2,14,-1
 1199 1920 l 1,15,-1
 1199 1648 l 1,4,-1
EndSplineSet
EndChar

StartChar: Rcommaaccent
Encoding: 342 342 280
Width: 2509
GlyphClass: 2
Flags: W
LayerCount: 2
Back
Fore
SplineSet
1565 0 m 1,0,-1
 1565 -256 l 2,1,2
 1565 -592 1565 -592 1105 -576 c 1,3,-1
 1105 -432 l 1,4,5
 1344 -432 1344 -432 1344 -272 c 1,6,-1
 1105 -272 l 1,7,-1
 1105 0 l 1,8,-1
 1565 0 l 1,0,-1
2320 0 m 1,9,-1
 1952 0 l 1,10,-1
 1234 1536 l 1,11,-1
 737 1536 l 1,12,-1
 737 0 l 1,13,-1
 443 0 l 1,14,-1
 443 3104 l 1,15,-1
 1418 3104 l 2,16,17
 1804 3104 1804 3104 2006.5 2872 c 128,-1,18
 2209 2640 2209 2640 2209 2320 c 0,19,20
 2209 2032 2209 2032 2071 1808 c 128,-1,21
 1933 1584 1933 1584 1565 1536 c 1,22,-1
 2320 0 l 1,9,-1
737 1808 m 1,23,-1
 1418 1808 l 2,24,25
 1639 1808 1639 1808 1758.5 1928 c 128,-1,26
 1878 2048 1878 2048 1878 2320 c 0,27,28
 1878 2576 1878 2576 1749 2696 c 128,-1,29
 1620 2816 1620 2816 1418 2816 c 2,30,-1
 737 2816 l 1,31,-1
 737 1808 l 1,23,-1
EndSplineSet
EndChar

StartChar: rcommaaccent
Encoding: 343 343 281
Width: 1437
GlyphClass: 2
Flags: W
LayerCount: 2
Back
Fore
SplineSet
1137 -96 m 1,0,-1
 1137 -304 l 2,1,2
 1137 -560 1137 -560 769 -576 c 1,3,-1
 769 -480 l 1,4,5
 953 -480 953 -480 953 -288 c 1,6,-1
 769 -288 l 1,7,-1
 769 -96 l 1,8,-1
 1137 -96 l 1,0,-1
1211 1648 m 1,9,-1
 953 1648 l 2,10,11
 788 1648 788 1648 659 1392 c 1,12,-1
 659 0 l 1,13,-1
 383 0 l 1,14,-1
 383 1920 l 1,15,-1
 659 1920 l 1,16,-1
 659 1696 l 1,17,18
 769 1920 769 1920 953 1920 c 2,19,-1
 1211 1920 l 1,20,-1
 1211 1648 l 1,9,-1
EndSplineSet
EndChar

StartChar: Rcaron
Encoding: 344 344 282
Width: 2480
GlyphClass: 2
Flags: W
LayerCount: 2
Back
Fore
SplineSet
2269 0 m 1,0,-1
 1901 0 l 1,1,-1
 1183 1168 l 1,2,-1
 687 1168 l 1,3,-1
 687 0 l 1,4,-1
 392 0 l 1,5,-1
 392 2352 l 1,6,-1
 1367 2352 l 2,7,8
 1754 2352 1754 2352 1956.5 2176 c 128,-1,9
 2159 2000 2159 2000 2159 1760 c 0,10,11
 2159 1536 2159 1536 2021 1368 c 128,-1,12
 1883 1200 1883 1200 1515 1168 c 1,13,-1
 2269 0 l 1,0,-1
687 1376 m 1,14,-1
 1367 1376 l 2,15,16
 1588 1376 1588 1376 1707.5 1464 c 128,-1,17
 1827 1552 1827 1552 1827 1760 c 0,18,19
 1827 1952 1827 1952 1698.5 2040 c 128,-1,20
 1570 2128 1570 2128 1367 2128 c 2,21,-1
 687 2128 l 1,22,-1
 687 1376 l 1,14,-1
1699 2656 m 1,23,-1
 1551 2656 l 1,24,-1
 1055 3344 l 1,25,-1
 1239 3520 l 1,26,-1
 1625 2960 l 1,27,-1
 2011 3520 l 1,28,-1
 2195 3344 l 1,29,-1
 1699 2656 l 1,23,-1
EndSplineSet
EndChar

StartChar: rcaron
Encoding: 345 345 283
Width: 1666
GlyphClass: 2
Flags: W
LayerCount: 2
Back
Fore
SplineSet
1149 2656 m 1,0,-1
 1002 2656 l 1,1,-1
 486 3344 l 1,2,-1
 670 3520 l 1,3,-1
 1075 2960 l 1,4,-1
 1480 3520 l 1,5,-1
 1664 3344 l 1,6,-1
 1149 2656 l 1,0,-1
1388 1648 m 1,7,-1
 1057 1648 l 2,8,9
 854 1648 854 1648 707 1392 c 1,10,-1
 707 0 l 1,11,-1
 376 0 l 1,12,-1
 376 1920 l 1,13,-1
 707 1920 l 1,14,-1
 707 1696 l 1,15,16
 836 1920 836 1920 1075 1920 c 2,17,-1
 1388 1920 l 1,18,-1
 1388 1648 l 1,7,-1
EndSplineSet
EndChar

StartChar: Sacute
Encoding: 346 346 284
Width: 2295
GlyphClass: 2
Flags: W
LayerCount: 2
Back
Fore
SplineSet
1908 3520 m 1,0,-1
 1301 2720 l 1,1,-1
 1043 2720 l 1,2,-1
 1448 3520 l 1,3,-1
 1908 3520 l 1,0,-1
1724 1712 m 1,4,5
 1724 1856 1724 1856 1604.5 1992 c 128,-1,6
 1485 2128 1485 2128 1227 2128 c 2,7,-1
 1006 2128 l 2,8,9
 822 2128 822 2128 711.5 2008 c 128,-1,10
 601 1888 601 1888 601 1680 c 0,11,12
 601 1504 601 1504 767 1408 c 128,-1,13
 933 1312 933 1312 1199.5 1256 c 128,-1,14
 1466 1200 1466 1200 1714.5 1056 c 128,-1,15
 1963 912 1963 912 1963 608 c 0,16,17
 1963 288 1963 288 1742 144 c 128,-1,18
 1521 0 1521 0 1227 0 c 2,19,-1
 1006 0 l 2,20,21
 675 0 675 0 463.5 144 c 128,-1,22
 252 288 252 288 252 560 c 1,23,-1
 546 560 l 1,24,25
 546 384 546 384 675 296 c 128,-1,26
 804 208 804 208 1006 208 c 2,27,-1
 1227 208 l 2,28,29
 1374 208 1374 208 1503 296 c 128,-1,30
 1632 384 1632 384 1632 608 c 0,31,32
 1632 816 1632 816 1466.5 912 c 128,-1,33
 1301 1008 1301 1008 1080 1048 c 128,-1,34
 859 1088 859 1088 574 1232 c 128,-1,35
 289 1376 289 1376 289 1680 c 0,36,37
 289 2032 289 2032 491 2192 c 128,-1,38
 693 2352 693 2352 1006 2352 c 2,39,-1
 1227 2352 l 2,40,41
 1577 2352 1577 2352 1797.5 2168 c 128,-1,42
 2018 1984 2018 1984 2018 1712 c 1,43,-1
 1724 1712 l 1,4,5
EndSplineSet
EndChar

StartChar: sacute
Encoding: 347 347 285
Width: 2158
GlyphClass: 2
Flags: W
LayerCount: 2
Back
Fore
SplineSet
1728 3520 m 1,0,-1
 1029 2720 l 1,1,-1
 716 2720 l 1,2,-1
 1195 3520 l 1,3,-1
 1728 3520 l 1,0,-1
882 1696 m 2,4,5
 772 1696 772 1696 707.5 1632 c 128,-1,6
 643 1568 643 1568 643 1440 c 0,7,8
 643 1200 643 1200 956 1120 c 1,9,-1
 1158 1072 l 2,10,11
 1820 912 1820 912 1820 480 c 0,12,13
 1820 224 1820 224 1664 112 c 128,-1,14
 1508 0 1508 0 1250 0 c 2,15,-1
 845 0 l 2,16,17
 532 0 532 0 412.5 112 c 128,-1,18
 293 224 293 224 293 416 c 2,19,-1
 293 560 l 1,20,-1
 643 560 l 1,21,-1
 643 416 l 2,22,23
 643 320 643 320 698 272 c 128,-1,24
 753 224 753 224 882 224 c 2,25,-1
 1195 224 l 2,26,27
 1324 224 1324 224 1397.5 296 c 128,-1,28
 1471 368 1471 368 1471 480 c 0,29,30
 1471 704 1471 704 1158 784 c 1,31,-1
 919 832 l 1,32,33
 293 1008 293 1008 293 1440 c 0,34,35
 293 1632 293 1632 422 1776 c 128,-1,36
 551 1920 551 1920 864 1920 c 2,37,-1
 1250 1920 l 2,38,39
 1508 1920 1508 1920 1664 1808 c 128,-1,40
 1820 1696 1820 1696 1820 1488 c 2,41,-1
 1820 1344 l 1,42,-1
 1471 1344 l 1,43,-1
 1471 1488 l 2,44,45
 1471 1584 1471 1584 1388 1640 c 128,-1,46
 1305 1696 1305 1696 1195 1696 c 2,47,-1
 882 1696 l 2,4,5
EndSplineSet
EndChar

StartChar: Scircumflex
Encoding: 348 348 286
Width: 2325
GlyphClass: 2
Flags: W
LayerCount: 2
Back
Fore
SplineSet
1374 3520 m 1,0,-1
 1521 3520 l 1,1,-1
 1981 2832 l 1,2,-1
 1816 2672 l 1,3,-1
 1448 3216 l 1,4,-1
 1080 2672 l 1,5,-1
 896 2832 l 1,6,-1
 1374 3520 l 1,0,-1
1724 1712 m 1,7,8
 1724 1856 1724 1856 1604.5 1992 c 128,-1,9
 1485 2128 1485 2128 1227 2128 c 2,10,-1
 1006 2128 l 2,11,12
 822 2128 822 2128 711.5 2008 c 128,-1,13
 601 1888 601 1888 601 1680 c 0,14,15
 601 1504 601 1504 767 1408 c 128,-1,16
 933 1312 933 1312 1199.5 1256 c 128,-1,17
 1466 1200 1466 1200 1714.5 1056 c 128,-1,18
 1963 912 1963 912 1963 608 c 0,19,20
 1963 288 1963 288 1742 144 c 128,-1,21
 1521 0 1521 0 1227 0 c 2,22,-1
 1006 0 l 2,23,24
 675 0 675 0 463.5 144 c 128,-1,25
 252 288 252 288 252 560 c 1,26,-1
 546 560 l 1,27,28
 546 384 546 384 675 296 c 128,-1,29
 804 208 804 208 1006 208 c 2,30,-1
 1227 208 l 2,31,32
 1374 208 1374 208 1503 296 c 128,-1,33
 1632 384 1632 384 1632 608 c 0,34,35
 1632 816 1632 816 1466.5 912 c 128,-1,36
 1301 1008 1301 1008 1080 1048 c 128,-1,37
 859 1088 859 1088 574 1232 c 128,-1,38
 289 1376 289 1376 289 1680 c 0,39,40
 289 2032 289 2032 491 2192 c 128,-1,41
 693 2352 693 2352 1006 2352 c 2,42,-1
 1227 2352 l 2,43,44
 1577 2352 1577 2352 1797.5 2168 c 128,-1,45
 2018 1984 2018 1984 2018 1712 c 1,46,-1
 1724 1712 l 1,7,8
EndSplineSet
EndChar

StartChar: scircumflex
Encoding: 349 349 287
Width: 2190
GlyphClass: 2
Flags: W
LayerCount: 2
Back
Fore
SplineSet
1076 3520 m 1,0,-1
 1224 3520 l 1,1,-1
 1776 2832 l 1,2,-1
 1573 2672 l 1,3,-1
 1150 3216 l 1,4,-1
 727 2672 l 1,5,-1
 524 2832 l 1,6,-1
 1076 3520 l 1,0,-1
892 1696 m 2,7,8
 782 1696 782 1696 717.5 1632 c 128,-1,9
 653 1568 653 1568 653 1440 c 0,10,11
 653 1200 653 1200 966 1120 c 1,12,-1
 1168 1072 l 2,13,14
 1831 912 1831 912 1831 480 c 0,15,16
 1831 224 1831 224 1674.5 112 c 128,-1,17
 1518 0 1518 0 1260 0 c 2,18,-1
 856 0 l 2,19,20
 543 0 543 0 423.5 112 c 128,-1,21
 304 224 304 224 304 416 c 2,22,-1
 304 560 l 1,23,-1
 653 560 l 1,24,-1
 653 416 l 2,25,26
 653 320 653 320 708.5 272 c 128,-1,27
 764 224 764 224 892 224 c 2,28,-1
 1205 224 l 2,29,30
 1334 224 1334 224 1407.5 296 c 128,-1,31
 1481 368 1481 368 1481 480 c 0,32,33
 1481 704 1481 704 1168 784 c 1,34,-1
 929 832 l 1,35,36
 304 1008 304 1008 304 1440 c 0,37,38
 304 1632 304 1632 432.5 1776 c 128,-1,39
 561 1920 561 1920 874 1920 c 2,40,-1
 1260 1920 l 2,41,42
 1518 1920 1518 1920 1674.5 1808 c 128,-1,43
 1831 1696 1831 1696 1831 1488 c 2,44,-1
 1831 1344 l 1,45,-1
 1481 1344 l 1,46,-1
 1481 1488 l 2,47,48
 1481 1584 1481 1584 1398.5 1640 c 128,-1,49
 1316 1696 1316 1696 1205 1696 c 2,50,-1
 892 1696 l 2,7,8
EndSplineSet
EndChar

StartChar: Scedilla
Encoding: 350 350 288
Width: 2324
GlyphClass: 2
Flags: W
LayerCount: 2
Back
Fore
SplineSet
1189 -96 m 1,0,-1
 1189 -304 l 2,1,2
 1189 -560 1189 -560 766 -576 c 1,3,-1
 766 -480 l 1,4,5
 968 -480 968 -480 968 -288 c 1,6,-1
 766 -288 l 1,7,-1
 766 -96 l 1,8,-1
 1189 -96 l 1,0,-1
1741 1712 m 1,9,10
 1741 1856 1741 1856 1621.5 1992 c 128,-1,11
 1502 2128 1502 2128 1244 2128 c 2,12,-1
 1024 2128 l 2,13,14
 840 2128 840 2128 729.5 2008 c 128,-1,15
 619 1888 619 1888 619 1680 c 0,16,17
 619 1504 619 1504 784.5 1408 c 128,-1,18
 950 1312 950 1312 1217 1256 c 128,-1,19
 1484 1200 1484 1200 1732 1056 c 128,-1,20
 1980 912 1980 912 1980 608 c 0,21,22
 1980 288 1980 288 1759.5 144 c 128,-1,23
 1539 0 1539 0 1244 0 c 2,24,-1
 1024 0 l 2,25,26
 692 0 692 0 480.5 144 c 128,-1,27
 269 288 269 288 269 560 c 1,28,-1
 564 560 l 1,29,30
 564 384 564 384 692.5 296 c 128,-1,31
 821 208 821 208 1024 208 c 2,32,-1
 1244 208 l 2,33,34
 1392 208 1392 208 1520.5 296 c 128,-1,35
 1649 384 1649 384 1649 608 c 0,36,37
 1649 816 1649 816 1483.5 912 c 128,-1,38
 1318 1008 1318 1008 1097 1048 c 128,-1,39
 876 1088 876 1088 591 1232 c 128,-1,40
 306 1376 306 1376 306 1680 c 0,41,42
 306 2032 306 2032 508.5 2192 c 128,-1,43
 711 2352 711 2352 1024 2352 c 2,44,-1
 1244 2352 l 2,45,46
 1594 2352 1594 2352 1815 2168 c 128,-1,47
 2036 1984 2036 1984 2036 1712 c 1,48,-1
 1741 1712 l 1,9,10
EndSplineSet
EndChar

